<svg width="109" height="108" viewBox="0 0 109 108" fill="none" xmlns="http://www.w3.org/2000/svg">
<path d="M54.7045 3.08154C44.6314 3.08154 34.7844 6.06858 26.4089 11.6649C18.0334 17.2613 11.5055 25.2155 7.65066 34.5219C3.79583 43.8283 2.78724 54.0688 4.75241 63.9483C6.71758 73.8279 11.5683 82.9029 18.691 90.0257C25.8138 97.1485 34.8888 101.999 44.7684 103.964C54.648 105.93 64.8885 104.921 74.1948 101.066C83.5012 97.2113 91.4555 90.6834 97.0518 82.3078C102.648 73.9323 105.635 64.0854 105.635 54.0123C105.635 40.5046 100.269 27.5502 90.718 17.9988C81.1666 8.44744 68.2122 3.08154 54.7045 3.08154ZM55.294 104.062C45.5356 104.062 35.9962 101.169 27.8822 95.7478C19.7682 90.3267 13.444 82.6212 9.70935 73.6057C5.97472 64.5903 4.99742 54.6698 6.90105 45.0989C8.80468 35.528 13.5037 26.7366 20.4039 19.8364C27.3041 12.9362 36.0956 8.23713 45.6665 6.3335C55.2374 4.42988 65.1578 5.40717 74.1733 9.1418C83.1887 12.8764 90.8942 19.2006 96.3154 27.3147C101.736 35.4287 104.63 44.9681 104.629 54.7264C104.629 61.2052 103.353 67.6206 100.874 73.6062C98.3944 79.5918 94.7604 85.0305 90.1792 89.6116C85.598 94.1928 80.1593 97.8268 74.1737 100.306C68.1881 102.785 61.7728 104.062 55.294 104.062Z" fill="white"/>
<path d="M55.8836 7.69495C46.4407 7.69495 37.2098 10.4952 29.3584 15.7416C21.507 20.988 15.3878 28.4448 11.7745 37.1691C8.16127 45.8934 7.2163 55.4932 9.05914 64.7546C10.902 74.0159 15.4499 82.5228 22.1276 89.1993C28.8053 95.8759 37.313 100.422 46.5747 102.263C55.8364 104.105 65.4361 103.158 74.1597 99.5432C82.8833 95.9283 90.3391 89.8078 95.5841 81.9554C100.829 74.1031 103.628 64.8718 103.626 55.4289C103.624 42.7683 98.5928 30.627 89.6396 21.6754C80.6864 12.7238 68.5442 7.69495 55.8836 7.69495ZM56.4702 102.298C47.3426 102.298 38.4199 99.5917 30.8305 94.5206C23.2412 89.4494 17.3261 82.2417 13.8332 73.8088C10.3403 65.3759 9.42658 56.0965 11.2075 47.1443C12.9884 38.1921 17.384 29.969 23.8385 23.515C30.2929 17.0609 38.5163 12.6658 47.4686 10.8854C56.421 9.10506 65.7002 10.0194 74.1329 13.5128C82.5656 17.0062 89.773 22.9217 94.8437 30.5114C99.9143 38.101 102.62 47.0239 102.62 56.1515C102.62 62.2119 101.426 68.2129 99.1069 73.8118C96.7876 79.4108 93.3882 84.4981 89.1028 88.7833C84.8174 93.0685 79.7299 96.4676 74.1307 98.7865C68.5316 101.105 62.5306 102.299 56.4702 102.298Z" fill="white"/>
<path d="M57.0589 12.3093C48.2469 12.3093 39.6329 14.9224 32.306 19.818C24.9791 24.7137 19.2685 31.6721 15.8963 39.8133C12.5241 47.9545 11.6418 56.9129 13.3609 65.5555C15.08 74.1982 19.3234 82.1369 25.5544 88.3679C31.7854 94.5989 39.7242 98.8423 48.3668 100.561C57.0095 102.281 65.9678 101.398 74.109 98.0261C82.2502 94.6539 89.2086 88.9432 94.1043 81.6164C99 74.2895 101.613 65.6754 101.613 56.8634C101.612 45.0472 96.918 33.7151 88.5626 25.3598C80.2072 17.0044 68.8752 12.3101 57.0589 12.3093ZM57.6484 100.539C49.1517 100.538 40.8461 98.0173 33.7819 93.2959C26.7177 88.5746 21.2121 81.8645 17.9613 74.0143C14.7105 66.164 13.8606 57.5261 15.5189 49.1928C17.1772 40.8595 21.2693 33.205 27.2778 27.1973C33.2863 21.1896 40.9413 17.0985 49.2748 15.4413C57.6083 13.7841 66.2461 14.6352 74.096 17.887C81.9458 21.1388 88.6551 26.6453 93.3755 33.7101C98.0959 40.775 100.615 49.0809 100.615 57.5776C100.615 63.2199 99.504 68.8068 97.3447 74.0195C95.1853 79.2322 92.0203 83.9685 88.0303 87.9579C84.0404 91.9473 79.3037 95.1117 74.0907 97.2704C68.8778 99.429 63.2906 100.54 57.6484 100.539Z" fill="white"/>
<path d="M58.2381 16.9227C50.0545 16.9227 42.0547 19.3495 35.2502 23.896C28.4458 28.4426 23.1424 34.9048 20.0106 42.4655C16.8789 50.0262 16.0595 58.3458 17.656 66.3721C19.2526 74.3985 23.1934 81.7712 28.9801 87.5579C34.7668 93.3446 42.1395 97.2854 50.1658 98.882C58.1922 100.478 66.5118 99.6591 74.0725 96.5274C81.6331 93.3956 88.0954 88.0922 92.642 81.2878C97.1885 74.4833 99.6153 66.4835 99.6153 58.2999C99.6153 52.8661 98.545 47.4856 96.4656 42.4655C94.3862 37.4454 91.3384 32.884 87.4962 29.0418C83.6539 25.1996 79.0926 22.1518 74.0725 20.0724C69.0524 17.993 63.6718 16.9227 58.2381 16.9227ZM58.8276 98.7899C50.9618 98.7899 43.2727 96.4576 36.7323 92.088C30.192 87.7183 25.0942 81.5074 22.0834 74.2406C19.0727 66.9739 18.2842 58.9776 19.8177 51.2627C21.3512 43.5479 25.1379 36.461 30.6988 30.8981C36.2597 25.3352 43.3453 21.546 51.0596 20.0098C58.7739 18.4735 66.7705 19.2591 74.0383 22.2673C81.3061 25.2755 87.5188 30.3711 91.8908 36.9098C96.2628 43.4486 98.5979 51.1369 98.6007 59.0027C98.6025 64.227 97.5751 69.4004 95.5772 74.2276C93.5792 79.0547 90.6499 83.4409 86.9564 87.1357C83.263 90.8304 78.8778 93.7614 74.0514 95.761C69.225 97.7607 64.0519 98.7899 58.8276 98.7899Z" fill="white"/>
<path d="M59.419 21.5375C51.8675 21.5369 44.4855 23.7757 38.2064 27.9706C31.9273 32.1656 27.0332 38.1284 24.143 45.1049C21.2527 52.0814 20.4962 59.7582 21.9691 67.1647C23.442 74.5711 27.0781 81.3745 32.4176 86.7144C37.7571 92.0543 44.5602 95.6909 51.9665 97.1643C59.3729 98.6377 67.0498 97.8818 74.0265 94.9921C81.0032 92.1024 86.9663 87.2087 91.1618 80.93C95.3572 74.6512 97.5965 67.2693 97.5965 59.7178C97.5969 54.704 96.6097 49.7393 94.6912 45.107C92.7728 40.4748 89.9607 36.2658 86.4156 32.7204C82.8704 29.175 78.6616 26.3626 74.0296 24.4438C69.3975 22.5251 64.4328 21.5375 59.419 21.5375ZM60.0057 97.0139C52.77 97.0134 45.697 94.8672 39.681 90.8469C33.6651 86.8266 28.9763 81.1126 26.2078 74.4276C23.4392 67.7425 22.7151 60.3866 24.127 53.2901C25.539 46.1935 29.0236 39.675 34.1402 34.5588C39.2567 29.4426 45.7755 25.9586 52.8722 24.5471C59.9689 23.1357 67.3247 23.8604 74.0095 26.6295C80.6944 29.3986 86.4079 34.0878 90.4278 40.104C94.4477 46.1203 96.5932 53.1935 96.5932 60.4291C96.5932 65.2338 95.6469 69.9913 93.8081 74.4302C91.9694 78.869 89.2743 82.9022 85.8768 86.2995C82.4793 89.6967 78.4459 92.3915 74.0069 94.2299C69.5679 96.0683 64.8103 97.0143 60.0057 97.0139Z" fill="white"/>
<path d="M60.5934 26.1509C53.6726 26.1509 46.9073 28.2031 41.1529 32.0481C35.3984 35.8931 30.9134 41.3581 28.265 47.752C25.6165 54.146 24.9235 61.1817 26.2737 67.9695C27.6239 74.7573 30.9566 80.9923 35.8503 85.886C40.744 90.7797 46.979 94.1124 53.7668 95.4626C60.5546 96.8127 67.5903 96.1198 73.9842 93.4713C80.3782 90.8228 85.8432 86.3378 89.6882 80.5834C93.5331 74.829 95.5854 68.0637 95.5854 61.1429C95.5854 51.8624 91.8988 42.9621 85.3365 36.3998C78.7742 29.8375 69.8738 26.1509 60.5934 26.1509ZM61.1829 95.2535C54.577 95.2541 48.1193 93.2957 42.6264 89.6261C37.1336 85.9565 32.8523 80.7404 30.3239 74.6376C27.7956 68.5347 27.1338 61.8191 28.4222 55.3401C29.7106 48.8611 32.8913 42.9096 37.5622 38.2384C42.233 33.5671 48.1842 30.3859 54.6631 29.0969C61.142 27.808 67.8576 28.4692 73.9607 30.9971C80.0638 33.5249 85.2802 37.8058 88.9503 43.2983C92.6204 48.7908 94.5793 55.2484 94.5793 61.8542C94.5797 66.2402 93.7161 70.5832 92.038 74.6354C90.3598 78.6876 87.8999 82.3695 84.7987 85.4709C81.6975 88.5724 78.0158 91.0326 73.9638 92.7111C69.9118 94.3896 65.5688 95.2535 61.1829 95.2535Z" fill="white"/>
<path d="M61.7743 30.7727C55.4838 30.7727 49.3345 32.6382 44.1042 36.1332C38.874 39.6282 34.7976 44.5958 32.3907 50.4076C29.9838 56.2195 29.3545 62.6146 30.5823 68.7841C31.8102 74.9537 34.84 80.6206 39.2887 85.0681C43.7374 89.5155 49.4051 92.5439 55.5749 93.7701C61.7448 94.9963 68.1397 94.3652 73.951 91.9568C79.7622 89.5483 84.7287 85.4706 88.2223 80.2394C91.7159 75.0082 93.5797 68.8585 93.578 62.5679C93.5758 54.1345 90.224 46.0473 84.2599 40.0848C78.2958 34.1223 70.2077 30.7727 61.7743 30.7727ZM62.3581 93.4902C56.383 93.4897 50.5421 91.7173 45.5743 88.3972C40.6064 85.0771 36.7347 80.3584 34.4486 74.8379C32.1625 69.3173 31.5648 63.2429 32.731 57.3826C33.8973 51.5224 36.7751 46.1396 41.0006 41.9149C45.2261 37.6902 50.6094 34.8134 56.4699 33.6482C62.3303 32.4831 68.4047 33.0819 73.9248 35.369C79.4449 37.6562 84.1629 41.5288 87.4821 46.4973C90.8012 51.4658 92.5725 57.3069 92.5719 63.2821C92.5716 67.2495 91.7898 71.1779 90.2712 74.8431C88.7526 78.5084 86.527 81.8386 83.7214 84.6437C80.9157 87.4487 77.5851 89.6738 73.9196 91.1917C70.2541 92.7096 66.3255 93.4906 62.3581 93.4902Z" fill="white"/>
<path d="M62.9526 35.3785C57.2913 35.3785 51.7571 37.0573 47.05 40.2025C42.3428 43.3478 38.674 47.8182 36.5075 53.0486C34.341 58.2789 33.7742 64.0342 34.8786 69.5867C35.9831 75.1392 38.7093 80.2395 42.7124 84.2426C46.7155 88.2457 51.8158 90.9719 57.3683 92.0764C62.9208 93.1808 68.6761 92.614 73.9065 90.4475C79.1368 88.281 83.6072 84.6122 86.7525 79.905C89.8977 75.1979 91.5765 69.6637 91.5765 64.0024C91.5765 56.4109 88.5607 49.1303 83.1927 43.7623C77.8247 38.3943 70.5441 35.3785 62.9526 35.3785ZM63.5392 91.728C58.1945 91.728 52.9698 90.143 48.5259 87.1736C44.082 84.2042 40.6184 79.9837 38.5732 75.0458C36.528 70.1079 35.9931 64.6744 37.036 59.4324C38.0789 54.1904 40.6528 49.3755 44.4323 45.5964C48.2118 41.8173 53.027 39.2439 58.2691 38.2015C63.5112 37.1592 68.9446 37.6947 73.8823 39.7404C78.82 41.7861 83.0402 45.2501 86.0091 49.6944C88.9781 54.1386 90.5624 59.3634 90.5619 64.7081C90.5622 68.2568 89.8635 71.7707 88.5056 75.0493C87.1477 78.3278 85.1572 81.3067 82.6478 83.8159C80.1384 86.325 77.1593 88.3152 73.8806 89.6728C70.6019 91.0303 67.0878 91.7287 63.5392 91.728Z" fill="white"/>
<path d="M64.1278 39.9924C59.0983 39.9936 54.1822 41.486 50.0009 44.2811C45.8197 47.0762 42.5611 51.0484 40.6373 55.6953C38.7136 60.3423 38.2109 65.4554 39.193 70.388C40.1751 75.3206 42.5978 79.8513 46.1548 83.4071C49.7117 86.9628 54.2432 89.384 59.1761 90.3644C64.1091 91.3449 69.222 90.8405 73.8683 88.9152C78.5147 86.9899 82.4857 83.73 85.2794 79.5478C88.0731 75.3656 89.5639 70.449 89.5634 65.4195C89.5634 62.0797 88.9054 58.7725 87.627 55.687C86.3487 52.6015 84.475 49.7981 82.1129 47.4369C79.7509 45.0756 76.9468 43.2028 73.8609 41.9255C70.775 40.6482 67.4676 39.9913 64.1278 39.9924ZM64.7173 89.9681C60.0033 89.9681 55.3951 88.5702 51.4756 85.9513C47.556 83.3323 44.5011 79.6099 42.6972 75.2547C40.8932 70.8996 40.4212 66.1073 41.3409 61.4839C42.2605 56.8604 44.5305 52.6136 47.8638 49.2803C51.1971 45.947 55.444 43.677 60.0674 42.7573C64.6908 41.8377 69.4831 42.3097 73.8383 44.1136C78.1934 45.9176 81.9158 48.9725 84.5348 52.892C87.1538 56.8116 88.5516 61.4197 88.5516 66.1337C88.5516 72.455 86.0405 78.5173 81.5707 82.9871C77.1009 87.457 71.0385 89.9681 64.7173 89.9681Z" fill="white"/>
<path d="M65.3079 44.6058C60.9087 44.6053 56.6081 45.9093 52.95 48.353C49.292 50.7968 46.4408 54.2704 44.757 58.3347C43.0732 62.3989 42.6325 66.8712 43.4906 71.1859C44.3487 75.5006 46.4671 79.464 49.5778 82.5747C52.6886 85.6854 56.6519 87.8038 60.9666 88.6619C65.2813 89.52 69.7536 89.0793 73.8179 87.3955C77.8821 85.7117 81.3557 82.8605 83.7995 79.2025C86.2432 75.5444 87.5472 71.2439 87.5467 66.8446C87.5459 60.9468 85.2027 55.2907 81.0322 51.1203C76.8618 46.9498 71.2057 44.6066 65.3079 44.6058ZM65.8974 88.2049C61.814 88.2049 57.8222 86.994 54.427 84.7254C51.0318 82.4568 48.3855 79.2323 46.8229 75.4597C45.2602 71.6871 44.8514 67.5359 45.648 63.531C46.4446 59.526 48.411 55.8472 51.2984 52.9598C54.1858 50.0724 57.8646 48.1061 61.8695 47.3095C65.8745 46.5128 70.0257 46.9217 73.7983 48.4843C77.5708 50.047 80.7953 52.6932 83.0639 56.0885C85.3326 59.4837 86.5434 63.4754 86.5434 67.5588C86.5427 73.0343 84.3672 78.2852 80.4955 82.157C76.6238 86.0287 71.3728 88.2041 65.8974 88.2049Z" fill="white"/>
<path d="M66.4841 49.2201C62.7157 49.2201 59.032 50.3376 55.8987 52.4312C52.7653 54.5248 50.3232 57.5005 48.8811 60.982C47.439 64.4636 47.0617 68.2945 47.7969 71.9905C48.5321 75.6865 50.3467 79.0815 53.0114 81.7461C55.676 84.4108 59.071 86.2255 62.767 86.9606C66.463 87.6958 70.294 87.3185 73.7755 85.8764C77.257 84.4343 80.2328 81.9922 82.3264 78.8589C84.42 75.7256 85.5374 72.0418 85.5374 68.2734C85.5374 63.2202 83.53 58.3739 79.9568 54.8007C76.3836 51.2275 71.5374 49.2201 66.4841 49.2201ZM67.0736 86.4453C63.6202 86.4453 60.2444 85.4213 57.373 83.5027C54.5016 81.5841 52.2637 78.8571 50.9421 75.6666C49.6206 72.4761 49.2748 68.9654 49.9485 65.5784C50.6222 62.1913 52.2852 59.0802 54.7271 56.6383C57.169 54.1964 60.2802 52.5334 63.6672 51.8597C67.0542 51.186 70.565 51.5317 73.7555 52.8533C76.946 54.1748 79.6729 56.4128 81.5915 59.2842C83.5101 62.1556 84.5342 65.5314 84.5342 68.9848C84.5342 73.6156 82.6946 78.0568 79.4201 81.3313C76.1456 84.6057 71.7044 86.4453 67.0736 86.4453Z" fill="white"/>
<path d="M67.6614 53.8335C64.5225 53.8335 61.454 54.7643 58.8441 56.5082C56.2342 58.2521 54.2 60.7307 52.9988 63.6307C51.7976 66.5307 51.4833 69.7218 52.0957 72.8004C52.708 75.879 54.2196 78.7069 56.4391 80.9265C58.6587 83.146 61.4866 84.6575 64.5652 85.2699C67.6438 85.8823 70.8348 85.568 73.7348 84.3668C76.6348 83.1656 79.1135 81.1314 80.8574 78.5215C82.6013 75.9115 83.5321 72.8431 83.5321 69.7042C83.5321 67.62 83.1216 65.5563 82.324 63.6307C81.5264 61.7052 80.3574 59.9556 78.8837 58.4819C77.4099 57.0082 75.6604 55.8392 73.7348 55.0416C71.8093 54.244 69.7456 53.8335 67.6614 53.8335ZM68.2509 84.6821C65.4281 84.6821 62.6687 83.8451 60.3216 82.2768C57.9746 80.7086 56.1452 78.4795 55.065 75.8716C53.9848 73.2637 53.7021 70.394 54.2528 67.6255C54.8035 64.8569 56.1628 62.3138 58.1588 60.3178C60.1549 58.3218 62.6979 56.9625 65.4665 56.4118C68.235 55.8611 71.1047 56.1438 73.7126 57.224C76.3205 58.3042 78.5496 60.1335 80.1178 62.4806C81.6861 64.8277 82.5231 67.5871 82.5231 70.4099C82.5231 74.1951 81.0195 77.8253 78.3429 80.5019C75.6663 83.1785 72.0361 84.6821 68.2509 84.6821Z" fill="white"/>
<path d="M68.8404 58.4474C66.3332 58.4474 63.8823 59.1909 61.7976 60.5838C59.7129 61.9767 58.0881 63.9566 57.1286 66.2729C56.1692 68.5893 55.9181 71.1382 56.4073 73.5972C56.8964 76.0562 58.1037 78.315 59.8766 80.0879C61.6495 81.8608 63.9082 83.0681 66.3673 83.5572C68.8263 84.0464 71.3752 83.7953 73.6916 82.8359C76.0079 81.8764 77.9878 80.2516 79.3807 78.1669C80.7736 76.0822 81.5171 73.6313 81.5171 71.1241C81.5175 69.4593 81.1898 67.8107 80.5529 66.2725C79.916 64.7343 78.9822 63.3367 77.805 62.1595C76.6278 60.9823 75.2302 60.0485 73.692 59.4116C72.1538 58.7747 70.5052 58.447 68.8404 58.4474ZM69.4412 82.9194C67.2489 82.92 65.1056 82.2704 63.2825 81.0528C61.4594 79.8352 60.0383 78.1043 59.1989 76.0791C58.3596 74.0538 58.1397 71.8251 58.567 69.6748C58.9944 67.5245 60.0498 65.5493 61.5998 63.9989C63.1498 62.4485 65.1248 61.3926 67.275 60.9647C69.4251 60.5368 71.6539 60.7561 73.6794 61.5949C75.7049 62.4338 77.4361 63.8544 78.6542 65.6772C79.8722 67.5 80.5224 69.6431 80.5224 71.8354C80.5224 74.7746 79.355 77.5934 77.2769 79.672C75.1989 81.7506 72.3804 82.9187 69.4412 82.9194Z" fill="white"/>
<path d="M70.0073 63.0612C68.1308 63.0617 66.2966 63.6187 64.7366 64.6616C63.1766 65.7046 61.9609 67.1866 61.2432 68.9205C60.5255 70.6543 60.338 72.562 60.7044 74.4024C61.0708 76.2428 61.9747 77.9332 63.3018 79.2599C64.6289 80.5866 66.3196 81.49 68.1601 81.8558C70.0006 82.2217 71.9082 82.0337 73.6418 81.3154C75.3755 80.5972 76.8572 79.381 77.8996 77.8207C78.9421 76.2604 79.4985 74.4261 79.4985 72.5496C79.4985 71.3033 79.253 70.0692 78.776 68.9179C78.299 67.7665 77.5998 66.7204 76.7184 65.8392C75.8371 64.9581 74.7907 64.2593 73.6392 63.7826C72.4877 63.3059 71.2536 63.0608 70.0073 63.0612ZM70.5968 81.1594C69.0359 81.156 67.511 80.6901 66.2148 79.8205C64.9186 78.9509 63.9093 77.7166 63.3143 76.2735C62.7193 74.8305 62.5653 73.2435 62.8719 71.713C63.1785 70.1825 63.9318 68.7772 65.0367 67.6747C66.1416 66.5722 67.5485 65.8218 69.0797 65.5186C70.6108 65.2153 72.1975 65.3726 73.6392 65.9707C75.081 66.5688 76.3131 67.5809 77.18 68.8789C78.0468 70.177 78.5094 71.7028 78.5095 73.2637C78.5091 74.3012 78.3043 75.3285 77.9069 76.2868C77.5094 77.2451 76.927 78.1158 76.193 78.849C75.459 79.5822 74.5878 80.1636 73.629 80.5601C72.6702 80.9565 71.6428 81.1602 70.6053 81.1594H70.5968Z" fill="white"/>
<path d="M71.1976 67.6746C69.9509 67.6746 68.7322 68.0443 67.6956 68.737C66.6591 69.4297 65.8512 70.4142 65.3742 71.5661C64.8973 72.718 64.7726 73.9854 65.016 75.2082C65.2595 76.4309 65.86 77.554 66.7418 78.4353C67.6236 79.3167 68.7469 79.9168 69.9697 80.1597C71.1926 80.4025 72.46 80.2773 73.6116 79.7998C74.7633 79.3223 75.7475 78.514 76.4397 77.4771C77.1319 76.4403 77.5011 75.2214 77.5006 73.9747C77.4998 72.3035 76.8354 70.7011 75.6535 69.5196C74.4715 68.3382 72.8688 67.6746 71.1976 67.6746ZM71.7871 79.3962C70.8556 79.3962 69.9451 79.1198 69.1707 78.6021C68.3963 78.0843 67.793 77.3485 67.437 76.4876C67.0811 75.6268 66.9885 74.6797 67.1711 73.7663C67.3536 72.8528 67.8031 72.0141 68.4626 71.3562C69.122 70.6983 69.9619 70.2509 70.8757 70.0705C71.7896 69.8902 72.7365 69.985 73.5964 70.3431C74.4564 70.7011 75.1908 71.3062 75.7067 72.0818C76.2226 72.8574 76.4967 73.7687 76.4945 74.7002C76.4915 75.9467 75.9942 77.1411 75.1117 78.0215C74.2293 78.9018 73.0336 79.3962 71.7871 79.3962Z" fill="white"/>
<path d="M72.3767 78.5159C74.0969 78.5159 75.4913 77.1214 75.4913 75.4012C75.4913 73.6811 74.0969 72.2866 72.3767 72.2866C70.6566 72.2866 69.2621 73.6811 69.2621 75.4012C69.2621 77.1214 70.6566 78.5159 72.3767 78.5159Z" fill="white"/>
</svg>
