<svg width="301" height="301" viewBox="0 0 301 301" fill="none" xmlns="http://www.w3.org/2000/svg">
<path fill-rule="evenodd" clip-rule="evenodd" d="M169.661 57.1979V57.7761H170.54C170.572 57.2533 170.247 57.0949 169.661 57.1979Z" fill="url(#paint0_linear_3_64)"/>
<path d="M170.683 71.7093C171.024 71.7093 171.301 71.4327 171.301 71.0915C171.301 70.7502 171.024 70.4736 170.683 70.4736C170.342 70.4736 170.065 70.7502 170.065 71.0915C170.065 71.4327 170.342 71.7093 170.683 71.7093Z" fill="url(#paint1_linear_3_64)"/>
<path fill-rule="evenodd" clip-rule="evenodd" d="M178.731 79.1316C179.246 79.0683 180.189 79.4247 179.896 78.5455C179.23 78.4663 178.803 78.6168 178.731 79.1316Z" fill="url(#paint2_linear_3_64)"/>
<path fill-rule="evenodd" clip-rule="evenodd" d="M195.69 78.5453C194.383 78.4027 194.106 79.3374 193.647 80.0107C193.879 80.069 194.121 80.0761 194.356 80.0313C194.591 79.9866 194.814 79.8912 195.008 79.7517C195.203 79.6122 195.365 79.4321 195.482 79.2237C195.6 79.0154 195.671 78.7839 195.69 78.5453Z" fill="url(#paint3_linear_3_64)"/>
<path fill-rule="evenodd" clip-rule="evenodd" d="M197.741 79.1315C198.13 79.5117 198.827 79.5196 198.914 78.8384C198.47 78.8938 197.829 78.7354 197.741 79.1315Z" fill="url(#paint4_linear_3_64)"/>
<path fill-rule="evenodd" clip-rule="evenodd" d="M167.031 84.9849H166.445C166.445 85.2779 166.207 85.3255 166.152 85.571C166.611 85.5473 167.134 85.6027 167.031 84.9849Z" fill="url(#paint5_linear_3_64)"/>
<path fill-rule="evenodd" clip-rule="evenodd" d="M173.471 87.3217V86.4425C173.058 86.3905 172.639 86.4951 172.299 86.7355C171.998 87.6148 172.941 87.2583 173.471 87.3217Z" fill="url(#paint6_linear_3_64)"/>
<path fill-rule="evenodd" clip-rule="evenodd" d="M114.959 94.3394V95.2186C115.814 95.6543 115.814 93.9117 114.959 94.3394Z" fill="url(#paint7_linear_3_64)"/>
<path fill-rule="evenodd" clip-rule="evenodd" d="M243.668 101.073C243.097 100.835 242.509 100.639 241.91 100.487C241.276 100.637 240.682 102.071 240.159 101.944L240.595 102.293L240.452 102.823C245.276 102.823 249.427 100.78 253.609 101.073C254.214 100.481 254.706 99.7827 255.058 99.0132C251.74 98.2845 247.193 101.168 243.668 101.073Z" fill="url(#paint8_linear_3_64)"/>
<path fill-rule="evenodd" clip-rule="evenodd" d="M126.365 111.307C126.642 110.118 124.78 110.293 124.321 110.72C124.268 110.972 124.267 111.231 124.318 111.483C124.368 111.735 124.469 111.974 124.614 112.186C125.485 112.178 126.396 112.218 126.365 111.307Z" fill="url(#paint9_linear_3_64)"/>
<path fill-rule="evenodd" clip-rule="evenodd" d="M188.965 113.944C188.965 113.651 189.202 113.596 189.258 113.358C188.965 113.358 188.909 113.121 188.672 113.065C188.672 113.358 188.434 113.414 188.379 113.651C188.672 113.651 188.727 113.881 188.965 113.944Z" fill="url(#paint10_linear_3_64)"/>
<path fill-rule="evenodd" clip-rule="evenodd" d="M205.052 113.945C204.347 114.063 204.419 113.406 203.595 113.652C203.571 114.483 205.076 114.768 205.052 113.945Z" fill="url(#paint11_linear_3_64)"/>
<path fill-rule="evenodd" clip-rule="evenodd" d="M95.948 120.669L95.5123 120.519L95.3618 120.083C91.4013 119.988 89.0963 121.62 88.0507 124.471L88.4863 124.321L88.6368 124.764C91.2033 123.568 94.2608 122.824 95.948 120.669Z" fill="url(#paint12_linear_3_64)"/>
<path fill-rule="evenodd" clip-rule="evenodd" d="M85.7059 132.076C88.0822 130.65 91.2506 129.977 93.0249 127.981L92.5813 127.838L92.7318 127.394C90.3555 126.943 88.3436 130.095 87.1871 127.394L86.7514 127.545L86.6009 127.101C85.5474 128.59 85.4682 129.763 85.7059 132.076Z" fill="url(#paint13_linear_3_64)"/>
<path fill-rule="evenodd" clip-rule="evenodd" d="M276.723 127.688C276.113 125.818 273.166 126.175 271.455 126.808L271.606 127.101L271.455 127.395C273 128.123 275.107 128.543 276.723 127.688Z" fill="url(#paint14_linear_3_64)"/>
<path fill-rule="evenodd" clip-rule="evenodd" d="M25.4499 129.739C25.3472 129.639 25.2157 129.573 25.0738 129.551C24.9319 129.529 24.7867 129.552 24.6584 129.617C24.5302 129.681 24.4253 129.784 24.3584 129.911C24.2916 130.038 24.2661 130.183 24.2855 130.325C24.9509 130.405 25.3469 130.254 25.4499 129.739Z" fill="url(#paint15_linear_3_64)"/>
<path fill-rule="evenodd" clip-rule="evenodd" d="M193.353 130.903V131.782H194.858C195.143 130.602 193.916 130.341 193.353 130.903Z" fill="url(#paint16_linear_3_64)"/>
<path fill-rule="evenodd" clip-rule="evenodd" d="M26.623 138.214C27.0507 138.61 28.9359 138.816 28.9993 137.929C28.2626 138.103 26.8368 137.557 26.623 138.214Z" fill="url(#paint17_linear_3_64)"/>
<path fill-rule="evenodd" clip-rule="evenodd" d="M119.933 139.094V138.214C119.518 138.165 119.1 138.272 118.76 138.515C118.467 139.411 119.418 139.03 119.933 139.094Z" fill="url(#paint18_linear_3_64)"/>
<path fill-rule="evenodd" clip-rule="evenodd" d="M121.984 140.852H122.563V140.266H121.984V140.852Z" fill="url(#paint19_linear_3_64)"/>
<path fill-rule="evenodd" clip-rule="evenodd" d="M44.4684 149.336C45.1337 149.415 45.5615 149.264 45.6328 148.749C45.1971 148.29 44.3575 148.425 44.4684 149.336Z" fill="url(#paint20_linear_3_64)"/>
<path fill-rule="evenodd" clip-rule="evenodd" d="M128.416 149.043C127.997 149.47 127.989 150.175 129.003 149.922C129.03 149.729 128.986 149.533 128.878 149.37C128.769 149.208 128.605 149.091 128.416 149.043Z" fill="url(#paint21_linear_3_64)"/>
<path fill-rule="evenodd" clip-rule="evenodd" d="M108.233 151.086H108.819V150.5H108.233V151.086Z" fill="url(#paint22_linear_3_64)"/>
<path fill-rule="evenodd" clip-rule="evenodd" d="M133.391 151.965C133.439 152.797 132.401 152.536 132.805 153.724C133.653 153.961 134.659 151.957 133.391 151.965Z" fill="url(#paint23_linear_3_64)"/>
<path fill-rule="evenodd" clip-rule="evenodd" d="M122.562 153.138V152.552C122.024 151.577 121.144 153.431 122.562 153.138Z" fill="url(#paint24_linear_3_64)"/>
<path fill-rule="evenodd" clip-rule="evenodd" d="M172.29 153.431V152.552C171.625 152.472 171.197 152.623 171.126 153.138C171.514 153.233 171.681 153.558 172.29 153.431Z" fill="url(#paint25_linear_3_64)"/>
<path fill-rule="evenodd" clip-rule="evenodd" d="M69.9114 154.603C70.4342 154.532 71.3768 154.896 71.0838 154.017H69.9114V154.603Z" fill="url(#paint26_linear_3_64)"/>
<path fill-rule="evenodd" clip-rule="evenodd" d="M137.486 154.603C137.28 155.68 137.946 155.894 138.952 155.767C139.15 154.69 138.484 154.46 137.486 154.603Z" fill="url(#paint27_linear_3_64)"/>
<path fill-rule="evenodd" clip-rule="evenodd" d="M133.391 155.767C133.245 155.979 133.144 156.218 133.094 156.47C133.044 156.722 133.045 156.981 133.098 157.233C133.348 157.285 133.606 157.286 133.856 157.235C134.107 157.185 134.344 157.084 134.555 156.94C134.46 156.259 134.373 155.569 133.391 155.767Z" fill="url(#paint28_linear_3_64)"/>
<path fill-rule="evenodd" clip-rule="evenodd" d="M126.365 156.354C126.547 156.354 126.714 156.401 126.658 156.647H127.244C127.704 155.926 126.254 155.783 126.365 156.354Z" fill="url(#paint29_linear_3_64)"/>
<path fill-rule="evenodd" clip-rule="evenodd" d="M165.859 158.698C165.907 159.039 165.804 159.49 166.152 159.578C166.152 159.395 166.192 159.229 166.445 159.277C166.406 158.928 166.342 158.587 165.859 158.698Z" fill="url(#paint30_linear_3_64)"/>
<path fill-rule="evenodd" clip-rule="evenodd" d="M176.679 159.276C176.054 160.75 177.701 162.286 176.679 159.276V159.276Z" fill="url(#paint31_linear_3_64)"/>
<path fill-rule="evenodd" clip-rule="evenodd" d="M142.461 159.577H141.288C141.253 159.672 141.241 159.774 141.253 159.874C141.266 159.974 141.303 160.07 141.36 160.153C141.418 160.236 141.495 160.304 141.584 160.351C141.674 160.398 141.773 160.422 141.874 160.422C141.975 160.422 142.075 160.398 142.164 160.351C142.254 160.304 142.331 160.236 142.388 160.153C142.446 160.07 142.483 159.974 142.495 159.874C142.508 159.774 142.496 159.672 142.461 159.577Z" fill="url(#paint32_linear_3_64)"/>
<path fill-rule="evenodd" clip-rule="evenodd" d="M125.494 160.742C125.953 160.742 126.508 160.742 126.365 160.156H125.787C125.787 160.449 125.549 160.504 125.494 160.742Z" fill="url(#paint33_linear_3_64)"/>
<path fill-rule="evenodd" clip-rule="evenodd" d="M177.266 162.793C177.345 162.389 177.083 161.645 176.973 162.207C176.893 162.603 177.155 163.348 177.266 162.793Z" fill="url(#paint34_linear_3_64)"/>
<path fill-rule="evenodd" clip-rule="evenodd" d="M167.032 163.372C167.057 163.18 167.012 162.986 166.904 162.825C166.796 162.665 166.633 162.549 166.446 162.5C166.026 162.928 166.01 163.633 167.032 163.372Z" fill="url(#paint35_linear_3_64)"/>
<path fill-rule="evenodd" clip-rule="evenodd" d="M50.0213 165.423C49.0707 165.645 48.1677 165.907 48.2707 167.174C49.7519 167.396 50.5124 166.889 50.9005 166.01L50.4015 165.804L50.0213 165.423Z" fill="url(#paint36_linear_3_64)"/>
<path fill-rule="evenodd" clip-rule="evenodd" d="M120.812 166.889H121.398V166.342H120.812V166.889Z" fill="url(#paint37_linear_3_64)"/>
<path fill-rule="evenodd" clip-rule="evenodd" d="M52.6598 169.812C52.875 169.857 53.0977 169.854 53.3112 169.801C53.5247 169.748 53.7233 169.647 53.892 169.505C54.0607 169.364 54.195 169.186 54.2848 168.986C54.3746 168.785 54.4176 168.566 54.4103 168.346C53.1667 168.172 52.3588 168.441 52.6598 169.812Z" fill="url(#paint38_linear_3_64)"/>
<path fill-rule="evenodd" clip-rule="evenodd" d="M99.1642 169.51H99.7504V168.924H99.1642V169.51Z" fill="url(#paint39_linear_3_64)"/>
<path fill-rule="evenodd" clip-rule="evenodd" d="M130.174 172.441C130.927 173.051 132.661 172.774 132.511 171.57C132.281 169.891 129.588 170.192 130.174 172.441Z" fill="url(#paint40_linear_3_64)"/>
<path fill-rule="evenodd" clip-rule="evenodd" d="M149.771 170.691C149.771 171.269 148.979 171.063 149.185 171.855C149.605 171.927 149.676 172.338 150.064 172.441C150.5 172.069 150.571 170.691 149.771 170.691Z" fill="url(#paint41_linear_3_64)"/>
<path fill-rule="evenodd" clip-rule="evenodd" d="M46.2196 172.148C43.2492 172.592 40.1917 172.941 39.7878 175.951C42.2987 176.861 43.1859 175.317 44.4691 174.2C45.1503 173.582 46.6395 173.162 46.2196 172.148Z" fill="url(#paint42_linear_3_64)"/>
<path fill-rule="evenodd" clip-rule="evenodd" d="M151.521 173.027V172.441C150.983 171.467 150.096 173.32 151.521 173.027Z" fill="url(#paint43_linear_3_64)"/>
<path fill-rule="evenodd" clip-rule="evenodd" d="M158.548 174.786C158.914 175.078 159.355 175.261 159.82 175.313C160.286 175.365 160.756 175.284 161.178 175.079C162.603 172.394 157.993 171.372 158.548 174.786Z" fill="url(#paint44_linear_3_64)"/>
<path fill-rule="evenodd" clip-rule="evenodd" d="M176.679 173.907C176.707 173.714 176.662 173.517 176.554 173.355C176.446 173.193 176.282 173.076 176.093 173.027C175.681 173.471 175.665 174.16 176.679 173.907Z" fill="url(#paint45_linear_3_64)"/>
<path fill-rule="evenodd" clip-rule="evenodd" d="M149.478 175.372C149.851 175.372 149.882 175.745 150.358 175.665C150.385 175.472 150.341 175.276 150.233 175.114C150.124 174.951 149.96 174.835 149.772 174.786C149.772 175.055 149.534 175.135 149.478 175.372Z" fill="url(#paint46_linear_3_64)"/>
<path fill-rule="evenodd" clip-rule="evenodd" d="M116.13 175.95C115.924 176.964 117.152 177.004 117.596 176.536C117.794 175.523 116.566 175.491 116.13 175.95Z" fill="url(#paint47_linear_3_64)"/>
<path fill-rule="evenodd" clip-rule="evenodd" d="M187.792 175.951H186.041C185.867 177.788 186.041 179.262 187.507 179.46C188.18 178.549 188.806 176.988 187.792 175.951Z" fill="url(#paint48_linear_3_64)"/>
<path fill-rule="evenodd" clip-rule="evenodd" d="M142.46 177.709C142.254 178.691 142.951 178.778 143.624 178.881C143.78 178.727 143.868 178.517 143.868 178.298C143.869 178.079 143.783 177.868 143.628 177.713C143.474 177.557 143.264 177.469 143.045 177.469C142.826 177.468 142.616 177.554 142.46 177.709Z" fill="url(#paint49_linear_3_64)"/>
<path fill-rule="evenodd" clip-rule="evenodd" d="M161.177 180.925C161.969 180.172 160.931 179.689 160.298 179.459C160.242 180.299 160.266 181.06 161.177 180.925Z" fill="url(#paint50_linear_3_64)"/>
<path fill-rule="evenodd" clip-rule="evenodd" d="M112.914 187.072C113.572 186.28 114.712 185.947 114.372 184.141C112.542 182.683 110.997 186.493 112.914 187.072Z" fill="url(#paint51_linear_3_64)"/>
<path fill-rule="evenodd" clip-rule="evenodd" d="M141.874 192.038H142.461V191.46H141.874V192.038Z" fill="url(#paint52_linear_3_64)"/>
<path fill-rule="evenodd" clip-rule="evenodd" d="M139.529 193.797H140.116V193.21H139.529V193.797Z" fill="url(#paint53_linear_3_64)"/>
<path fill-rule="evenodd" clip-rule="evenodd" d="M141.874 194.676H142.746V193.797H142.167C142.151 194.169 141.787 194.201 141.874 194.676Z" fill="url(#paint54_linear_3_64)"/>
<path fill-rule="evenodd" clip-rule="evenodd" d="M122.863 197.012H123.441V196.442H122.863V197.012Z" fill="url(#paint55_linear_3_64)"/>
<path fill-rule="evenodd" clip-rule="evenodd" d="M89.5076 209.591C89.7635 209.644 90.0297 209.615 90.268 209.508C90.5063 209.401 90.7045 209.22 90.8339 208.993C90.9633 208.766 91.0173 208.504 90.9882 208.244C90.9591 207.984 90.8484 207.74 90.672 207.547C90.4161 207.494 90.1498 207.523 89.9115 207.63C89.6732 207.738 89.4751 207.918 89.3457 208.145C89.2163 208.372 89.1622 208.635 89.1913 208.894C89.2204 209.154 89.3311 209.398 89.5076 209.591Z" fill="url(#paint56_linear_3_64)"/>
<path fill-rule="evenodd" clip-rule="evenodd" d="M136.606 222.463C137.145 225.283 139.07 221.29 136.606 222.463V222.463Z" fill="url(#paint57_linear_3_64)"/>
<path fill-rule="evenodd" clip-rule="evenodd" d="M134.849 226.542H135.451V225.956H134.864L134.849 226.542Z" fill="url(#paint58_linear_3_64)"/>
<path fill-rule="evenodd" clip-rule="evenodd" d="M145.676 228.316V227.73C145.137 226.756 144.25 228.601 145.676 228.316Z" fill="url(#paint59_linear_3_64)"/>
<path fill-rule="evenodd" clip-rule="evenodd" d="M151.521 242.939C151.434 243.731 151.933 243.897 152.694 243.818C152.987 242.836 152.29 242.86 151.521 242.939Z" fill="url(#paint60_linear_3_64)"/>
<path fill-rule="evenodd" clip-rule="evenodd" d="M155.039 181.511V181.218H155.324C157.36 178.01 156.845 173.138 158.548 169.812C158.873 169.17 159.689 168.75 160.006 168.053C160.544 166.889 160.164 165.21 161.471 164.544C162.525 164.853 162.128 166.619 162.928 167.174C165.384 166.913 164.188 162.714 163.229 161.629C163.182 161.97 163.277 162.461 162.928 162.508C162.243 160.744 161.945 158.853 162.057 156.964C161.875 155.879 160.616 155.871 160.885 154.334C161.178 154.334 161.233 154.096 161.471 154.041C162.525 153.13 162.311 155.372 163.515 155.205C163.728 153.764 163.673 152.037 164.101 150.825C164.687 150.825 164.473 151.617 165.273 151.403L165.63 151.007L166.152 151.11C166.152 150.429 165.645 150.255 165.859 149.359C166.952 149.146 167.737 148.948 168.236 149.946V150.825L168.774 150.674L169.115 151.11C171.491 149.827 170.699 143.981 174.382 144.971L174.525 144.536L174.961 144.678C175.824 143.981 176.806 143.395 177.012 142.048C178.802 142.737 178.596 142.199 180.228 141.755C180.117 143.34 180.545 143.783 180.228 144.971C178.272 144.1 176.576 144.742 175.84 146.144C175.547 146.144 175.491 145.906 175.262 145.85L175.111 146.286L174.675 146.144C173.883 146.286 173.028 147.094 173.796 147.894C174.366 148.591 174.691 146.92 175.547 147.894C175.618 149.138 175.547 150.215 174.675 150.532C173.693 150.619 172.133 150.136 172.299 151.403C173.321 151.847 174.01 152.615 175.515 152.575C176.188 152.472 175.8 151.3 176.687 151.403C176.909 155.11 180.204 156.544 179.903 159.887C179.903 159.53 179.998 159.197 180.489 159.3C181.282 159.95 180.957 160.56 180.783 161.677C182.937 162.738 181.844 167.047 183.705 168.402L184.149 168.259L184.585 168.402C186.272 166.817 183.119 165.027 184.585 162.857C184.902 162.849 185.212 162.949 185.464 163.142L185.67 162.651L186.05 162.271V161.035C186.304 160.243 187.222 160.069 188.094 159.863C188.371 158.603 187.943 157.106 188.094 155.181C188.632 154.453 190.098 154.651 190.145 153.431C189.731 153.12 189.24 152.928 188.725 152.876C188.209 152.825 187.69 152.915 187.222 153.138C185.369 150.896 183.381 147.229 183.127 144.361C186.129 145.747 186.913 149.352 189.559 151.086C191.619 149.502 193.013 152.607 195.104 152.845L194.953 152.409L195.397 152.552C195.028 150.997 194.086 149.639 192.759 148.75C190.747 149.209 190.011 148.662 188.371 148.163C188.585 146.825 187.207 146.278 186.62 145.241C186.232 144.543 186.256 143.458 185.741 142.611C185.226 141.763 184.276 141.423 183.983 140.559C183.627 139.023 183.433 137.454 183.404 135.878C183.325 134.373 183.697 132.86 183.69 131.197L183.159 131.347L182.818 130.903C182.171 131.757 181.766 132.77 181.646 133.834C179.792 133.042 180.854 127.394 183.111 128.86L183.254 128.424L183.404 127.981C182.462 125.945 182.858 123.901 181.939 121.549H183.69C183.761 120.321 183.214 120.162 183.69 119.172H184.561C184.874 120.408 185.368 121.59 186.026 122.681L186.319 122.539L186.612 122.681C188.379 122.602 188.886 121.256 190.415 120.931L190.264 120.487L190.708 120.345C189.876 117.081 193.591 118.349 193.337 115.663L192.902 115.814L192.751 115.37C190.993 116.242 189.005 116.891 187.492 118C186.005 117.359 184.424 116.965 182.81 116.836C181.674 115.381 180.692 113.812 179.88 112.154C178.644 110.958 175.919 111.235 175.491 109.231C176.347 108.012 178.422 109.01 179.88 108.938C179.579 108.265 179.697 107.172 179.301 106.562C178.411 106.474 177.513 106.574 176.664 106.855C176.26 105.992 175.317 105.675 174.905 104.811C173.741 103.932 170.945 104.709 171.111 102.435C173.305 101.239 174.747 98.6806 178.422 99.8054C178.375 99.0766 178.881 98.9024 179.008 98.3479H178.715V98.0469H178.422C177.582 97.6192 177.559 96.3756 176.37 96.2964C174.786 97.1677 173.939 98.736 172.568 99.8054C172.568 99.2588 172.347 99.1875 171.982 99.5123C170.659 98.0152 169.725 96.1221 167.887 95.124C167.607 94.2776 167.507 93.3817 167.594 92.4943C165.329 92.7556 163.261 90.4269 160.869 90.7358C160.798 87.9397 162.192 86.601 164.378 86.0544C164.49 85.5297 164.716 85.0358 165.039 84.6078C165.363 84.1798 165.776 83.828 166.251 83.5772C166.725 83.3264 167.249 83.1828 167.785 83.1564C168.321 83.1301 168.856 83.2216 169.352 83.4246L169.495 83.8603C169.479 83.5496 169.381 83.2488 169.21 82.989L169.646 83.1316C173.25 83.1316 177.075 83.3534 179.586 82.2523L179.151 81.9117L179.301 81.381C175.982 81.8642 175.032 79.9869 173.757 78.4502C169.954 79.0364 167.705 81.1751 164.101 81.9593C163.079 82.0147 163.142 80.977 162.35 80.7949C159.562 82.0939 157.994 82.989 156.203 80.5018C154.96 78.7671 153.13 73.5946 152.694 70.5529C152.259 67.5113 153.067 64.0656 150.944 62.9487C148.568 64.3587 149.36 68.9529 147.142 70.5529C141.637 71.8441 136.955 68.8737 132.219 71.1391C131.593 72.3669 131.213 73.8402 129.589 74.062C128.551 73.8877 127.537 72.6045 126.658 73.1907C126.048 74.0857 127.109 75.3293 126.951 76.6997C126.325 77.2383 125.509 77.5948 124.907 78.1571C125.105 81.3731 125.438 84.4544 126.951 86.3475L127.102 85.9119L127.537 86.0544C127.751 83.5989 126.397 82.7197 126.658 80.2087C127.125 79.9632 128.29 78.9413 128.71 79.6225C131.181 80.7632 129.763 85.1673 130.46 88.3991C130.848 90.1338 132.211 91.4962 132.219 92.7873C132.219 94.4349 131.228 96.2805 129.589 96.2964C129.277 95.1492 129.08 93.9736 129.003 92.7873L128.559 92.6368L128.123 92.4943C128.028 93.5636 128.377 95.0844 127.83 95.7102C125.779 95.7102 124.321 95.3062 122.864 96.2964L123.299 96.637L123.149 97.1756C124.496 97.0489 126.151 96.4548 126.658 97.7538C126.824 100.653 122.293 98.8549 120.812 100.13C120.02 98.7994 120.915 97.8251 121.985 97.5004L121.541 97.1598L121.691 96.6211C117.541 96.2568 113.374 95.8765 114.087 101.009C113.485 101.968 111.861 101.904 111.711 103.386C112.086 103.936 112.333 104.563 112.434 105.22C112.536 105.878 112.489 106.55 112.297 107.188C114.428 108.843 115.228 113.358 111.45 113.905L111.275 113.184C111.263 113.593 111.362 113.998 111.56 114.356L111.125 114.206C109.865 115.101 111.711 119.172 111.418 120.06C110.998 119.988 110.927 119.576 110.539 119.473L110.396 119.917L109.96 119.766C110.158 121.24 109.366 121.905 109.96 122.982L110.396 122.84L110.832 122.982C111.545 122.816 110.697 121.097 111.711 121.232C113.469 121.715 112.36 125.066 113.469 126.206C112.957 126.847 112.27 127.326 111.491 127.585C110.712 127.843 109.875 127.871 109.081 127.664C107.75 130.919 104.733 132.488 103.228 135.585C103.782 136.454 103.991 137.5 103.814 138.516C100.225 144.187 95.8926 149.114 92.4073 154.896L92.7876 155.277L92.9935 155.768C96.455 151.926 99.3303 147.482 102.934 143.775C102.451 141.621 105.026 140.607 105.564 138.516C106.301 135.743 104.994 132.1 108.788 132.076C109.438 133.605 107.996 135.339 108.202 137.343C112.757 134.785 114.254 129.161 117.858 125.644C118.139 123.903 118.237 122.138 118.151 120.376C118.285 119.442 119.26 119.347 119.315 118.325C119.26 116.424 119.228 114.531 119.901 113.358C119.949 112.432 119.109 112.376 119.315 111.307C119.363 110.665 120.052 110.681 120.781 110.721C120.678 109.746 119.933 109.429 120.194 108.091L119.759 108.233L119.901 107.798C118.951 107.283 117.953 106.823 118.151 105.168C118.373 105.105 118.721 105.168 118.729 104.875L118.586 104.439L118.729 103.996C118.537 103.869 118.382 103.694 118.281 103.488C118.179 103.282 118.134 103.052 118.151 102.823C119.173 101.96 121.787 102.823 120.781 103.996L121.216 104.336L121.074 104.875H122.238L122.095 104.439L122.531 104.582C122.541 104.263 122.437 103.952 122.238 103.703C123.03 101.936 126.571 101.699 126.919 103.996C126.808 105.049 125.676 105.097 124.876 105.461C125.223 105.579 125.51 105.828 125.675 106.156C125.839 106.483 125.868 106.863 125.755 107.212L126.191 107.362L126.048 107.798C127.521 107.52 128.424 106.681 130.428 106.918C133.106 108.328 132.686 115.346 129.557 115.988C130.254 117.208 129.082 117.699 128.971 118.911C129.882 119.465 130.04 120.764 131.015 121.287C132.052 121.62 132.678 120.052 133.391 120.994C133.417 121.694 133.3 122.392 133.048 123.046C132.796 123.699 132.414 124.295 131.925 124.796C133.24 126.381 132.353 127.545 131.925 129.478C133.716 132.401 135.363 137.137 133.977 141.47C134.179 141.542 134.362 141.659 134.512 141.811C134.663 141.963 134.778 142.147 134.848 142.349C136.021 142.635 135.728 141.47 136.9 141.763C137.209 142.326 137.89 142.555 138.365 142.928C138.365 144.211 137.573 144.654 137.486 145.858L137.922 145.708L138.072 146.151C138.5 146.001 138.809 145.716 139.237 145.565C142.864 148.472 140.821 157.075 147.72 156.655L147.577 156.219L148.013 156.069C147.522 154.611 146.302 153.882 145.97 152.267C147.348 151.213 148.195 149.621 150.944 149.93C152.083 152.63 152.774 155.498 152.988 158.421C152.552 159.213 151.681 157.803 151.815 159.007C152.013 161.051 152.267 163.039 153.281 164.267C154.215 164.52 154.184 163.807 154.746 163.681L154.596 163.15L155.039 162.809C154.592 162.232 154.326 161.535 154.274 160.806C154.222 160.078 154.386 159.35 154.746 158.714C155.367 159.095 155.897 159.606 156.3 160.212C156.704 160.818 156.971 161.504 157.083 162.223C156.742 162.271 156.766 162.683 156.79 163.095L156.94 163.538L156.79 163.974C157.083 163.974 157.138 164.211 157.376 164.267C157.154 166.049 157.859 166.905 157.962 168.362C157.415 168.6 156.774 168.742 156.497 169.241C155.966 173.392 154.643 176.75 154.16 180.941L154.596 180.798L154.453 181.234C154.746 181.218 154.794 181.456 155.039 181.511ZM160.584 161.328C159.095 161.487 159.958 158.952 159.412 158.991C160.33 158.191 161.21 160.473 160.592 161.328H160.584ZM153.859 84.1059C153.859 86.5614 151.799 86.9258 150.35 87.908C146.833 87.2109 143.775 87.2584 140.987 86.7357L140.845 87.1792L140.401 87.0287C141.264 88.8347 139.839 90.1972 138.357 90.5378C137.565 90.6328 137.565 89.9278 137.478 89.3734C137.042 89.4209 137.209 90.0783 137.185 90.5378C136.44 90.5378 136.163 89.9991 135.72 89.6664C134.563 89.6664 134.769 91.0526 133.969 91.417C132.48 90.4665 132.385 88.1139 131.918 86.1495C132.48 85.6029 132.654 86.1495 133.383 86.1495C133.066 85.294 132.852 83.3454 133.343 82.4583L140.845 87.2109C138.413 85.2703 136.044 82.9256 132.924 82.2365L133.066 81.7929C132.044 79.6701 131.3 75.3927 133.066 73.6025C134.603 73.3332 134.611 74.5927 135.696 74.7749C137.613 74.5848 138.928 75.0442 140.67 74.7749C143.617 74.3234 146.698 71.8995 148.591 72.1451C150.484 72.3906 150.239 74.3154 152.393 74.7749C152.853 78.3156 154.968 80.2008 155.316 83.8445C155.105 83.9831 154.867 84.0777 154.618 84.1226C154.369 84.1675 154.114 84.1618 153.867 84.1059H153.859Z" fill="url(#paint61_linear_3_64)"/>
<path fill-rule="evenodd" clip-rule="evenodd" d="M196.862 115.109C197.015 113.835 196.915 112.542 196.569 111.307C196.347 111.243 195.99 111.307 195.983 111.014C194.715 110.721 194.636 111.624 193.939 111.893C194.22 112.742 194.32 113.641 194.232 114.531C194.05 114.531 193.883 114.531 193.939 114.816L194.375 114.966L194.232 115.402C195.555 115.489 195.983 115.83 196.862 115.109Z" fill="url(#paint62_linear_3_64)"/>
<path fill-rule="evenodd" clip-rule="evenodd" d="M193.06 120.083C192.609 119.291 191.349 120.083 191.31 120.669L191.745 120.812L191.595 121.256C192.712 121.454 193.67 120.733 193.06 120.083Z" fill="url(#paint63_linear_3_64)"/>
<path fill-rule="evenodd" clip-rule="evenodd" d="M183.412 124.179C183.665 125.231 183.761 126.314 183.697 127.394L184.236 127.252L184.576 127.688C184.513 125.573 186.755 125.771 186.335 123.299L185.891 123.45L186.042 123.006C184.64 122.879 183.824 123.323 183.412 124.179Z" fill="url(#paint64_linear_3_64)"/>
<path fill-rule="evenodd" clip-rule="evenodd" d="M149.186 185.02C148.56 184.473 148.536 183.325 147.142 183.555C146.35 183.784 146.12 184.489 146.263 185.606C147.496 186.053 148.673 186.64 149.772 187.357C150.257 187.124 150.658 186.745 150.92 186.274C151.181 185.803 151.289 185.262 151.229 184.727H150.944V184.434C150.326 184.608 150.105 185.163 149.186 185.02Z" fill="url(#paint65_linear_3_64)"/>
<path fill-rule="evenodd" clip-rule="evenodd" d="M183.697 81.7609C185.281 83.0362 186.287 84.8343 189.551 84.3987C189.78 84.3353 189.891 84.1531 189.844 83.8125L189.408 83.4719L189.551 82.9333C186.255 83.4006 186.533 80.2955 186.628 77.3885L186.248 77.0083L186.042 76.5093C184.719 77.6024 182.358 77.9509 183.119 80.3114C182.58 80.755 181.479 80.6203 181.067 81.1906L181.511 81.5312L181.36 82.0619C182.445 82.2679 182.62 81.5867 183.697 81.7609Z" fill="url(#paint66_linear_3_64)"/>
<path fill-rule="evenodd" clip-rule="evenodd" d="M187.214 76.8341C188.394 75.8598 190.121 77.0717 190.43 75.0756C188.949 75.4875 189.638 73.7369 188.378 73.9033C187.816 74.6082 186.739 74.7984 186.628 75.9548L187.008 76.335L187.214 76.8341Z" fill="url(#paint67_linear_3_64)"/>
<path fill-rule="evenodd" clip-rule="evenodd" d="M190.723 95.2192C191.65 95.0766 190.826 96.6688 191.887 96.3915C192.949 96.1143 192.125 94.0865 193.06 93.7538L192.624 93.6113L192.767 93.1756C189.511 93.5083 189.416 90.6805 188.964 88.2012C187.38 89.92 185.796 93.136 187.214 96.1222C189.052 96.4708 188.972 94.9341 190.723 95.2192Z" fill="url(#paint68_linear_3_64)"/>
<path fill-rule="evenodd" clip-rule="evenodd" d="M194.232 102.53C193.693 102.198 194.026 100.946 192.766 101.366C192.323 102.514 194.105 102.918 194.232 102.53Z" fill="url(#paint69_linear_3_64)"/>
<path fill-rule="evenodd" clip-rule="evenodd" d="M197.155 109.263C198.739 109.168 200.323 107.362 199.531 104.875C198.628 103.631 195.705 104.154 194.85 104.289C194.39 106.443 194.232 109.437 197.155 109.263Z" fill="url(#paint70_linear_3_64)"/>
<path fill-rule="evenodd" clip-rule="evenodd" d="M175.506 156.354C176.061 156.354 175.712 157.32 176.386 157.233C176.758 156.425 175.538 155.799 175.506 156.354Z" fill="url(#paint71_linear_3_64)"/>
<path fill-rule="evenodd" clip-rule="evenodd" d="M193.353 161.035L193.012 161.471L192.474 161.328C192.357 161.928 192.461 162.55 192.767 163.079C194.185 162.841 194.834 163.356 195.69 163.665L195.547 163.229L195.983 163.079C195.27 162.209 194.372 161.51 193.353 161.035Z" fill="url(#paint72_linear_3_64)"/>
<path fill-rule="evenodd" clip-rule="evenodd" d="M186.937 180.046C185.527 181.155 185.353 184.085 185.471 186.192L185.907 186.042L186.058 186.485C187.578 186.05 187.048 183.571 188.101 182.683L187.959 182.24L188.394 182.39C188.521 180.957 187.998 180.236 186.937 180.046Z" fill="url(#paint73_linear_3_64)"/>
<path fill-rule="evenodd" clip-rule="evenodd" d="M175.507 203.452C175.903 203.539 176.069 203.864 176.679 203.745L176.537 203.302L176.972 203.452C180.79 204.125 186.121 200.513 186.042 195.848C186.042 194.351 184.584 192.489 185.163 190.874C185.567 190.081 186.501 189.868 186.628 188.822C186.771 187.903 186.208 187.681 186.042 187.071L185.598 187.214L185.456 186.778C183.911 188.933 182.763 191.491 180.481 192.917C180.252 194.121 180.933 194.422 180.774 195.547C177.337 196.593 175.032 198.771 171.705 199.943C172.774 198.462 173.289 195.539 175.507 196.133C175.84 194.319 177.265 193.606 178.731 192.917C179.475 191.23 180.117 189.432 181.947 188.822C182.056 187.997 181.846 187.161 181.36 186.485C180.41 186.311 179.998 186.683 179.317 186.778C178.263 189.535 176.853 191.919 173.772 192.624C173.257 194.161 172.449 195.404 170.849 195.848C170.057 195.571 170.295 194.264 168.798 194.676C168.465 197.361 167.514 199.428 165.875 200.814V203.191C167.562 204.624 167.649 207.658 170.263 208.165C169.819 205.789 173.028 205.963 173.772 206.407C173.677 207.096 172.758 206.953 172.893 207.872C174.43 207.943 175.507 207.001 176.695 207.579V206.114L176.259 206.256L176.402 205.821C175.626 205.48 175.436 204.601 175.507 203.452Z" fill="url(#paint74_linear_3_64)"/>
<path fill-rule="evenodd" clip-rule="evenodd" d="M179.317 207.531C179.454 206.547 179.647 205.571 179.895 204.609C178.81 204.815 178.644 204.102 177.519 204.308L177.661 204.751L177.226 204.609C177.289 205.155 176.901 205.25 176.933 205.773L177.376 205.63L177.226 206.066C177.701 206.819 178.58 207.112 179.317 207.531Z" fill="url(#paint75_linear_3_64)"/>
<path fill-rule="evenodd" clip-rule="evenodd" d="M62.5762 185.899C60.485 187.396 63.194 185.463 62.5762 185.899V185.899Z" fill="url(#paint76_linear_3_64)"/>
<path fill-rule="evenodd" clip-rule="evenodd" d="M240.594 102.293C239.723 102.467 238.812 102.435 237.964 102.681L240.594 102.293Z" fill="url(#paint77_linear_3_64)"/>
<path fill-rule="evenodd" clip-rule="evenodd" d="M107.94 115.402C105.358 116.416 102.688 117.596 100.185 118.768L107.94 115.402Z" fill="url(#paint78_linear_3_64)"/>
<path fill-rule="evenodd" clip-rule="evenodd" d="M86.7359 127.529L88.4865 124.305C87.9241 125.414 86.9577 126.262 86.7359 127.529Z" fill="url(#paint79_linear_3_64)"/>
<path fill-rule="evenodd" clip-rule="evenodd" d="M261.949 125.493C265.119 126.286 268.348 126.816 271.605 127.078L261.949 125.493Z" fill="url(#paint80_linear_3_64)"/>
<path fill-rule="evenodd" clip-rule="evenodd" d="M50.402 165.804C51.1601 165.31 51.8499 164.719 52.4536 164.045L50.402 165.804Z" fill="url(#paint81_linear_3_64)"/>
<path fill-rule="evenodd" clip-rule="evenodd" d="M177.431 164.401L178.453 167.617C178.223 166.437 178.152 165.328 177.431 164.401Z" fill="url(#paint82_linear_3_64)"/>
<path fill-rule="evenodd" clip-rule="evenodd" d="M215.729 201.844L203.737 188.236C207.737 192.767 211.547 197.543 215.729 201.844Z" fill="url(#paint83_linear_3_64)"/>
<path fill-rule="evenodd" clip-rule="evenodd" d="M171.704 214.859C171.791 214.78 171.878 214.692 171.958 214.605C172.346 212.942 171.601 211.152 171.704 209.449V214.859Z" fill="url(#paint84_linear_3_64)"/>
<path fill-rule="evenodd" clip-rule="evenodd" d="M192.917 115.846L194.375 114.966C193.899 115.259 193.139 115.228 192.917 115.846Z" fill="url(#paint85_linear_3_64)"/>
<path fill-rule="evenodd" clip-rule="evenodd" d="M190.28 120.519C190.731 120.753 191.239 120.854 191.745 120.812L190.28 120.519Z" fill="url(#paint86_linear_3_64)"/>
<path fill-rule="evenodd" clip-rule="evenodd" d="M189.115 128.123L189.258 128.567C190.438 128.186 192.292 128.48 192.474 127.101C191.888 126.032 190.47 125.794 188.965 125.644C188.49 126.119 188.719 127.307 188.672 128.218L183.967 129.153C185.59 130 188.054 129.731 189.115 128.123Z" fill="url(#paint87_linear_3_64)"/>
<path fill-rule="evenodd" clip-rule="evenodd" d="M183.167 131.347C183.381 130.594 183.816 129.921 183.959 129.153L183.167 131.347Z" fill="url(#paint88_linear_3_64)"/>
<path fill-rule="evenodd" clip-rule="evenodd" d="M194.96 152.409L196.426 153.866C195.988 153.332 195.497 152.844 194.96 152.409Z" fill="url(#paint89_linear_3_64)"/>
<path fill-rule="evenodd" clip-rule="evenodd" d="M184.141 168.204L185.21 173.859C184.83 171.942 184.648 170.097 184.141 168.204Z" fill="url(#paint90_linear_3_64)"/>
<path fill-rule="evenodd" clip-rule="evenodd" d="M175.056 146.262C174.917 145.661 174.72 145.075 174.469 144.511L175.056 146.262Z" fill="url(#paint91_linear_3_64)"/>
<path fill-rule="evenodd" clip-rule="evenodd" d="M168.346 155.039C168.565 153.998 168.661 152.934 168.631 151.871L168.346 155.039Z" fill="url(#paint92_linear_3_64)"/>
<path fill-rule="evenodd" clip-rule="evenodd" d="M165.63 150.983C165.71 151.196 165.816 151.398 165.947 151.585L165.63 150.983Z" fill="url(#paint93_linear_3_64)"/>
<path fill-rule="evenodd" clip-rule="evenodd" d="M150.943 184.727L154.595 180.766C153.252 181.965 152.029 183.292 150.943 184.727Z" fill="url(#paint94_linear_3_64)"/>
<path fill-rule="evenodd" clip-rule="evenodd" d="M147.577 156.211C147.791 156.401 148.038 156.549 148.306 156.647L147.577 156.211Z" fill="url(#paint95_linear_3_64)"/>
<path fill-rule="evenodd" clip-rule="evenodd" d="M137.921 145.676L135.291 149.771C136.179 148.425 137.596 147.332 137.921 145.676Z" fill="url(#paint96_linear_3_64)"/>
<path fill-rule="evenodd" clip-rule="evenodd" d="M125.344 108.233L126.223 107.362C125.865 107.579 125.564 107.878 125.344 108.233Z" fill="url(#paint97_linear_3_64)"/>
<path fill-rule="evenodd" clip-rule="evenodd" d="M122.127 104.439C122.376 104.691 122.676 104.888 123.006 105.017L122.127 104.439Z" fill="url(#paint98_linear_3_64)"/>
<path fill-rule="evenodd" clip-rule="evenodd" d="M92.8192 155.253L64.2084 184.292C73.579 174.541 84.8506 166.422 92.8192 155.253Z" fill="url(#paint99_linear_3_64)"/>
<path fill-rule="evenodd" clip-rule="evenodd" d="M110.427 122.863L110.134 124.907C110.348 124.248 110.447 123.556 110.427 122.863Z" fill="url(#paint100_linear_3_64)"/>
<path fill-rule="evenodd" clip-rule="evenodd" d="M110.428 119.941C110.364 119.613 110.214 119.31 109.992 119.061L110.428 119.941Z" fill="url(#paint101_linear_3_64)"/>
<path fill-rule="evenodd" clip-rule="evenodd" d="M121.54 97.223L123.299 96.7319C122.681 96.8111 122.158 97.1438 121.54 97.223Z" fill="url(#paint102_linear_3_64)"/>
<path fill-rule="evenodd" clip-rule="evenodd" d="M128.559 92.7321C128.511 90.4033 127.648 88.225 127.101 86.0071L128.559 92.7321Z" fill="url(#paint103_linear_3_64)"/>
<path fill-rule="evenodd" clip-rule="evenodd" d="M179.166 82.0066C179.958 81.8086 180.75 81.7215 181.542 81.5234L179.166 82.0066Z" fill="url(#paint104_linear_3_64)"/>
<path fill-rule="evenodd" clip-rule="evenodd" d="M178.731 98.4432L180.775 96.3916C180.002 96.9773 179.314 97.6678 178.731 98.4432Z" fill="url(#paint105_linear_3_64)"/>
<path fill-rule="evenodd" clip-rule="evenodd" d="M120.155 104.851C120.472 104.724 120.907 104.455 121.248 104.336L118.618 104.439C119.145 104.513 119.662 104.651 120.155 104.851Z" fill="url(#paint106_linear_3_64)"/>
<path fill-rule="evenodd" clip-rule="evenodd" d="M184.236 127.252L183.848 128.717C184.042 128.248 184.173 127.755 184.236 127.252Z" fill="url(#paint107_linear_3_64)"/>
<path fill-rule="evenodd" clip-rule="evenodd" d="M186.335 122.57L185.891 123.45C186.079 123.178 186.228 122.882 186.335 122.57Z" fill="url(#paint108_linear_3_64)"/>
<path fill-rule="evenodd" clip-rule="evenodd" d="M156.94 163.522L154.564 163.134C154.886 163.411 155.278 163.593 155.697 163.662C156.116 163.73 156.546 163.682 156.94 163.522Z" fill="url(#paint109_linear_3_64)"/>
<path fill-rule="evenodd" clip-rule="evenodd" d="M137.628 78.3076L141.137 85.1276C140.028 82.8068 139.767 79.9314 137.628 78.3076Z" fill="url(#paint110_linear_3_64)"/>
<path fill-rule="evenodd" clip-rule="evenodd" d="M192.625 93.6111C193.143 93.5102 193.638 93.3113 194.082 93.0249L192.625 93.6111Z" fill="url(#paint111_linear_3_64)"/>
<path fill-rule="evenodd" clip-rule="evenodd" d="M195.547 163.229C197.923 165.21 200.616 166.707 203.151 168.497L195.547 163.229Z" fill="url(#paint112_linear_3_64)"/>
<path fill-rule="evenodd" clip-rule="evenodd" d="M177.432 205.646C177.028 205.812 176.637 206.005 176.26 206.224L177.432 205.646Z" fill="url(#paint113_linear_3_64)"/>
<path fill-rule="evenodd" clip-rule="evenodd" d="M188.434 182.596L187.943 182.24L188.529 183.119C188.51 182.943 188.478 182.768 188.434 182.596Z" fill="url(#paint114_linear_3_64)"/>
<path fill-rule="evenodd" clip-rule="evenodd" d="M177.701 204.767L176.537 203.302C176.956 203.777 177.051 204.506 177.701 204.767Z" fill="url(#paint115_linear_3_64)"/>
<path fill-rule="evenodd" clip-rule="evenodd" d="M247.612 203.009L232.404 192.481C237.117 196.442 242.59 199.563 247.612 203.009Z" fill="url(#paint116_linear_3_64)"/>
<defs>
<linearGradient id="paint0_linear_3_64" x1="170.102" y1="57.1682" x2="170.102" y2="57.7761" gradientUnits="userSpaceOnUse">
<stop stop-color="#FF00C3"/>
<stop offset="1" stop-color="#EE2CFF"/>
</linearGradient>
<linearGradient id="paint1_linear_3_64" x1="170.683" y1="70.4736" x2="170.683" y2="71.7093" gradientUnits="userSpaceOnUse">
<stop stop-color="#FF00C3"/>
<stop offset="1" stop-color="#EE2CFF"/>
</linearGradient>
<linearGradient id="paint2_linear_3_64" x1="179.341" y1="78.5256" x2="179.341" y2="79.1513" gradientUnits="userSpaceOnUse">
<stop stop-color="#FF00C3"/>
<stop offset="1" stop-color="#EE2CFF"/>
</linearGradient>
<linearGradient id="paint3_linear_3_64" x1="194.669" y1="78.5308" x2="194.669" y2="80.0604" gradientUnits="userSpaceOnUse">
<stop stop-color="#FF00C3"/>
<stop offset="1" stop-color="#EE2CFF"/>
</linearGradient>
<linearGradient id="paint4_linear_3_64" x1="198.328" y1="78.8384" x2="198.328" y2="79.3902" gradientUnits="userSpaceOnUse">
<stop stop-color="#FF00C3"/>
<stop offset="1" stop-color="#EE2CFF"/>
</linearGradient>
<linearGradient id="paint5_linear_3_64" x1="166.598" y1="84.9849" x2="166.598" y2="85.571" gradientUnits="userSpaceOnUse">
<stop stop-color="#FF00C3"/>
<stop offset="1" stop-color="#EE2CFF"/>
</linearGradient>
<linearGradient id="paint6_linear_3_64" x1="172.856" y1="86.4294" x2="172.856" y2="87.3414" gradientUnits="userSpaceOnUse">
<stop stop-color="#FF00C3"/>
<stop offset="1" stop-color="#EE2CFF"/>
</linearGradient>
<linearGradient id="paint7_linear_3_64" x1="115.279" y1="94.2712" x2="115.279" y2="95.2892" gradientUnits="userSpaceOnUse">
<stop stop-color="#FF00C3"/>
<stop offset="1" stop-color="#EE2CFF"/>
</linearGradient>
<linearGradient id="paint8_linear_3_64" x1="247.609" y1="98.895" x2="247.609" y2="102.823" gradientUnits="userSpaceOnUse">
<stop stop-color="#FF00C3"/>
<stop offset="1" stop-color="#EE2CFF"/>
</linearGradient>
<linearGradient id="paint9_linear_3_64" x1="125.337" y1="110.397" x2="125.337" y2="112.186" gradientUnits="userSpaceOnUse">
<stop stop-color="#FF00C3"/>
<stop offset="1" stop-color="#EE2CFF"/>
</linearGradient>
<linearGradient id="paint10_linear_3_64" x1="188.818" y1="113.065" x2="188.818" y2="113.944" gradientUnits="userSpaceOnUse">
<stop stop-color="#FF00C3"/>
<stop offset="1" stop-color="#EE2CFF"/>
</linearGradient>
<linearGradient id="paint11_linear_3_64" x1="204.324" y1="113.596" x2="204.324" y2="114.438" gradientUnits="userSpaceOnUse">
<stop stop-color="#FF00C3"/>
<stop offset="1" stop-color="#EE2CFF"/>
</linearGradient>
<linearGradient id="paint12_linear_3_64" x1="91.9993" y1="120.079" x2="91.9993" y2="124.764" gradientUnits="userSpaceOnUse">
<stop stop-color="#FF00C3"/>
<stop offset="1" stop-color="#EE2CFF"/>
</linearGradient>
<linearGradient id="paint13_linear_3_64" x1="89.31" y1="127.101" x2="89.31" y2="132.076" gradientUnits="userSpaceOnUse">
<stop stop-color="#FF00C3"/>
<stop offset="1" stop-color="#EE2CFF"/>
</linearGradient>
<linearGradient id="paint14_linear_3_64" x1="274.089" y1="126.299" x2="274.089" y2="128.164" gradientUnits="userSpaceOnUse">
<stop stop-color="#FF00C3"/>
<stop offset="1" stop-color="#EE2CFF"/>
</linearGradient>
<linearGradient id="paint15_linear_3_64" x1="24.8645" y1="129.543" x2="24.8645" y2="130.345" gradientUnits="userSpaceOnUse">
<stop stop-color="#FF00C3"/>
<stop offset="1" stop-color="#EE2CFF"/>
</linearGradient>
<linearGradient id="paint16_linear_3_64" x1="194.127" y1="130.619" x2="194.127" y2="131.782" gradientUnits="userSpaceOnUse">
<stop stop-color="#FF00C3"/>
<stop offset="1" stop-color="#EE2CFF"/>
</linearGradient>
<linearGradient id="paint17_linear_3_64" x1="27.8111" y1="137.88" x2="27.8111" y2="138.553" gradientUnits="userSpaceOnUse">
<stop stop-color="#FF00C3"/>
<stop offset="1" stop-color="#EE2CFF"/>
</linearGradient>
<linearGradient id="paint18_linear_3_64" x1="119.319" y1="138.203" x2="119.319" y2="139.121" gradientUnits="userSpaceOnUse">
<stop stop-color="#FF00C3"/>
<stop offset="1" stop-color="#EE2CFF"/>
</linearGradient>
<linearGradient id="paint19_linear_3_64" x1="122.273" y1="140.266" x2="122.273" y2="140.852" gradientUnits="userSpaceOnUse">
<stop stop-color="#FF00C3"/>
<stop offset="1" stop-color="#EE2CFF"/>
</linearGradient>
<linearGradient id="paint20_linear_3_64" x1="45.0456" y1="148.493" x2="45.0456" y2="149.355" gradientUnits="userSpaceOnUse">
<stop stop-color="#FF00C3"/>
<stop offset="1" stop-color="#EE2CFF"/>
</linearGradient>
<linearGradient id="paint21_linear_3_64" x1="128.58" y1="149.043" x2="128.58" y2="149.976" gradientUnits="userSpaceOnUse">
<stop stop-color="#FF00C3"/>
<stop offset="1" stop-color="#EE2CFF"/>
</linearGradient>
<linearGradient id="paint22_linear_3_64" x1="108.526" y1="150.5" x2="108.526" y2="151.086" gradientUnits="userSpaceOnUse">
<stop stop-color="#FF00C3"/>
<stop offset="1" stop-color="#EE2CFF"/>
</linearGradient>
<linearGradient id="paint23_linear_3_64" x1="133.351" y1="151.965" x2="133.351" y2="153.743" gradientUnits="userSpaceOnUse">
<stop stop-color="#FF00C3"/>
<stop offset="1" stop-color="#EE2CFF"/>
</linearGradient>
<linearGradient id="paint24_linear_3_64" x1="122.178" y1="152.266" x2="122.178" y2="153.17" gradientUnits="userSpaceOnUse">
<stop stop-color="#FF00C3"/>
<stop offset="1" stop-color="#EE2CFF"/>
</linearGradient>
<linearGradient id="paint25_linear_3_64" x1="171.708" y1="152.532" x2="171.708" y2="153.46" gradientUnits="userSpaceOnUse">
<stop stop-color="#FF00C3"/>
<stop offset="1" stop-color="#EE2CFF"/>
</linearGradient>
<linearGradient id="paint26_linear_3_64" x1="70.5252" y1="154.017" x2="70.5252" y2="154.62" gradientUnits="userSpaceOnUse">
<stop stop-color="#FF00C3"/>
<stop offset="1" stop-color="#EE2CFF"/>
</linearGradient>
<linearGradient id="paint27_linear_3_64" x1="138.218" y1="154.565" x2="138.218" y2="155.8" gradientUnits="userSpaceOnUse">
<stop stop-color="#FF00C3"/>
<stop offset="1" stop-color="#EE2CFF"/>
</linearGradient>
<linearGradient id="paint28_linear_3_64" x1="133.806" y1="155.733" x2="133.806" y2="157.272" gradientUnits="userSpaceOnUse">
<stop stop-color="#FF00C3"/>
<stop offset="1" stop-color="#EE2CFF"/>
</linearGradient>
<linearGradient id="paint29_linear_3_64" x1="126.847" y1="156.002" x2="126.847" y2="156.647" gradientUnits="userSpaceOnUse">
<stop stop-color="#FF00C3"/>
<stop offset="1" stop-color="#EE2CFF"/>
</linearGradient>
<linearGradient id="paint30_linear_3_64" x1="166.152" y1="158.677" x2="166.152" y2="159.578" gradientUnits="userSpaceOnUse">
<stop stop-color="#FF00C3"/>
<stop offset="1" stop-color="#EE2CFF"/>
</linearGradient>
<linearGradient id="paint31_linear_3_64" x1="176.778" y1="159.276" x2="176.778" y2="161.004" gradientUnits="userSpaceOnUse">
<stop stop-color="#FF00C3"/>
<stop offset="1" stop-color="#EE2CFF"/>
</linearGradient>
<linearGradient id="paint32_linear_3_64" x1="141.874" y1="159.577" x2="141.874" y2="160.422" gradientUnits="userSpaceOnUse">
<stop stop-color="#FF00C3"/>
<stop offset="1" stop-color="#EE2CFF"/>
</linearGradient>
<linearGradient id="paint33_linear_3_64" x1="125.941" y1="160.156" x2="125.941" y2="160.742" gradientUnits="userSpaceOnUse">
<stop stop-color="#FF00C3"/>
<stop offset="1" stop-color="#EE2CFF"/>
</linearGradient>
<linearGradient id="paint34_linear_3_64" x1="177.119" y1="162.005" x2="177.119" y2="162.991" gradientUnits="userSpaceOnUse">
<stop stop-color="#FF00C3"/>
<stop offset="1" stop-color="#EE2CFF"/>
</linearGradient>
<linearGradient id="paint35_linear_3_64" x1="166.608" y1="162.5" x2="166.608" y2="163.428" gradientUnits="userSpaceOnUse">
<stop stop-color="#FF00C3"/>
<stop offset="1" stop-color="#EE2CFF"/>
</linearGradient>
<linearGradient id="paint36_linear_3_64" x1="49.5816" y1="165.423" x2="49.5816" y2="167.226" gradientUnits="userSpaceOnUse">
<stop stop-color="#FF00C3"/>
<stop offset="1" stop-color="#EE2CFF"/>
</linearGradient>
<linearGradient id="paint37_linear_3_64" x1="121.105" y1="166.342" x2="121.105" y2="166.889" gradientUnits="userSpaceOnUse">
<stop stop-color="#FF00C3"/>
<stop offset="1" stop-color="#EE2CFF"/>
</linearGradient>
<linearGradient id="paint38_linear_3_64" x1="53.5039" y1="168.299" x2="53.5039" y2="169.843" gradientUnits="userSpaceOnUse">
<stop stop-color="#FF00C3"/>
<stop offset="1" stop-color="#EE2CFF"/>
</linearGradient>
<linearGradient id="paint39_linear_3_64" x1="99.4573" y1="168.924" x2="99.4573" y2="169.51" gradientUnits="userSpaceOnUse">
<stop stop-color="#FF00C3"/>
<stop offset="1" stop-color="#EE2CFF"/>
</linearGradient>
<linearGradient id="paint40_linear_3_64" x1="131.306" y1="170.5" x2="131.306" y2="172.754" gradientUnits="userSpaceOnUse">
<stop stop-color="#FF00C3"/>
<stop offset="1" stop-color="#EE2CFF"/>
</linearGradient>
<linearGradient id="paint41_linear_3_64" x1="149.768" y1="170.691" x2="149.768" y2="172.441" gradientUnits="userSpaceOnUse">
<stop stop-color="#FF00C3"/>
<stop offset="1" stop-color="#EE2CFF"/>
</linearGradient>
<linearGradient id="paint42_linear_3_64" x1="43.0404" y1="172.148" x2="43.0404" y2="176.226" gradientUnits="userSpaceOnUse">
<stop stop-color="#FF00C3"/>
<stop offset="1" stop-color="#EE2CFF"/>
</linearGradient>
<linearGradient id="paint43_linear_3_64" x1="151.136" y1="172.155" x2="151.136" y2="173.059" gradientUnits="userSpaceOnUse">
<stop stop-color="#FF00C3"/>
<stop offset="1" stop-color="#EE2CFF"/>
</linearGradient>
<linearGradient id="paint44_linear_3_64" x1="159.977" y1="172.619" x2="159.977" y2="175.328" gradientUnits="userSpaceOnUse">
<stop stop-color="#FF00C3"/>
<stop offset="1" stop-color="#EE2CFF"/>
</linearGradient>
<linearGradient id="paint45_linear_3_64" x1="176.258" y1="173.027" x2="176.258" y2="173.961" gradientUnits="userSpaceOnUse">
<stop stop-color="#FF00C3"/>
<stop offset="1" stop-color="#EE2CFF"/>
</linearGradient>
<linearGradient id="paint46_linear_3_64" x1="149.922" y1="174.786" x2="149.922" y2="175.676" gradientUnits="userSpaceOnUse">
<stop stop-color="#FF00C3"/>
<stop offset="1" stop-color="#EE2CFF"/>
</linearGradient>
<linearGradient id="paint47_linear_3_64" x1="116.862" y1="175.666" x2="116.862" y2="176.824" gradientUnits="userSpaceOnUse">
<stop stop-color="#FF00C3"/>
<stop offset="1" stop-color="#EE2CFF"/>
</linearGradient>
<linearGradient id="paint48_linear_3_64" x1="187.156" y1="175.951" x2="187.156" y2="179.46" gradientUnits="userSpaceOnUse">
<stop stop-color="#FF00C3"/>
<stop offset="1" stop-color="#EE2CFF"/>
</linearGradient>
<linearGradient id="paint49_linear_3_64" x1="143.146" y1="177.469" x2="143.146" y2="178.881" gradientUnits="userSpaceOnUse">
<stop stop-color="#FF00C3"/>
<stop offset="1" stop-color="#EE2CFF"/>
</linearGradient>
<linearGradient id="paint50_linear_3_64" x1="160.872" y1="179.459" x2="160.872" y2="180.94" gradientUnits="userSpaceOnUse">
<stop stop-color="#FF00C3"/>
<stop offset="1" stop-color="#EE2CFF"/>
</linearGradient>
<linearGradient id="paint51_linear_3_64" x1="113.233" y1="183.811" x2="113.233" y2="187.072" gradientUnits="userSpaceOnUse">
<stop stop-color="#FF00C3"/>
<stop offset="1" stop-color="#EE2CFF"/>
</linearGradient>
<linearGradient id="paint52_linear_3_64" x1="142.167" y1="191.46" x2="142.167" y2="192.038" gradientUnits="userSpaceOnUse">
<stop stop-color="#FF00C3"/>
<stop offset="1" stop-color="#EE2CFF"/>
</linearGradient>
<linearGradient id="paint53_linear_3_64" x1="139.823" y1="193.21" x2="139.823" y2="193.797" gradientUnits="userSpaceOnUse">
<stop stop-color="#FF00C3"/>
<stop offset="1" stop-color="#EE2CFF"/>
</linearGradient>
<linearGradient id="paint54_linear_3_64" x1="142.303" y1="193.797" x2="142.303" y2="194.676" gradientUnits="userSpaceOnUse">
<stop stop-color="#FF00C3"/>
<stop offset="1" stop-color="#EE2CFF"/>
</linearGradient>
<linearGradient id="paint55_linear_3_64" x1="123.152" y1="196.442" x2="123.152" y2="197.012" gradientUnits="userSpaceOnUse">
<stop stop-color="#FF00C3"/>
<stop offset="1" stop-color="#EE2CFF"/>
</linearGradient>
<linearGradient id="paint56_linear_3_64" x1="90.0898" y1="207.521" x2="90.0898" y2="209.617" gradientUnits="userSpaceOnUse">
<stop stop-color="#FF00C3"/>
<stop offset="1" stop-color="#EE2CFF"/>
</linearGradient>
<linearGradient id="paint57_linear_3_64" x1="137.219" y1="222.241" x2="137.219" y2="223.493" gradientUnits="userSpaceOnUse">
<stop stop-color="#FF00C3"/>
<stop offset="1" stop-color="#EE2CFF"/>
</linearGradient>
<linearGradient id="paint58_linear_3_64" x1="135.15" y1="225.956" x2="135.15" y2="226.542" gradientUnits="userSpaceOnUse">
<stop stop-color="#FF00C3"/>
<stop offset="1" stop-color="#EE2CFF"/>
</linearGradient>
<linearGradient id="paint59_linear_3_64" x1="145.29" y1="227.443" x2="145.29" y2="228.346" gradientUnits="userSpaceOnUse">
<stop stop-color="#FF00C3"/>
<stop offset="1" stop-color="#EE2CFF"/>
</linearGradient>
<linearGradient id="paint60_linear_3_64" x1="152.137" y1="242.905" x2="152.137" y2="243.836" gradientUnits="userSpaceOnUse">
<stop stop-color="#FF00C3"/>
<stop offset="1" stop-color="#EE2CFF"/>
</linearGradient>
<linearGradient id="paint61_linear_3_64" x1="143.902" y1="62.9487" x2="143.902" y2="181.511" gradientUnits="userSpaceOnUse">
<stop stop-color="#FF00C3"/>
<stop offset="1" stop-color="#EE2CFF"/>
</linearGradient>
<linearGradient id="paint62_linear_3_64" x1="195.43" y1="110.956" x2="195.43" y2="115.559" gradientUnits="userSpaceOnUse">
<stop stop-color="#FF00C3"/>
<stop offset="1" stop-color="#EE2CFF"/>
</linearGradient>
<linearGradient id="paint63_linear_3_64" x1="192.28" y1="119.75" x2="192.28" y2="121.289" gradientUnits="userSpaceOnUse">
<stop stop-color="#FF00C3"/>
<stop offset="1" stop-color="#EE2CFF"/>
</linearGradient>
<linearGradient id="paint64_linear_3_64" x1="184.9" y1="122.985" x2="184.9" y2="127.688" gradientUnits="userSpaceOnUse">
<stop stop-color="#FF00C3"/>
<stop offset="1" stop-color="#EE2CFF"/>
</linearGradient>
<linearGradient id="paint65_linear_3_64" x1="148.734" y1="183.525" x2="148.734" y2="187.357" gradientUnits="userSpaceOnUse">
<stop stop-color="#FF00C3"/>
<stop offset="1" stop-color="#EE2CFF"/>
</linearGradient>
<linearGradient id="paint66_linear_3_64" x1="185.461" y1="76.5093" x2="185.461" y2="84.4652" gradientUnits="userSpaceOnUse">
<stop stop-color="#FF00C3"/>
<stop offset="1" stop-color="#EE2CFF"/>
</linearGradient>
<linearGradient id="paint67_linear_3_64" x1="188.529" y1="73.8921" x2="188.529" y2="76.8341" gradientUnits="userSpaceOnUse">
<stop stop-color="#FF00C3"/>
<stop offset="1" stop-color="#EE2CFF"/>
</linearGradient>
<linearGradient id="paint68_linear_3_64" x1="189.861" y1="88.2012" x2="189.861" y2="96.424" gradientUnits="userSpaceOnUse">
<stop stop-color="#FF00C3"/>
<stop offset="1" stop-color="#EE2CFF"/>
</linearGradient>
<linearGradient id="paint69_linear_3_64" x1="193.464" y1="101.281" x2="193.464" y2="102.674" gradientUnits="userSpaceOnUse">
<stop stop-color="#FF00C3"/>
<stop offset="1" stop-color="#EE2CFF"/>
</linearGradient>
<linearGradient id="paint70_linear_3_64" x1="197.167" y1="104.064" x2="197.167" y2="109.27" gradientUnits="userSpaceOnUse">
<stop stop-color="#FF00C3"/>
<stop offset="1" stop-color="#EE2CFF"/>
</linearGradient>
<linearGradient id="paint71_linear_3_64" x1="175.981" y1="156.143" x2="175.981" y2="157.239" gradientUnits="userSpaceOnUse">
<stop stop-color="#FF00C3"/>
<stop offset="1" stop-color="#EE2CFF"/>
</linearGradient>
<linearGradient id="paint72_linear_3_64" x1="194.205" y1="161.035" x2="194.205" y2="163.665" gradientUnits="userSpaceOnUse">
<stop stop-color="#FF00C3"/>
<stop offset="1" stop-color="#EE2CFF"/>
</linearGradient>
<linearGradient id="paint73_linear_3_64" x1="186.927" y1="180.046" x2="186.927" y2="186.485" gradientUnits="userSpaceOnUse">
<stop stop-color="#FF00C3"/>
<stop offset="1" stop-color="#EE2CFF"/>
</linearGradient>
<linearGradient id="paint74_linear_3_64" x1="176.263" y1="186.439" x2="176.263" y2="208.165" gradientUnits="userSpaceOnUse">
<stop stop-color="#FF00C3"/>
<stop offset="1" stop-color="#EE2CFF"/>
</linearGradient>
<linearGradient id="paint75_linear_3_64" x1="178.413" y1="204.27" x2="178.413" y2="207.531" gradientUnits="userSpaceOnUse">
<stop stop-color="#FF00C3"/>
<stop offset="1" stop-color="#EE2CFF"/>
</linearGradient>
<linearGradient id="paint76_linear_3_64" x1="62.22" y1="185.833" x2="62.22" y2="186.478" gradientUnits="userSpaceOnUse">
<stop stop-color="#FF00C3"/>
<stop offset="1" stop-color="#EE2CFF"/>
</linearGradient>
<linearGradient id="paint77_linear_3_64" x1="239.279" y1="102.293" x2="239.279" y2="102.681" gradientUnits="userSpaceOnUse">
<stop stop-color="#FF00C3"/>
<stop offset="1" stop-color="#EE2CFF"/>
</linearGradient>
<linearGradient id="paint78_linear_3_64" x1="104.063" y1="115.402" x2="104.063" y2="118.768" gradientUnits="userSpaceOnUse">
<stop stop-color="#FF00C3"/>
<stop offset="1" stop-color="#EE2CFF"/>
</linearGradient>
<linearGradient id="paint79_linear_3_64" x1="87.6112" y1="124.305" x2="87.6112" y2="127.529" gradientUnits="userSpaceOnUse">
<stop stop-color="#FF00C3"/>
<stop offset="1" stop-color="#EE2CFF"/>
</linearGradient>
<linearGradient id="paint80_linear_3_64" x1="266.777" y1="125.493" x2="266.777" y2="127.078" gradientUnits="userSpaceOnUse">
<stop stop-color="#FF00C3"/>
<stop offset="1" stop-color="#EE2CFF"/>
</linearGradient>
<linearGradient id="paint81_linear_3_64" x1="51.4278" y1="164.045" x2="51.4278" y2="165.804" gradientUnits="userSpaceOnUse">
<stop stop-color="#FF00C3"/>
<stop offset="1" stop-color="#EE2CFF"/>
</linearGradient>
<linearGradient id="paint82_linear_3_64" x1="177.942" y1="164.401" x2="177.942" y2="167.617" gradientUnits="userSpaceOnUse">
<stop stop-color="#FF00C3"/>
<stop offset="1" stop-color="#EE2CFF"/>
</linearGradient>
<linearGradient id="paint83_linear_3_64" x1="209.733" y1="188.236" x2="209.733" y2="201.844" gradientUnits="userSpaceOnUse">
<stop stop-color="#FF00C3"/>
<stop offset="1" stop-color="#EE2CFF"/>
</linearGradient>
<linearGradient id="paint84_linear_3_64" x1="171.882" y1="209.449" x2="171.882" y2="214.859" gradientUnits="userSpaceOnUse">
<stop stop-color="#FF00C3"/>
<stop offset="1" stop-color="#EE2CFF"/>
</linearGradient>
<linearGradient id="paint85_linear_3_64" x1="193.646" y1="114.966" x2="193.646" y2="115.846" gradientUnits="userSpaceOnUse">
<stop stop-color="#FF00C3"/>
<stop offset="1" stop-color="#EE2CFF"/>
</linearGradient>
<linearGradient id="paint86_linear_3_64" x1="191.012" y1="120.519" x2="191.012" y2="120.821" gradientUnits="userSpaceOnUse">
<stop stop-color="#FF00C3"/>
<stop offset="1" stop-color="#EE2CFF"/>
</linearGradient>
<linearGradient id="paint87_linear_3_64" x1="188.22" y1="125.644" x2="188.22" y2="129.624" gradientUnits="userSpaceOnUse">
<stop stop-color="#FF00C3"/>
<stop offset="1" stop-color="#EE2CFF"/>
</linearGradient>
<linearGradient id="paint88_linear_3_64" x1="183.563" y1="129.153" x2="183.563" y2="131.347" gradientUnits="userSpaceOnUse">
<stop stop-color="#FF00C3"/>
<stop offset="1" stop-color="#EE2CFF"/>
</linearGradient>
<linearGradient id="paint89_linear_3_64" x1="195.693" y1="152.409" x2="195.693" y2="153.866" gradientUnits="userSpaceOnUse">
<stop stop-color="#FF00C3"/>
<stop offset="1" stop-color="#EE2CFF"/>
</linearGradient>
<linearGradient id="paint90_linear_3_64" x1="184.675" y1="168.204" x2="184.675" y2="173.859" gradientUnits="userSpaceOnUse">
<stop stop-color="#FF00C3"/>
<stop offset="1" stop-color="#EE2CFF"/>
</linearGradient>
<linearGradient id="paint91_linear_3_64" x1="174.763" y1="144.511" x2="174.763" y2="146.262" gradientUnits="userSpaceOnUse">
<stop stop-color="#FF00C3"/>
<stop offset="1" stop-color="#EE2CFF"/>
</linearGradient>
<linearGradient id="paint92_linear_3_64" x1="168.491" y1="151.871" x2="168.491" y2="155.039" gradientUnits="userSpaceOnUse">
<stop stop-color="#FF00C3"/>
<stop offset="1" stop-color="#EE2CFF"/>
</linearGradient>
<linearGradient id="paint93_linear_3_64" x1="165.788" y1="150.983" x2="165.788" y2="151.585" gradientUnits="userSpaceOnUse">
<stop stop-color="#FF00C3"/>
<stop offset="1" stop-color="#EE2CFF"/>
</linearGradient>
<linearGradient id="paint94_linear_3_64" x1="152.769" y1="180.766" x2="152.769" y2="184.727" gradientUnits="userSpaceOnUse">
<stop stop-color="#FF00C3"/>
<stop offset="1" stop-color="#EE2CFF"/>
</linearGradient>
<linearGradient id="paint95_linear_3_64" x1="147.942" y1="156.211" x2="147.942" y2="156.647" gradientUnits="userSpaceOnUse">
<stop stop-color="#FF00C3"/>
<stop offset="1" stop-color="#EE2CFF"/>
</linearGradient>
<linearGradient id="paint96_linear_3_64" x1="136.606" y1="145.676" x2="136.606" y2="149.771" gradientUnits="userSpaceOnUse">
<stop stop-color="#FF00C3"/>
<stop offset="1" stop-color="#EE2CFF"/>
</linearGradient>
<linearGradient id="paint97_linear_3_64" x1="125.783" y1="107.362" x2="125.783" y2="108.233" gradientUnits="userSpaceOnUse">
<stop stop-color="#FF00C3"/>
<stop offset="1" stop-color="#EE2CFF"/>
</linearGradient>
<linearGradient id="paint98_linear_3_64" x1="122.566" y1="104.439" x2="122.566" y2="105.017" gradientUnits="userSpaceOnUse">
<stop stop-color="#FF00C3"/>
<stop offset="1" stop-color="#EE2CFF"/>
</linearGradient>
<linearGradient id="paint99_linear_3_64" x1="78.5138" y1="155.253" x2="78.5138" y2="184.292" gradientUnits="userSpaceOnUse">
<stop stop-color="#FF00C3"/>
<stop offset="1" stop-color="#EE2CFF"/>
</linearGradient>
<linearGradient id="paint100_linear_3_64" x1="110.282" y1="122.863" x2="110.282" y2="124.907" gradientUnits="userSpaceOnUse">
<stop stop-color="#FF00C3"/>
<stop offset="1" stop-color="#EE2CFF"/>
</linearGradient>
<linearGradient id="paint101_linear_3_64" x1="110.21" y1="119.061" x2="110.21" y2="119.941" gradientUnits="userSpaceOnUse">
<stop stop-color="#FF00C3"/>
<stop offset="1" stop-color="#EE2CFF"/>
</linearGradient>
<linearGradient id="paint102_linear_3_64" x1="122.42" y1="96.7319" x2="122.42" y2="97.223" gradientUnits="userSpaceOnUse">
<stop stop-color="#FF00C3"/>
<stop offset="1" stop-color="#EE2CFF"/>
</linearGradient>
<linearGradient id="paint103_linear_3_64" x1="127.83" y1="86.0071" x2="127.83" y2="92.7321" gradientUnits="userSpaceOnUse">
<stop stop-color="#FF00C3"/>
<stop offset="1" stop-color="#EE2CFF"/>
</linearGradient>
<linearGradient id="paint104_linear_3_64" x1="180.354" y1="81.5234" x2="180.354" y2="82.0066" gradientUnits="userSpaceOnUse">
<stop stop-color="#FF00C3"/>
<stop offset="1" stop-color="#EE2CFF"/>
</linearGradient>
<linearGradient id="paint105_linear_3_64" x1="179.753" y1="96.3916" x2="179.753" y2="98.4432" gradientUnits="userSpaceOnUse">
<stop stop-color="#FF00C3"/>
<stop offset="1" stop-color="#EE2CFF"/>
</linearGradient>
<linearGradient id="paint106_linear_3_64" x1="119.933" y1="104.336" x2="119.933" y2="104.851" gradientUnits="userSpaceOnUse">
<stop stop-color="#FF00C3"/>
<stop offset="1" stop-color="#EE2CFF"/>
</linearGradient>
<linearGradient id="paint107_linear_3_64" x1="184.042" y1="127.252" x2="184.042" y2="128.717" gradientUnits="userSpaceOnUse">
<stop stop-color="#FF00C3"/>
<stop offset="1" stop-color="#EE2CFF"/>
</linearGradient>
<linearGradient id="paint108_linear_3_64" x1="186.113" y1="122.57" x2="186.113" y2="123.45" gradientUnits="userSpaceOnUse">
<stop stop-color="#FF00C3"/>
<stop offset="1" stop-color="#EE2CFF"/>
</linearGradient>
<linearGradient id="paint109_linear_3_64" x1="155.752" y1="163.134" x2="155.752" y2="163.692" gradientUnits="userSpaceOnUse">
<stop stop-color="#FF00C3"/>
<stop offset="1" stop-color="#EE2CFF"/>
</linearGradient>
<linearGradient id="paint110_linear_3_64" x1="139.383" y1="78.3076" x2="139.383" y2="85.1276" gradientUnits="userSpaceOnUse">
<stop stop-color="#FF00C3"/>
<stop offset="1" stop-color="#EE2CFF"/>
</linearGradient>
<linearGradient id="paint111_linear_3_64" x1="193.353" y1="93.0249" x2="193.353" y2="93.6111" gradientUnits="userSpaceOnUse">
<stop stop-color="#FF00C3"/>
<stop offset="1" stop-color="#EE2CFF"/>
</linearGradient>
<linearGradient id="paint112_linear_3_64" x1="199.349" y1="163.229" x2="199.349" y2="168.497" gradientUnits="userSpaceOnUse">
<stop stop-color="#FF00C3"/>
<stop offset="1" stop-color="#EE2CFF"/>
</linearGradient>
<linearGradient id="paint113_linear_3_64" x1="176.846" y1="205.646" x2="176.846" y2="206.224" gradientUnits="userSpaceOnUse">
<stop stop-color="#FF00C3"/>
<stop offset="1" stop-color="#EE2CFF"/>
</linearGradient>
<linearGradient id="paint114_linear_3_64" x1="188.236" y1="182.24" x2="188.236" y2="183.119" gradientUnits="userSpaceOnUse">
<stop stop-color="#FF00C3"/>
<stop offset="1" stop-color="#EE2CFF"/>
</linearGradient>
<linearGradient id="paint115_linear_3_64" x1="177.119" y1="203.302" x2="177.119" y2="204.767" gradientUnits="userSpaceOnUse">
<stop stop-color="#FF00C3"/>
<stop offset="1" stop-color="#EE2CFF"/>
</linearGradient>
<linearGradient id="paint116_linear_3_64" x1="240.008" y1="192.481" x2="240.008" y2="203.009" gradientUnits="userSpaceOnUse">
<stop stop-color="#FF00C3"/>
<stop offset="1" stop-color="#EE2CFF"/>
</linearGradient>
</defs>
</svg>
