<svg width="297" height="297" viewBox="0 0 297 297" fill="none" xmlns="http://www.w3.org/2000/svg">
<path fill-rule="evenodd" clip-rule="evenodd" d="M107.702 239.538C108.006 239.226 108.006 238.671 107.475 238.608C107.514 238.952 107.389 239.46 107.702 239.538Z" fill="url(#paint0_linear_3_182)"/>
<path fill-rule="evenodd" clip-rule="evenodd" d="M177.942 237.912C177.879 238.225 178.082 238.819 178.168 238.374C178.239 238.061 178.028 237.467 177.942 237.912Z" fill="url(#paint1_linear_3_182)"/>
<path fill-rule="evenodd" clip-rule="evenodd" d="M165.89 234.474C166.452 233.067 165.069 232.996 165.89 234.474V234.474Z" fill="url(#paint2_linear_3_182)"/>
<path fill-rule="evenodd" clip-rule="evenodd" d="M188.36 228.636C188.431 228.112 188.306 227.768 187.899 227.713C187.962 228.12 187.673 228.87 188.36 228.636Z" fill="url(#paint3_linear_3_182)"/>
<path fill-rule="evenodd" clip-rule="evenodd" d="M151.978 219.366C151.525 219.257 151.196 220.429 151.743 220.523C151.814 220.41 151.908 220.313 152.019 220.239C152.13 220.165 152.256 220.116 152.388 220.095C152.519 220.073 152.654 220.08 152.783 220.115C152.912 220.15 153.032 220.211 153.135 220.296C153.041 219.694 152.408 219.624 151.978 219.366Z" fill="url(#paint4_linear_3_182)"/>
<path fill-rule="evenodd" clip-rule="evenodd" d="M150.845 218.905H151.306V218.436H150.845V218.905Z" fill="url(#paint5_linear_3_182)"/>
<path fill-rule="evenodd" clip-rule="evenodd" d="M197.177 216.357C197.122 215.825 196.442 215.739 196.489 216.122C196.505 216.271 197.239 216.904 197.177 216.357Z" fill="url(#paint6_linear_3_182)"/>
<path fill-rule="evenodd" clip-rule="evenodd" d="M168.438 215.426C168.427 215.608 168.464 215.79 168.545 215.953C168.625 216.116 168.748 216.255 168.9 216.356C168.981 216.276 169.035 216.171 169.054 216.058C169.073 215.944 169.055 215.828 169.004 215.725C168.953 215.622 168.871 215.538 168.77 215.484C168.668 215.431 168.552 215.411 168.438 215.426Z" fill="url(#paint7_linear_3_182)"/>
<path fill-rule="evenodd" clip-rule="evenodd" d="M152.446 214.497C151.821 213.91 151.133 214.551 151.282 215.427C151.962 215.411 152.142 214.934 152.446 214.497Z" fill="url(#paint8_linear_3_182)"/>
<path fill-rule="evenodd" clip-rule="evenodd" d="M148.038 213.575C147.886 213.554 147.732 213.589 147.604 213.674C147.476 213.759 147.383 213.888 147.343 214.036C147.494 214.053 147.647 214.016 147.775 213.932C147.902 213.847 147.995 213.721 148.038 213.575Z" fill="url(#paint9_linear_3_182)"/>
<path fill-rule="evenodd" clip-rule="evenodd" d="M149.196 211.488V211.714L149.547 211.832L149.657 212.183C150.063 211.652 150.618 211.285 150.587 210.323L150.243 210.058L150.36 209.635C148.938 209.182 148.86 209.94 148.273 210.792L148.617 211.058L148.5 211.488H149.196Z" fill="url(#paint10_linear_3_182)"/>
<path fill-rule="evenodd" clip-rule="evenodd" d="M150.586 210.323C150.875 210.259 151.175 210.269 151.459 210.351C151.743 210.433 152.002 210.584 152.212 210.792C152.41 209.955 152.488 209.095 152.447 208.236L152.095 208.353L151.978 208.009C151.54 208.064 151.47 207.744 151.048 207.775C151.204 208.775 150.649 209.072 150.36 209.635L150.704 209.901L150.586 210.323Z" fill="url(#paint11_linear_3_182)"/>
<path fill-rule="evenodd" clip-rule="evenodd" d="M157.097 209.166C156.972 209.51 156.753 209.752 156.628 210.096C157.097 210.244 157.566 209.236 157.097 209.166Z" fill="url(#paint12_linear_3_182)"/>
<path fill-rule="evenodd" clip-rule="evenodd" d="M147.343 209.635C148.445 208.369 146.233 210.057 147.343 209.862C147.359 209.862 147.327 209.643 147.343 209.635Z" fill="url(#paint13_linear_3_182)"/>
<path fill-rule="evenodd" clip-rule="evenodd" d="M129.031 199.428C129.213 199.441 129.395 199.405 129.559 199.324C129.722 199.243 129.861 199.119 129.961 198.966C129.43 198.904 129.086 199.021 129.031 199.428Z" fill="url(#paint14_linear_3_182)"/>
<path fill-rule="evenodd" clip-rule="evenodd" d="M140.387 196.419C140.387 196.114 140.794 196.208 140.848 195.958C140.583 195.395 139.762 196.216 140.387 196.419Z" fill="url(#paint15_linear_3_182)"/>
<path fill-rule="evenodd" clip-rule="evenodd" d="M43.7679 191.549L43.6506 191.205L43.7679 190.854C42.8456 190.361 41.134 190.768 41.2121 192.01C42.2047 192.018 43.2677 192.096 43.7679 191.549Z" fill="url(#paint16_linear_3_182)"/>
<path fill-rule="evenodd" clip-rule="evenodd" d="M143.169 186.219C143.017 186.2 142.863 186.236 142.736 186.321C142.608 186.406 142.515 186.533 142.473 186.68C142.841 186.665 143.278 186.712 143.169 186.219Z" fill="url(#paint17_linear_3_182)"/>
<path fill-rule="evenodd" clip-rule="evenodd" d="M88.2326 178.106C90.0928 179.958 93.8834 178.208 95.6498 177.176C93.3363 176.684 89.022 175.722 88.2326 178.106Z" fill="url(#paint18_linear_3_182)"/>
<path fill-rule="evenodd" clip-rule="evenodd" d="M78.9393 176.254C78.8611 176.793 78.1577 176.684 78.2437 177.41C79.1347 178.411 81.0652 178.004 81.7139 176.941C80.8883 176.417 79.9143 176.175 78.9393 176.254Z" fill="url(#paint19_linear_3_182)"/>
<path fill-rule="evenodd" clip-rule="evenodd" d="M26.5737 176.254C24.5338 175.41 19.7505 175.535 18.4609 176.942C20.0397 177.786 25.4091 177.966 26.5737 176.254Z" fill="url(#paint20_linear_3_182)"/>
<path fill-rule="evenodd" clip-rule="evenodd" d="M104.223 172.08C105.192 172.166 106.388 171.189 107.005 172.307V172.541L107.357 172.658L107.24 173.002C108.6 172.823 109.155 171.83 110.257 171.384L109.905 171.267L110.022 170.915H107.936C107.998 170.548 108.279 170.548 107.701 170.454C107.123 170.361 105.067 170.579 103.066 170.454C100.503 170.298 98.3377 169.149 97.2748 170.22L97.3842 170.572L97.2748 170.915C99.6117 171.22 102.425 171.947 104.223 172.08Z" fill="url(#paint21_linear_3_182)"/>
<path fill-rule="evenodd" clip-rule="evenodd" d="M94.0236 170.916L93.9141 170.572L94.258 170.454C94.258 169.454 96.0947 169.501 95.4148 168.602C92.859 168.985 89.8968 168.954 89.1621 171.15C90.7956 171.846 92.1634 170.72 94.0236 170.916Z" fill="url(#paint22_linear_3_182)"/>
<path fill-rule="evenodd" clip-rule="evenodd" d="M98.8934 174.628C97.9633 173.979 95.7123 173.847 95.8843 175.558C96.4184 175.755 97.0023 175.77 97.5461 175.602C98.0898 175.434 98.5632 175.092 98.8934 174.628Z" fill="url(#paint23_linear_3_182)"/>
<path fill-rule="evenodd" clip-rule="evenodd" d="M120.456 170.454C118.635 170.454 116.635 172.182 115.814 173.932C116.793 173.722 117.715 173.302 118.516 172.702C119.317 172.101 119.979 171.335 120.456 170.454Z" fill="url(#paint24_linear_3_182)"/>
<path fill-rule="evenodd" clip-rule="evenodd" d="M108.17 173.51C108.35 173.557 108.436 173.706 108.405 173.971C109.032 174.028 109.664 173.948 110.257 173.737C110.109 172.783 108.381 172.4 108.17 173.51Z" fill="url(#paint25_linear_3_182)"/>
<path fill-rule="evenodd" clip-rule="evenodd" d="M115.127 172.541C114.627 172.166 113.564 171.705 113.728 173.002C114.345 173.002 115.096 173.135 115.127 172.541Z" fill="url(#paint26_linear_3_182)"/>
<path fill-rule="evenodd" clip-rule="evenodd" d="M213.175 171.611C212.823 171.65 212.323 171.533 212.245 171.846C212.589 171.807 213.105 171.947 213.175 171.611Z" fill="url(#paint27_linear_3_182)"/>
<path fill-rule="evenodd" clip-rule="evenodd" d="M121.145 171.384C121.473 171.259 122.34 171.65 122.301 171.15C121.973 171.275 121.145 170.876 121.145 171.384Z" fill="url(#paint28_linear_3_182)"/>
<path fill-rule="evenodd" clip-rule="evenodd" d="M11.0431 170.916C10.7305 170.845 10.5976 170.587 10.1131 170.689V171.385C10.6367 171.447 10.9884 171.33 11.0431 170.916Z" fill="url(#paint29_linear_3_182)"/>
<path fill-rule="evenodd" clip-rule="evenodd" d="M39.5558 168.821V168.125C38.5397 168.344 36.5076 167.547 36.5389 168.821C37.0626 169.266 39.0087 169.149 39.5558 168.821Z" fill="url(#paint30_linear_3_182)"/>
<path fill-rule="evenodd" clip-rule="evenodd" d="M78.0323 164.913C77.493 164.749 76.0549 164.28 76.18 165.382C76.4957 165.528 76.852 165.562 77.1893 165.476C77.5266 165.391 77.8242 165.192 78.0323 164.913Z" fill="url(#paint31_linear_3_182)"/>
<path fill-rule="evenodd" clip-rule="evenodd" d="M212.941 160.95C213.152 161.13 213.605 160.81 213.644 160.716C213.972 159.833 212.48 160.552 212.941 160.95Z" fill="url(#paint32_linear_3_182)"/>
<path fill-rule="evenodd" clip-rule="evenodd" d="M63.6593 152.838C63.4952 152.572 62.018 151.822 62.0415 152.838C62.0727 153.189 63.6281 153.189 63.6593 152.838Z" fill="url(#paint33_linear_3_182)"/>
<path fill-rule="evenodd" clip-rule="evenodd" d="M51.138 148.203C51.0989 150.508 55.5383 149.492 57.1718 149.359C56.187 147.867 53.0216 147.452 51.138 148.203Z" fill="url(#paint34_linear_3_182)"/>
<path fill-rule="evenodd" clip-rule="evenodd" d="M137.839 149.126C137.839 148.625 137.652 148.391 137.144 148.438C137.104 148.938 137.331 149.172 137.839 149.126Z" fill="url(#paint35_linear_3_182)"/>
<path fill-rule="evenodd" clip-rule="evenodd" d="M162.178 146.812C161.873 146.507 161.31 146.507 161.248 147.038C161.599 146.999 162.107 147.124 162.178 146.812Z" fill="url(#paint36_linear_3_182)"/>
<path fill-rule="evenodd" clip-rule="evenodd" d="M125.553 137.769H124.857V138.465H125.553V137.769Z" fill="url(#paint37_linear_3_182)"/>
<path fill-rule="evenodd" clip-rule="evenodd" d="M35.8437 134.76C35.8716 134.685 35.881 134.605 35.8712 134.526C35.8613 134.447 35.8325 134.372 35.7872 134.306C35.7419 134.241 35.6814 134.188 35.6109 134.151C35.5405 134.114 35.4621 134.094 35.3826 134.094C35.303 134.094 35.2247 134.114 35.1542 134.151C35.0837 134.188 35.0232 134.241 34.9779 134.306C34.9326 134.372 34.9038 134.447 34.8939 134.526C34.8841 134.605 34.8935 134.685 34.9214 134.76H35.8437Z" fill="url(#paint38_linear_3_182)"/>
<path fill-rule="evenodd" clip-rule="evenodd" d="M77.1031 131.517C78.8851 131.931 80.8078 132.681 82.4413 132.9L82.324 132.478L82.6679 132.204C79.5416 131.22 76.595 128.867 72.7028 129.422C73.117 131.243 75.4539 131.118 77.1031 131.517Z" fill="url(#paint39_linear_3_182)"/>
<path fill-rule="evenodd" clip-rule="evenodd" d="M54.8506 131.047C54.8548 130.795 54.772 130.55 54.6161 130.352C52.2714 129.977 47.7929 127.163 46.0187 129.422C47.9102 130.891 51.8493 131.485 54.8506 131.047Z" fill="url(#paint40_linear_3_182)"/>
<path fill-rule="evenodd" clip-rule="evenodd" d="M144.099 126.874C144.14 126.675 144.14 126.471 144.099 126.272C144.059 126.073 143.979 125.885 143.865 125.717C143.083 125.819 142.88 126.21 143.169 126.874H144.099Z" fill="url(#paint41_linear_3_182)"/>
<path fill-rule="evenodd" clip-rule="evenodd" d="M201.124 121.082C199.772 120.074 197.724 121.254 197.646 122.934C197.992 123.097 198.371 123.176 198.754 123.166C199.136 123.156 199.511 123.058 199.848 122.878C200.186 122.698 200.477 122.442 200.698 122.131C200.92 121.819 201.065 121.46 201.124 121.082Z" fill="url(#paint42_linear_3_182)"/>
<path fill-rule="evenodd" clip-rule="evenodd" d="M217.349 112.97C214.223 111.352 212.714 115.049 212.245 117.604C214.48 117.503 217.122 115.846 217.349 112.97Z" fill="url(#paint43_linear_3_182)"/>
<path fill-rule="evenodd" clip-rule="evenodd" d="M39.0787 115.979H38.3831V116.674H38.852C38.8755 116.377 39.1569 116.354 39.0787 115.979Z" fill="url(#paint44_linear_3_182)"/>
<path fill-rule="evenodd" clip-rule="evenodd" d="M62.0409 112.969H61.572V113.43H62.0409V112.969Z" fill="url(#paint45_linear_3_182)"/>
<path fill-rule="evenodd" clip-rule="evenodd" d="M218.974 111.805C218.974 111.508 219.264 111.484 219.201 111.117H218.74C218.474 111.445 218.49 111.68 218.974 111.805Z" fill="url(#paint46_linear_3_182)"/>
<path fill-rule="evenodd" clip-rule="evenodd" d="M44.6511 110.882C44.7215 110.273 44.1665 110.281 43.7289 110.187C43.6585 110.796 44.0415 110.984 44.6511 110.882Z" fill="url(#paint47_linear_3_182)"/>
<path fill-rule="evenodd" clip-rule="evenodd" d="M118.371 108.562V109.257H119.058C119.105 108.757 118.871 108.522 118.371 108.562Z" fill="url(#paint48_linear_3_182)"/>
<path fill-rule="evenodd" clip-rule="evenodd" d="M246.783 102.996C244.165 102.449 243.079 104.473 241.453 105.779C240.32 106.693 238.694 107.272 238.678 108.561C238.975 108.561 238.991 108.858 239.366 108.796C241.899 106.92 245.588 106.209 246.783 102.996Z" fill="url(#paint49_linear_3_182)"/>
<path fill-rule="evenodd" clip-rule="evenodd" d="M88.9282 108.796C89.0376 108.069 88.7249 107.764 88.0059 107.866C87.8418 108.64 88.3889 108.718 88.9282 108.796Z" fill="url(#paint50_linear_3_182)"/>
<path fill-rule="evenodd" clip-rule="evenodd" d="M226.158 105.083C226.302 104.925 226.381 104.719 226.381 104.505C226.381 104.291 226.302 104.085 226.158 103.927C225.431 103.817 225.415 104.419 225.462 105.083H226.158Z" fill="url(#paint51_linear_3_182)"/>
<path fill-rule="evenodd" clip-rule="evenodd" d="M265.331 95.1181C262.986 94.102 261.845 96.2435 259.766 96.2748C258.148 98.2913 254.201 97.9708 253.279 100.683C256.632 101.074 260.086 98.0334 262.783 97.2049C264.174 96.7828 265.307 96.4389 265.331 95.1181Z" fill="url(#paint52_linear_3_182)"/>
<path fill-rule="evenodd" clip-rule="evenodd" d="M262.321 99.0573C262.563 97.713 261.313 98.9636 262.321 99.0573V99.0573Z" fill="url(#paint53_linear_3_182)"/>
<path fill-rule="evenodd" clip-rule="evenodd" d="M216.654 87.4663C218.069 85.6218 221.101 84.2071 220.367 80.9792C217.287 80.5962 215.232 84.2775 215.724 87.4663H216.654Z" fill="url(#paint54_linear_3_182)"/>
<path fill-rule="evenodd" clip-rule="evenodd" d="M268.574 79.1272C267.112 78.5722 266.174 80.3855 265.33 81.214L265.729 81.3703L266.026 81.6751C266.987 80.9326 268.581 80.831 268.574 79.1272Z" fill="url(#paint55_linear_3_182)"/>
<path fill-rule="evenodd" clip-rule="evenodd" d="M244.236 80.9794C242.446 80.784 241.696 82.6989 242.149 83.9885C243.642 83.8947 244.924 82.4957 244.236 80.9794Z" fill="url(#paint56_linear_3_182)"/>
<path fill-rule="evenodd" clip-rule="evenodd" d="M286.887 79.1269C285.324 79.0019 283.823 80.0257 282.721 80.7448C281.619 81.4638 280.017 82.3079 280.165 83.5272C282.416 82.1907 286.152 81.9406 286.887 79.1269Z" fill="url(#paint57_linear_3_182)"/>
<path fill-rule="evenodd" clip-rule="evenodd" d="M210.854 83.3008C210.924 82.6912 210.541 82.5192 209.932 82.6052C209.934 82.8568 209.851 83.1017 209.697 83.3008C210.143 83.7307 210.284 83.3243 210.854 83.3008Z" fill="url(#paint58_linear_3_182)"/>
<path fill-rule="evenodd" clip-rule="evenodd" d="M207.119 70.7798C205.47 70.983 205.11 72.4758 205.032 74.2578C206.79 74.25 208.143 72.0459 207.119 70.7798Z" fill="url(#paint59_linear_3_182)"/>
<path fill-rule="evenodd" clip-rule="evenodd" d="M276.921 62.4323C277.163 61.088 275.921 62.3386 276.921 62.4323V62.4323Z" fill="url(#paint60_linear_3_182)"/>
<path fill-rule="evenodd" clip-rule="evenodd" d="M267.417 58.7277C267.058 58.3447 266.518 58.8058 266.026 58.9543C266.028 59.207 265.948 59.4536 265.799 59.6577C266.518 60.2283 267.355 59.5014 267.417 58.7277Z" fill="url(#paint61_linear_3_182)"/>
<path fill-rule="evenodd" clip-rule="evenodd" d="M285.276 56.8676C282.666 56.5784 281.322 57.5476 280.642 59.2124C281.535 59.1686 282.41 58.9372 283.208 58.5332C284.007 58.1292 284.711 57.5617 285.276 56.8676Z" fill="url(#paint62_linear_3_182)"/>
<path fill-rule="evenodd" clip-rule="evenodd" d="M258.609 57.571V56.641C257.866 56.4378 257.89 56.9927 257.687 57.3366C257.991 57.4069 258.124 57.6648 258.609 57.571Z" fill="url(#paint63_linear_3_182)"/>
<path fill-rule="evenodd" clip-rule="evenodd" d="M173.768 240.226C174.057 240.812 175.089 239.788 174.464 239.538C174.823 240.359 173.674 239.671 173.768 240.226Z" fill="url(#paint64_linear_3_182)"/>
<path fill-rule="evenodd" clip-rule="evenodd" d="M132.275 151.446C132.337 152.228 131.962 152.759 132.048 153.533C132.189 154.862 133.056 156.238 132.736 157.941C132.017 158.84 130.258 158.723 129.961 160.02C130.649 160.489 132.142 160.153 133.205 160.255C134.172 161.173 134.923 162.294 135.404 163.537C135.885 164.781 136.084 166.116 135.987 167.445C134.924 169.47 132.408 170.048 130.422 171.15L130.54 171.502L130.422 171.846C131.032 171.775 131.204 172.166 131.118 172.776L131.235 173.12L131.345 173.471C132.783 173.057 134.049 171.252 135.987 170.916C138.096 170.784 140.212 171.019 142.24 171.611C144.866 172.807 144.717 178.645 145.014 182.28C144.319 183.061 142.92 183.116 142.466 184.132C143.522 183.999 143.912 184.546 145.014 184.359C145.014 184.976 144.889 185.726 145.483 185.758L145.827 185.641L146.171 185.758C146.382 185.463 146.661 185.224 146.986 185.061C147.31 184.899 147.669 184.819 148.031 184.828C147.82 186.344 149.391 186.688 148.266 187.837H148.5V188.071C149.399 188.196 149.634 187.657 150.587 187.837C150.036 188.557 149.7 189.419 149.618 190.322C149.537 191.225 149.713 192.133 150.126 192.94L150.47 192.823L150.587 193.175C152.408 192.753 153.268 190.142 154.495 189.924C154.096 190.705 154.003 191.745 153.338 192.268L153.69 192.386L153.573 192.729C155.019 192.612 153.729 194.175 153.573 194.582C152.736 194.394 152.447 195.113 151.947 194.582C151.376 195.684 151.892 196.927 153.104 196.927C154.3 196.575 154.042 194.769 155.449 194.582C155.581 195.207 154.769 196.035 155.449 196.442C155.8 196.114 156.449 195.582 156.84 195.981C157.713 197.042 158.276 198.324 158.465 199.685L158.809 199.959L158.692 200.381C160.091 201.335 159.732 203.32 159.388 205.016H159.622V205.25C161.185 204.703 162.022 206.673 162.639 207.798L162.748 207.454L163.1 207.564C164.867 209.244 166.172 211.941 169.353 211.472C170.244 212.089 169.72 212.753 169.814 214.254L170.158 214.137L170.275 214.481C170.58 214.481 170.486 214.887 170.744 214.95L170.853 214.598L171.205 214.481C171.494 214.481 171.526 214.184 171.901 214.254L172.166 213.902L172.596 214.02C172.784 213.363 172.268 213.418 172.362 212.863C173.573 212.582 173.261 213.816 173.292 214.715H173.057L172.776 215.028L172.362 214.95C172.612 216.474 173.675 217.193 173.753 218.858C173.425 219.147 173.753 220.077 172.831 219.78C173.143 222.445 171.987 225.251 173.057 227.197L173.401 227.088L173.519 227.432C174.339 224.891 173.87 222.508 174.449 219.78C176.606 219.928 175.957 217.279 176.793 216.075C177.856 216.075 179.029 214.879 180.271 215.841C180.779 216.232 180.537 217.005 181.202 217.466L181.467 217.115L181.897 217.232V214.45C182.577 214.301 182.679 213.605 183.687 213.754L183.953 215.637C183.515 216.044 183.523 215.505 183.062 215.38C183.71 216.661 183.718 218.584 184.906 219.287L185.141 219.17L185.375 219.287C185.61 217.513 184.633 216.943 184.218 215.809H183.984C184.085 215.105 184.001 214.386 183.742 213.723L183.624 213.379L183.976 213.496C184.961 212.714 186.649 211.823 187.689 213.027C187.822 212.55 187.399 211.464 187.915 211.409C188.431 211.354 188.431 211.667 188.845 211.636L188.728 211.292L189.072 211.175C188.838 209.698 190.338 209.893 190.698 210.714V210.479H190.932C191.19 209.518 191.8 207.892 193.019 208.627L193.136 208.275L193.48 208.392C193.476 208.14 193.559 207.895 193.715 207.697C195.261 209.401 196.967 210.953 198.811 212.331L199.092 212.019L199.506 212.105C198.928 210.596 197.341 210.096 197.161 208.158C197.444 207.993 197.765 207.906 198.091 207.906C198.418 207.906 198.739 207.993 199.022 208.158C199.186 207.454 198.623 207.478 198.787 206.774C198.284 206.822 197.777 206.763 197.298 206.603C196.818 206.443 196.378 206.185 196.005 205.844C195.867 205.406 195.884 204.934 196.054 204.507C196.223 204.08 196.534 203.724 196.935 203.5C197.49 204.078 197.544 203.718 198.553 203.734C199.389 202.413 197.904 201.124 198.553 199.826C199.725 200.803 200.053 199.498 201.108 199.131C202.203 199.811 203.14 200.655 204.813 200.748C204.93 200.006 203.734 199.381 204.352 198.896C205.509 199.365 206.618 199.873 207.83 200.287C207.939 197.943 205.352 198.286 204.586 196.809C203.805 196.997 203.695 196.465 202.961 196.583C202.218 195.465 200.217 195.613 199.952 194.027C201.945 193.706 202.812 193.972 203.43 195.418V195.653H203.211C203.992 196.739 206.994 196.77 207.846 197.044L207.728 196.692L207.611 196.348C206.486 195.254 204.86 195.457 204.602 194.261C204.469 193.66 205.274 193.933 204.829 193.331C204.641 193.073 203.344 193.691 203.899 192.87C205.524 192.8 205.993 193.871 207.611 193.8L207.494 193.448L207.846 193.566V193.331C208.557 193.503 208.526 192.933 209.237 193.105C209.971 192.542 208.033 192.081 209.237 191.713C209.674 191.807 209.823 192.214 210.394 192.175L210.284 191.831L210.628 191.713C210.625 191.566 210.58 191.422 210.498 191.299C210.416 191.176 210.302 191.078 210.167 191.018C208.033 190.017 205.477 189.455 203.914 187.766C204.102 187.72 204.375 187.766 204.383 187.54L204.031 187.266L204.149 186.844C203.172 186.844 202.906 186.063 202.531 185.453L202.414 185.797L202.062 185.687C201.358 185.852 201.218 185.445 200.671 185.453L200.327 185.336L200.444 184.992C199.925 184.997 199.411 184.896 198.933 184.696C198.455 184.495 198.022 184.2 197.662 183.827C197.591 182.202 196.012 182.077 195.575 180.818C195.757 180.83 195.94 180.792 196.103 180.71C196.267 180.627 196.405 180.503 196.505 180.349C196.138 180.349 195.723 180.349 195.809 179.888C196.067 179.458 196.708 179.396 196.966 178.966C196.818 178.925 196.689 178.833 196.605 178.705C196.52 178.577 196.484 178.422 196.505 178.27C195.52 178.341 193.754 178.2 192.558 178.966C191.221 177.825 189.557 177.02 189.08 175.058C191.581 173.604 196.739 173.206 199.514 174.597C199.959 173.651 201.476 173.776 202.531 173.44L202.414 173.088L202.531 172.744C201.515 172.447 200.061 172.588 199.748 171.58C200.074 171.629 200.405 171.547 200.671 171.353L200.553 170.923L200.905 170.658C200.483 169.876 199.17 170.697 197.896 170.423L198.005 170.767C197.224 170.228 196.231 170.228 195.34 169.985L197.685 170.689C197.349 171.259 197.13 171.596 197.458 172.299C196.489 172.135 194.41 170.791 195.372 170.212V169.985H195.606C195.043 169.548 193.754 169.829 193.058 169.517L193.175 169.868L193.058 170.212C192.886 170.845 194.152 170.048 193.98 170.681C193.3 172.174 190.526 170.876 191.206 169.751H191.432L191.315 169.517L191.432 169.29C192.019 167.938 194.559 168.563 195.145 167.203C193.425 167.101 192.714 166.875 191.667 165.812C190.526 165.601 190.784 166.781 189.815 166.742C188.838 166.015 187.47 165.64 186.798 164.655C186.751 163.874 187.188 163.092 187.259 161.873C185.029 162.224 182.851 162.846 180.772 163.725C180.248 162.623 180.842 161.38 181.233 160.481C181.905 160.919 182.515 159.7 183.578 159.786C184.547 158.16 186.063 154.237 183.578 153.064C182.843 154.495 182.46 156.269 180.795 156.769C179.435 155.62 180.397 154.424 180.795 153.064C181.303 151.267 181.663 149.336 182.647 148.195C183.523 147.179 184.992 146.788 185.195 145.647C184.14 144.084 185.531 142.286 187.282 142.169C187.278 142.421 187.361 142.667 187.517 142.865L187.868 142.747L187.978 143.091H188.361L188.251 142.669L188.595 142.396C189.331 141.631 189.816 140.66 189.986 139.613C191.276 138.503 192.917 137.761 194.16 136.604C193.816 136.604 193.3 136.682 193.238 136.37C195.754 134.692 198.018 132.663 199.959 130.344L199.842 130L199.725 129.648C198.99 130 198.592 130.68 197.638 130.813C196.638 131.766 195.684 132.939 194.621 133.822C193.546 134.831 192.289 135.626 190.917 136.167V135.471L190.565 135.58L190.448 135.236C187.884 137.222 188.103 142.013 183.038 141.489C182.89 143.896 180.694 144.256 179.13 145.194L179.482 145.311L179.365 145.663C178.951 146.905 177.575 145.96 176.356 146.124C174.12 147.781 171.502 146.538 168.931 146.585C168.383 146.706 167.842 146.86 167.313 147.046C165.088 147.411 162.844 147.646 160.591 147.75C158.981 146.538 158.434 143.404 156.183 142.88C153.143 142.169 151.541 144.287 150.157 146.358C148.594 146.78 147.586 147.804 146.21 148.445C144.741 148.32 141.896 148.734 141.575 150.524C141.951 151.079 143.623 150.337 143.67 151.228C143.639 152.014 143.306 152.759 142.74 153.307L142.849 153.541L142.74 153.776C142.13 154.862 142.435 155.878 142.044 157.019C141.263 159.364 138.918 160.833 138.801 162.584C138.707 164.147 140.505 164.866 139.723 166.758C139.184 166.679 138.723 166.515 138.566 166.062C138.402 165.351 138.965 165.374 138.801 164.671C137.84 161.865 135.049 160.38 134.393 157.48C134.041 155.917 134.612 153.736 134.393 151.689C134.163 150.852 134.009 149.997 133.932 149.133C131.141 148.133 130.313 145.178 127.202 144.498L126.905 144.803L126.514 144.967C128.539 147.406 131.993 148.047 132.275 151.446Z" fill="url(#paint65_linear_3_182)"/>
<path fill-rule="evenodd" clip-rule="evenodd" d="M170.056 215.192L169.939 215.544L169.595 215.427C169.314 215.427 169.658 216.74 169.83 217.052H170.987C171.234 216.633 171.317 216.138 171.221 215.661L170.869 215.544L170.76 215.192C170.424 215.286 170.385 215.474 170.056 215.192Z" fill="url(#paint66_linear_3_182)"/>
<path fill-rule="evenodd" clip-rule="evenodd" d="M162.413 211.949L162.756 212.066L162.647 212.41C163.272 212.246 162.475 213.504 163.108 213.34C163.155 212.324 164.413 211.261 163.108 210.792L162.756 210.901L162.647 210.557C162.131 210.589 162.569 211.542 162.413 211.949Z" fill="url(#paint67_linear_3_182)"/>
<path fill-rule="evenodd" clip-rule="evenodd" d="M142.013 197.341C142.529 197.982 143.623 198.044 144.1 198.74L144.327 198.849L144.561 198.967C144.686 198.404 145.46 198.474 145.257 197.575C144.42 197.255 143.576 196.942 143.404 195.957C144.428 194.629 143.99 194.59 144.1 192.245L143.67 192.362L143.404 192.01C142.451 193.3 142.162 195.254 142.013 197.341Z" fill="url(#paint68_linear_3_182)"/>
<path fill-rule="evenodd" clip-rule="evenodd" d="M148.5 203.601C148.742 203.601 148.812 203.796 149.031 203.828L147.343 208.118C148.125 206.735 149.688 205.649 150.071 204.046C149.836 203.76 149.546 203.524 149.219 203.351L149.43 202.905C149.313 202.382 148.969 201.725 149.43 201.287C148.539 200.779 147.515 200.42 147.343 199.201C147.067 199.153 146.784 199.195 146.533 199.32C146.283 199.445 146.079 199.647 145.952 199.896L146.296 200.013L146.178 200.357C147.046 201.241 148.891 202.233 148.5 203.601Z" fill="url(#paint69_linear_3_182)"/>
<path fill-rule="evenodd" clip-rule="evenodd" d="M124.623 178.107C127.109 177.802 128.289 176.207 129.492 174.628L129.18 174.347L129.258 173.933C127.093 174.699 125.319 175.856 124.623 178.107Z" fill="url(#paint70_linear_3_182)"/>
<path fill-rule="evenodd" clip-rule="evenodd" d="M122.536 142.404C123.67 142.748 124.139 143.748 125.327 144.029L125.624 143.725L126.014 143.568C125.538 142.732 124.647 142.318 124.162 141.481C124.352 141.07 124.585 140.679 124.858 140.317C122.87 139.027 120.676 138.089 118.371 137.542L118.488 137.886L118.605 138.238C119.895 139.645 122.708 139.543 122.536 142.404Z" fill="url(#paint71_linear_3_182)"/>
<path fill-rule="evenodd" clip-rule="evenodd" d="M196.957 128.265C196.176 127.749 194.777 128.14 193.94 128.265L193.675 128.617L193.253 128.5C192.729 129.641 191.252 130.664 192.088 132.407L192.44 132.29L192.549 132.642C194.222 131.407 196.504 130.758 196.957 128.265Z" fill="url(#paint72_linear_3_182)"/>
<path fill-rule="evenodd" clip-rule="evenodd" d="M193.933 128.265C194.433 127.772 194.058 126.975 193.706 126.639C192.495 126.553 191.713 128.413 193.245 128.499L193.511 128.147L193.933 128.265Z" fill="url(#paint73_linear_3_182)"/>
<path fill-rule="evenodd" clip-rule="evenodd" d="M218.741 197.114L218.624 196.88L218.741 196.653C218.686 196.207 218.999 196.137 218.975 195.723C217.928 195.301 217.139 194.613 215.724 194.558L215.841 194.91L215.497 195.027C216.599 195.699 217.279 196.778 218.741 197.114Z" fill="url(#paint74_linear_3_182)"/>
<path fill-rule="evenodd" clip-rule="evenodd" d="M117.675 228.409C116.526 228.714 117.307 229.503 117.675 228.409V228.409Z" fill="url(#paint75_linear_3_182)"/>
<path fill-rule="evenodd" clip-rule="evenodd" d="M153.603 212.878C152.689 212.527 152.368 213.933 152.673 214.035C152.829 213.496 153.439 213.418 153.603 212.878Z" fill="url(#paint76_linear_3_182)"/>
<path fill-rule="evenodd" clip-rule="evenodd" d="M195.324 212.644C195.645 212.941 195.426 213.777 196.02 213.801C195.965 213.371 195.52 212.175 195.324 212.644Z" fill="url(#paint77_linear_3_182)"/>
<path fill-rule="evenodd" clip-rule="evenodd" d="M161.482 210.792C161.482 211.175 160.841 210.917 160.786 211.253C161.263 211.449 162.068 210.886 161.482 210.792Z" fill="url(#paint78_linear_3_182)"/>
<path fill-rule="evenodd" clip-rule="evenodd" d="M202.046 206.618C202.358 206.876 201.811 206.415 201.616 206.251L202.046 206.618Z" fill="url(#paint79_linear_3_182)"/>
<path fill-rule="evenodd" clip-rule="evenodd" d="M218.506 203.375C217.2 202.406 217.849 203.758 218.506 203.375V203.375Z" fill="url(#paint80_linear_3_182)"/>
<path fill-rule="evenodd" clip-rule="evenodd" d="M202.515 203.375C201.859 203.328 201.882 202.593 201.358 202.445C201.257 203.093 202.343 203.75 202.515 203.375Z" fill="url(#paint81_linear_3_182)"/>
<path fill-rule="evenodd" clip-rule="evenodd" d="M212.48 200.124C212.777 200.171 213.614 200.804 213.645 200.358C213.293 200.366 212.691 199.498 212.48 200.124Z" fill="url(#paint82_linear_3_182)"/>
<path fill-rule="evenodd" clip-rule="evenodd" d="M103.067 134.291C103.997 134.455 104.388 134.072 105.154 134.064L105.036 133.634L105.388 133.369C104.685 132.587 103.043 131.68 101.91 132.673L102.027 132.79L101.91 132.9C101.91 133.752 102.723 133.791 103.067 134.291Z" fill="url(#paint83_linear_3_182)"/>
<path fill-rule="evenodd" clip-rule="evenodd" d="M176.09 237.913L175.504 236.17C175.611 236.777 175.809 237.364 176.09 237.913Z" fill="url(#paint84_linear_3_182)"/>
<path fill-rule="evenodd" clip-rule="evenodd" d="M110.14 231.418C110.27 231.252 110.349 231.05 110.366 230.84L110.14 231.418Z" fill="url(#paint85_linear_3_182)"/>
<path fill-rule="evenodd" clip-rule="evenodd" d="M146.937 211.902C147.656 212.128 148.008 211.23 148.633 211.058L146.898 210.792C146.937 211.159 146.702 211.574 146.937 211.902Z" fill="url(#paint86_linear_3_182)"/>
<path fill-rule="evenodd" clip-rule="evenodd" d="M152.095 208.353L152.447 207.892C152.31 208.03 152.192 208.185 152.095 208.353Z" fill="url(#paint87_linear_3_182)"/>
<path fill-rule="evenodd" clip-rule="evenodd" d="M149.547 211.808L149.281 212.41C149.419 212.235 149.51 212.028 149.547 211.808Z" fill="url(#paint88_linear_3_182)"/>
<path fill-rule="evenodd" clip-rule="evenodd" d="M97.1896 183.843C96.8457 183.906 96.4627 183.843 96.2282 184.132L97.1896 183.843Z" fill="url(#paint89_linear_3_182)"/>
<path fill-rule="evenodd" clip-rule="evenodd" d="M96.4234 170.572H93.9145C94.6961 171.01 95.5558 170.689 96.4234 170.572Z" fill="url(#paint90_linear_3_182)"/>
<path fill-rule="evenodd" clip-rule="evenodd" d="M96.4233 170.572H97.3846C97.0665 170.517 96.7414 170.517 96.4233 170.572Z" fill="url(#paint91_linear_3_182)"/>
<path fill-rule="evenodd" clip-rule="evenodd" d="M110.679 170.947C111.279 170.815 111.853 170.582 112.375 170.259L110.679 170.947Z" fill="url(#paint92_linear_3_182)"/>
<path fill-rule="evenodd" clip-rule="evenodd" d="M107.357 172.658L104.575 174.049C105.598 173.809 106.551 173.333 107.357 172.658Z" fill="url(#paint93_linear_3_182)"/>
<path fill-rule="evenodd" clip-rule="evenodd" d="M104.575 174.05L100.753 176.254C102.027 175.605 103.723 175.253 104.575 174.05Z" fill="url(#paint94_linear_3_182)"/>
<path fill-rule="evenodd" clip-rule="evenodd" d="M100.518 174.394L104.574 174.05C103.168 173.643 101.839 174.214 100.518 174.394Z" fill="url(#paint95_linear_3_182)"/>
<path fill-rule="evenodd" clip-rule="evenodd" d="M112.376 168.876C112.561 168.837 112.744 168.784 112.923 168.72L112.376 168.876Z" fill="url(#paint96_linear_3_182)"/>
<path fill-rule="evenodd" clip-rule="evenodd" d="M186.75 148.782C186.96 148.569 187.097 148.295 187.141 148L186.75 148.782Z" fill="url(#paint97_linear_3_182)"/>
<path fill-rule="evenodd" clip-rule="evenodd" d="M83.4801 132.79L82.3234 132.477C82.7064 132.595 83.0503 132.868 83.4801 132.79Z" fill="url(#paint98_linear_3_182)"/>
<path fill-rule="evenodd" clip-rule="evenodd" d="M110.835 86.4272L111.179 86.779C111.187 86.6695 110.984 86.5601 110.835 86.4272Z" fill="url(#paint99_linear_3_182)"/>
<path fill-rule="evenodd" clip-rule="evenodd" d="M265.736 81.3701L263.688 83.199C264.411 82.6356 265.095 82.0246 265.736 81.3701Z" fill="url(#paint100_linear_3_182)"/>
<path fill-rule="evenodd" clip-rule="evenodd" d="M170.868 232.465L171.454 235.013C171.42 234.135 171.221 233.27 170.868 232.465Z" fill="url(#paint101_linear_3_182)"/>
<path fill-rule="evenodd" clip-rule="evenodd" d="M185.124 219.249C185.429 220.499 185.828 221.726 186.218 222.961L185.124 219.249Z" fill="url(#paint102_linear_3_182)"/>
<path fill-rule="evenodd" clip-rule="evenodd" d="M174.229 233.974L173.448 227.135C173.049 229.425 173.823 231.746 174.229 233.974Z" fill="url(#paint103_linear_3_182)"/>
<path fill-rule="evenodd" clip-rule="evenodd" d="M170.868 214.614V215.544C170.97 215.242 170.97 214.915 170.868 214.614Z" fill="url(#paint104_linear_3_182)"/>
<path fill-rule="evenodd" clip-rule="evenodd" d="M162.756 207.431V210.901C162.834 209.746 162.834 208.587 162.756 207.431Z" fill="url(#paint105_linear_3_182)"/>
<path fill-rule="evenodd" clip-rule="evenodd" d="M160.442 214.848L162.787 212.066C161.646 212.59 160.325 213.465 160.442 214.848Z" fill="url(#paint106_linear_3_182)"/>
<path fill-rule="evenodd" clip-rule="evenodd" d="M159.629 204.992C159.225 205.618 158.875 206.277 158.582 206.962L159.629 204.992Z" fill="url(#paint107_linear_3_182)"/>
<path fill-rule="evenodd" clip-rule="evenodd" d="M157.003 200.584C155.44 201.03 153.767 201.311 152.446 202.21L157.003 200.584Z" fill="url(#paint108_linear_3_182)"/>
<path fill-rule="evenodd" clip-rule="evenodd" d="M150.47 192.823L148.852 194.449C149.641 194.183 149.985 193.449 150.47 192.823Z" fill="url(#paint109_linear_3_182)"/>
<path fill-rule="evenodd" clip-rule="evenodd" d="M148.5 187.837L147.718 188.619C148.018 188.4 148.281 188.136 148.5 187.837Z" fill="url(#paint110_linear_3_182)"/>
<path fill-rule="evenodd" clip-rule="evenodd" d="M145.835 185.64L144.748 187.204C145.226 186.773 145.598 186.238 145.835 185.64Z" fill="url(#paint111_linear_3_182)"/>
<path fill-rule="evenodd" clip-rule="evenodd" d="M143.028 189.775L144.764 187.235C144.021 187.97 143.2 188.627 143.028 189.775Z" fill="url(#paint112_linear_3_182)"/>
<path fill-rule="evenodd" clip-rule="evenodd" d="M143.028 189.775L143.685 192.362C143.81 191.487 143.81 190.307 143.028 189.775Z" fill="url(#paint113_linear_3_182)"/>
<path fill-rule="evenodd" clip-rule="evenodd" d="M144.795 199.662C145.236 199.958 145.769 200.083 146.296 200.014L144.795 199.662Z" fill="url(#paint114_linear_3_182)"/>
<path fill-rule="evenodd" clip-rule="evenodd" d="M144.796 199.662L144.327 198.88C144.342 199.302 144.639 199.74 144.796 199.662Z" fill="url(#paint115_linear_3_182)"/>
<path fill-rule="evenodd" clip-rule="evenodd" d="M143.028 189.775L141.872 189.306C142.195 189.586 142.602 189.751 143.028 189.775Z" fill="url(#paint116_linear_3_182)"/>
<path fill-rule="evenodd" clip-rule="evenodd" d="M136.417 187.118L141.888 189.306C141.621 189.075 141.428 188.771 141.333 188.431C139.739 187.735 138.035 187.579 136.417 187.118Z" fill="url(#paint117_linear_3_182)"/>
<path fill-rule="evenodd" clip-rule="evenodd" d="M136.417 187.118L134.479 186.336C135.092 186.671 135.743 186.934 136.417 187.118Z" fill="url(#paint118_linear_3_182)"/>
<path fill-rule="evenodd" clip-rule="evenodd" d="M130.524 171.502L124.725 171.611C126.686 172.151 128.578 171.479 130.524 171.502Z" fill="url(#paint119_linear_3_182)"/>
<path fill-rule="evenodd" clip-rule="evenodd" d="M118.487 137.886C118.304 137.708 118.083 137.574 117.841 137.494C117.598 137.414 117.341 137.391 117.088 137.425L118.487 137.886Z" fill="url(#paint120_linear_3_182)"/>
<path fill-rule="evenodd" clip-rule="evenodd" d="M142.818 153.533L142.036 153.033C142.287 153.244 142.459 153.51 142.818 153.533Z" fill="url(#paint121_linear_3_182)"/>
<path fill-rule="evenodd" clip-rule="evenodd" d="M190.572 135.565L191.486 134.001C191.095 134.466 190.785 134.995 190.572 135.565Z" fill="url(#paint122_linear_3_182)"/>
<path fill-rule="evenodd" clip-rule="evenodd" d="M191.487 133.97C191.899 133.482 192.219 132.923 192.433 132.321L191.487 133.97Z" fill="url(#paint123_linear_3_182)"/>
<path fill-rule="evenodd" clip-rule="evenodd" d="M187.797 142.756L187.446 143.1C187.579 143.107 187.665 142.935 187.797 142.756Z" fill="url(#paint124_linear_3_182)"/>
<path fill-rule="evenodd" clip-rule="evenodd" d="M203.789 172.885L211.324 171.611C208.737 171.369 206.337 172.362 203.789 172.885Z" fill="url(#paint125_linear_3_182)"/>
<path fill-rule="evenodd" clip-rule="evenodd" d="M202.858 184.945C202.536 184.956 202.219 185.033 201.928 185.171L202.858 184.945Z" fill="url(#paint126_linear_3_182)"/>
<path fill-rule="evenodd" clip-rule="evenodd" d="M203.992 187.337L205.274 187.376C204.86 187.238 204.414 187.224 203.992 187.337Z" fill="url(#paint127_linear_3_182)"/>
<path fill-rule="evenodd" clip-rule="evenodd" d="M221.405 198.153L219.655 197.372C220.193 197.723 220.784 197.987 221.405 198.153Z" fill="url(#paint128_linear_3_182)"/>
<path fill-rule="evenodd" clip-rule="evenodd" d="M210.284 191.901L212.089 192.878C211.545 192.455 210.935 192.125 210.284 191.901Z" fill="url(#paint129_linear_3_182)"/>
<path fill-rule="evenodd" clip-rule="evenodd" d="M212.089 192.878C213.246 193.707 214.309 194.699 215.841 194.91L212.089 192.878Z" fill="url(#paint130_linear_3_182)"/>
<path fill-rule="evenodd" clip-rule="evenodd" d="M207.963 193.98L207.494 193.519C207.674 193.699 207.806 193.918 207.963 193.98Z" fill="url(#paint131_linear_3_182)"/>
<path fill-rule="evenodd" clip-rule="evenodd" d="M207.728 196.762L209.815 197.692C209.151 197.315 208.452 197.003 207.728 196.762Z" fill="url(#paint132_linear_3_182)"/>
<path fill-rule="evenodd" clip-rule="evenodd" d="M203.109 195.575C202.804 195.379 202.538 195.114 202.163 195.145L203.109 195.575Z" fill="url(#paint133_linear_3_182)"/>
<path fill-rule="evenodd" clip-rule="evenodd" d="M199.084 212.097C200.748 214.413 202.538 216.636 204.445 218.756L199.084 212.097Z" fill="url(#paint134_linear_3_182)"/>
<path fill-rule="evenodd" clip-rule="evenodd" d="M193.128 208.353L194.05 210.213C193.832 209.553 193.521 208.927 193.128 208.353Z" fill="url(#paint135_linear_3_182)"/>
<path fill-rule="evenodd" clip-rule="evenodd" d="M190.705 210.557L194.065 213.684C192.987 212.589 191.814 211.589 190.705 210.557Z" fill="url(#paint136_linear_3_182)"/>
<path fill-rule="evenodd" clip-rule="evenodd" d="M169.938 215.544L170.173 214.153C170.016 214.598 169.665 215.067 169.938 215.544Z" fill="url(#paint137_linear_3_182)"/>
<path fill-rule="evenodd" clip-rule="evenodd" d="M172.791 215.044C172.619 214.652 172.415 214.276 172.181 213.918L172.791 215.044Z" fill="url(#paint138_linear_3_182)"/>
<path fill-rule="evenodd" clip-rule="evenodd" d="M200.311 185.406L201.475 185.242C201.069 185.234 200.639 185.047 200.311 185.406Z" fill="url(#paint139_linear_3_182)"/>
<path fill-rule="evenodd" clip-rule="evenodd" d="M206.337 231.074L203.789 227.83C204.297 229.096 205.446 230.113 206.337 231.074Z" fill="url(#paint140_linear_3_182)"/>
<path fill-rule="evenodd" clip-rule="evenodd" d="M215.606 230.613C215.015 229.888 214.313 229.26 213.527 228.753L215.606 230.613Z" fill="url(#paint141_linear_3_182)"/>
<path fill-rule="evenodd" clip-rule="evenodd" d="M112.923 227.135L115.025 225.024C114.221 225.616 113.512 226.328 112.923 227.135Z" fill="url(#paint142_linear_3_182)"/>
<path fill-rule="evenodd" clip-rule="evenodd" d="M169.939 224.579L170.244 226.408C170.556 225.735 170.126 225.212 169.939 224.579Z" fill="url(#paint143_linear_3_182)"/>
<path fill-rule="evenodd" clip-rule="evenodd" d="M131.384 225.189L132.392 224.353C131.923 224.431 131.681 224.853 131.384 225.189Z" fill="url(#paint144_linear_3_182)"/>
<path fill-rule="evenodd" clip-rule="evenodd" d="M159.629 223.078C159.949 222.507 160.188 221.894 160.341 221.257L159.629 223.078Z" fill="url(#paint145_linear_3_182)"/>
<path fill-rule="evenodd" clip-rule="evenodd" d="M138.777 196.286C133.22 204.641 127.265 212.879 122.192 221.57L138.777 196.286Z" fill="url(#paint146_linear_3_182)"/>
<path fill-rule="evenodd" clip-rule="evenodd" d="M168.172 213.184L168.321 213.918C168.346 213.792 168.346 213.662 168.321 213.536C168.295 213.41 168.245 213.29 168.172 213.184Z" fill="url(#paint147_linear_3_182)"/>
<path fill-rule="evenodd" clip-rule="evenodd" d="M155.808 211.597H155.104C155.287 211.729 155.513 211.79 155.737 211.769C155.761 211.714 155.777 211.659 155.808 211.597Z" fill="url(#paint148_linear_3_182)"/>
<path fill-rule="evenodd" clip-rule="evenodd" d="M200.538 205.344L199.381 204.179C199.577 204.703 200.186 204.93 200.538 205.344Z" fill="url(#paint149_linear_3_182)"/>
<path fill-rule="evenodd" clip-rule="evenodd" d="M214.84 199.162C217.044 200.194 219.178 201.303 221.405 202.327L214.84 199.162Z" fill="url(#paint150_linear_3_182)"/>
<path fill-rule="evenodd" clip-rule="evenodd" d="M108.514 179.38L99.4793 183.093C102.555 182.017 105.571 180.778 108.514 179.38Z" fill="url(#paint151_linear_3_182)"/>
<path fill-rule="evenodd" clip-rule="evenodd" d="M105.036 133.65L108.546 135.057C107.417 134.49 106.243 134.02 105.036 133.65Z" fill="url(#paint152_linear_3_182)"/>
<path fill-rule="evenodd" clip-rule="evenodd" d="M100.769 132.446C101.171 132.618 101.594 132.733 102.027 132.79L100.769 132.446Z" fill="url(#paint153_linear_3_182)"/>
<path fill-rule="evenodd" clip-rule="evenodd" d="M99.4793 132.087L100.769 132.438C100.358 132.26 99.9238 132.142 99.4793 132.087Z" fill="url(#paint154_linear_3_182)"/>
<defs>
<linearGradient id="paint0_linear_3_182" x1="107.691" y1="238.608" x2="107.691" y2="239.538" gradientUnits="userSpaceOnUse">
<stop stop-color="#C039FF"/>
<stop offset="1" stop-color="#9327FF"/>
</linearGradient>
<linearGradient id="paint1_linear_3_182" x1="178.056" y1="237.752" x2="178.056" y2="238.533" gradientUnits="userSpaceOnUse">
<stop stop-color="#C039FF"/>
<stop offset="1" stop-color="#9327FF"/>
</linearGradient>
<linearGradient id="paint2_linear_3_182" x1="165.825" y1="233.392" x2="165.825" y2="234.474" gradientUnits="userSpaceOnUse">
<stop stop-color="#C039FF"/>
<stop offset="1" stop-color="#9327FF"/>
</linearGradient>
<linearGradient id="paint3_linear_3_182" x1="188.135" y1="227.713" x2="188.135" y2="228.68" gradientUnits="userSpaceOnUse">
<stop stop-color="#C039FF"/>
<stop offset="1" stop-color="#9327FF"/>
</linearGradient>
<linearGradient id="paint4_linear_3_182" x1="152.296" y1="219.359" x2="152.296" y2="220.523" gradientUnits="userSpaceOnUse">
<stop stop-color="#C039FF"/>
<stop offset="1" stop-color="#9327FF"/>
</linearGradient>
<linearGradient id="paint5_linear_3_182" x1="151.075" y1="218.436" x2="151.075" y2="218.905" gradientUnits="userSpaceOnUse">
<stop stop-color="#C039FF"/>
<stop offset="1" stop-color="#9327FF"/>
</linearGradient>
<linearGradient id="paint6_linear_3_182" x1="196.834" y1="215.886" x2="196.834" y2="216.575" gradientUnits="userSpaceOnUse">
<stop stop-color="#C039FF"/>
<stop offset="1" stop-color="#9327FF"/>
</linearGradient>
<linearGradient id="paint7_linear_3_182" x1="168.749" y1="215.421" x2="168.749" y2="216.356" gradientUnits="userSpaceOnUse">
<stop stop-color="#C039FF"/>
<stop offset="1" stop-color="#9327FF"/>
</linearGradient>
<linearGradient id="paint8_linear_3_182" x1="151.854" y1="214.271" x2="151.854" y2="215.427" gradientUnits="userSpaceOnUse">
<stop stop-color="#C039FF"/>
<stop offset="1" stop-color="#9327FF"/>
</linearGradient>
<linearGradient id="paint9_linear_3_182" x1="147.691" y1="213.569" x2="147.691" y2="214.04" gradientUnits="userSpaceOnUse">
<stop stop-color="#C039FF"/>
<stop offset="1" stop-color="#9327FF"/>
</linearGradient>
<linearGradient id="paint10_linear_3_182" x1="149.431" y1="209.5" x2="149.431" y2="212.183" gradientUnits="userSpaceOnUse">
<stop stop-color="#C039FF"/>
<stop offset="1" stop-color="#9327FF"/>
</linearGradient>
<linearGradient id="paint11_linear_3_182" x1="151.409" y1="207.773" x2="151.409" y2="210.792" gradientUnits="userSpaceOnUse">
<stop stop-color="#C039FF"/>
<stop offset="1" stop-color="#9327FF"/>
</linearGradient>
<linearGradient id="paint12_linear_3_182" x1="156.959" y1="209.166" x2="156.959" y2="210.111" gradientUnits="userSpaceOnUse">
<stop stop-color="#C039FF"/>
<stop offset="1" stop-color="#9327FF"/>
</linearGradient>
<linearGradient id="paint13_linear_3_182" x1="147.341" y1="209.16" x2="147.341" y2="209.878" gradientUnits="userSpaceOnUse">
<stop stop-color="#C039FF"/>
<stop offset="1" stop-color="#9327FF"/>
</linearGradient>
<linearGradient id="paint14_linear_3_182" x1="129.496" y1="198.951" x2="129.496" y2="199.43" gradientUnits="userSpaceOnUse">
<stop stop-color="#C039FF"/>
<stop offset="1" stop-color="#9327FF"/>
</linearGradient>
<linearGradient id="paint15_linear_3_182" x1="140.503" y1="195.764" x2="140.503" y2="196.419" gradientUnits="userSpaceOnUse">
<stop stop-color="#C039FF"/>
<stop offset="1" stop-color="#9327FF"/>
</linearGradient>
<linearGradient id="paint16_linear_3_182" x1="42.4887" y1="190.65" x2="42.4887" y2="192.019" gradientUnits="userSpaceOnUse">
<stop stop-color="#C039FF"/>
<stop offset="1" stop-color="#9327FF"/>
</linearGradient>
<linearGradient id="paint17_linear_3_182" x1="142.83" y1="186.214" x2="142.83" y2="186.68" gradientUnits="userSpaceOnUse">
<stop stop-color="#C039FF"/>
<stop offset="1" stop-color="#9327FF"/>
</linearGradient>
<linearGradient id="paint18_linear_3_182" x1="91.9412" y1="176.562" x2="91.9412" y2="178.919" gradientUnits="userSpaceOnUse">
<stop stop-color="#C039FF"/>
<stop offset="1" stop-color="#9327FF"/>
</linearGradient>
<linearGradient id="paint19_linear_3_182" x1="79.9752" y1="176.239" x2="79.9752" y2="177.984" gradientUnits="userSpaceOnUse">
<stop stop-color="#C039FF"/>
<stop offset="1" stop-color="#9327FF"/>
</linearGradient>
<linearGradient id="paint20_linear_3_182" x1="22.5173" y1="175.726" x2="22.5173" y2="177.566" gradientUnits="userSpaceOnUse">
<stop stop-color="#C039FF"/>
<stop offset="1" stop-color="#9327FF"/>
</linearGradient>
<linearGradient id="paint21_linear_3_182" x1="103.766" y1="169.768" x2="103.766" y2="173.002" gradientUnits="userSpaceOnUse">
<stop stop-color="#C039FF"/>
<stop offset="1" stop-color="#9327FF"/>
</linearGradient>
<linearGradient id="paint22_linear_3_182" x1="92.364" y1="168.602" x2="92.364" y2="171.38" gradientUnits="userSpaceOnUse">
<stop stop-color="#C039FF"/>
<stop offset="1" stop-color="#9327FF"/>
</linearGradient>
<linearGradient id="paint23_linear_3_182" x1="97.3841" y1="174.182" x2="97.3841" y2="175.718" gradientUnits="userSpaceOnUse">
<stop stop-color="#C039FF"/>
<stop offset="1" stop-color="#9327FF"/>
</linearGradient>
<linearGradient id="paint24_linear_3_182" x1="118.135" y1="170.454" x2="118.135" y2="173.932" gradientUnits="userSpaceOnUse">
<stop stop-color="#C039FF"/>
<stop offset="1" stop-color="#9327FF"/>
</linearGradient>
<linearGradient id="paint25_linear_3_182" x1="109.214" y1="172.833" x2="109.214" y2="173.989" gradientUnits="userSpaceOnUse">
<stop stop-color="#C039FF"/>
<stop offset="1" stop-color="#9327FF"/>
</linearGradient>
<linearGradient id="paint26_linear_3_182" x1="114.419" y1="172.145" x2="114.419" y2="173.015" gradientUnits="userSpaceOnUse">
<stop stop-color="#C039FF"/>
<stop offset="1" stop-color="#9327FF"/>
</linearGradient>
<linearGradient id="paint27_linear_3_182" x1="212.71" y1="171.611" x2="212.71" y2="171.846" gradientUnits="userSpaceOnUse">
<stop stop-color="#C039FF"/>
<stop offset="1" stop-color="#9327FF"/>
</linearGradient>
<linearGradient id="paint28_linear_3_182" x1="121.724" y1="171.118" x2="121.724" y2="171.413" gradientUnits="userSpaceOnUse">
<stop stop-color="#C039FF"/>
<stop offset="1" stop-color="#9327FF"/>
</linearGradient>
<linearGradient id="paint29_linear_3_182" x1="10.5781" y1="170.666" x2="10.5781" y2="171.4" gradientUnits="userSpaceOnUse">
<stop stop-color="#C039FF"/>
<stop offset="1" stop-color="#9327FF"/>
</linearGradient>
<linearGradient id="paint30_linear_3_182" x1="38.0472" y1="168.076" x2="38.0472" y2="169.113" gradientUnits="userSpaceOnUse">
<stop stop-color="#C039FF"/>
<stop offset="1" stop-color="#9327FF"/>
</linearGradient>
<linearGradient id="paint31_linear_3_182" x1="77.1023" y1="164.673" x2="77.1023" y2="165.523" gradientUnits="userSpaceOnUse">
<stop stop-color="#C039FF"/>
<stop offset="1" stop-color="#9327FF"/>
</linearGradient>
<linearGradient id="paint32_linear_3_182" x1="213.272" y1="160.295" x2="213.272" y2="161.004" gradientUnits="userSpaceOnUse">
<stop stop-color="#C039FF"/>
<stop offset="1" stop-color="#9327FF"/>
</linearGradient>
<linearGradient id="paint33_linear_3_182" x1="62.8503" y1="152.321" x2="62.8503" y2="153.101" gradientUnits="userSpaceOnUse">
<stop stop-color="#C039FF"/>
<stop offset="1" stop-color="#9327FF"/>
</linearGradient>
<linearGradient id="paint34_linear_3_182" x1="54.1548" y1="147.837" x2="54.1548" y2="149.696" gradientUnits="userSpaceOnUse">
<stop stop-color="#C039FF"/>
<stop offset="1" stop-color="#9327FF"/>
</linearGradient>
<linearGradient id="paint35_linear_3_182" x1="137.489" y1="148.432" x2="137.489" y2="149.131" gradientUnits="userSpaceOnUse">
<stop stop-color="#C039FF"/>
<stop offset="1" stop-color="#9327FF"/>
</linearGradient>
<linearGradient id="paint36_linear_3_182" x1="161.713" y1="146.606" x2="161.713" y2="147.038" gradientUnits="userSpaceOnUse">
<stop stop-color="#C039FF"/>
<stop offset="1" stop-color="#9327FF"/>
</linearGradient>
<linearGradient id="paint37_linear_3_182" x1="125.205" y1="137.769" x2="125.205" y2="138.465" gradientUnits="userSpaceOnUse">
<stop stop-color="#C039FF"/>
<stop offset="1" stop-color="#9327FF"/>
</linearGradient>
<linearGradient id="paint38_linear_3_182" x1="35.3826" y1="134.094" x2="35.3826" y2="134.76" gradientUnits="userSpaceOnUse">
<stop stop-color="#C039FF"/>
<stop offset="1" stop-color="#9327FF"/>
</linearGradient>
<linearGradient id="paint39_linear_3_182" x1="77.6853" y1="129.338" x2="77.6853" y2="132.9" gradientUnits="userSpaceOnUse">
<stop stop-color="#C039FF"/>
<stop offset="1" stop-color="#9327FF"/>
</linearGradient>
<linearGradient id="paint40_linear_3_182" x1="50.4347" y1="128.552" x2="50.4347" y2="131.188" gradientUnits="userSpaceOnUse">
<stop stop-color="#C039FF"/>
<stop offset="1" stop-color="#9327FF"/>
</linearGradient>
<linearGradient id="paint41_linear_3_182" x1="143.587" y1="125.717" x2="143.587" y2="126.874" gradientUnits="userSpaceOnUse">
<stop stop-color="#C039FF"/>
<stop offset="1" stop-color="#9327FF"/>
</linearGradient>
<linearGradient id="paint42_linear_3_182" x1="199.385" y1="120.709" x2="199.385" y2="123.167" gradientUnits="userSpaceOnUse">
<stop stop-color="#C039FF"/>
<stop offset="1" stop-color="#9327FF"/>
</linearGradient>
<linearGradient id="paint43_linear_3_182" x1="214.797" y1="112.573" x2="214.797" y2="117.604" gradientUnits="userSpaceOnUse">
<stop stop-color="#C039FF"/>
<stop offset="1" stop-color="#9327FF"/>
</linearGradient>
<linearGradient id="paint44_linear_3_182" x1="38.7377" y1="115.979" x2="38.7377" y2="116.674" gradientUnits="userSpaceOnUse">
<stop stop-color="#C039FF"/>
<stop offset="1" stop-color="#9327FF"/>
</linearGradient>
<linearGradient id="paint45_linear_3_182" x1="61.8064" y1="112.969" x2="61.8064" y2="113.43" gradientUnits="userSpaceOnUse">
<stop stop-color="#C039FF"/>
<stop offset="1" stop-color="#9327FF"/>
</linearGradient>
<linearGradient id="paint46_linear_3_182" x1="218.889" y1="111.117" x2="218.889" y2="111.805" gradientUnits="userSpaceOnUse">
<stop stop-color="#C039FF"/>
<stop offset="1" stop-color="#9327FF"/>
</linearGradient>
<linearGradient id="paint47_linear_3_182" x1="44.1889" y1="110.187" x2="44.1889" y2="110.908" gradientUnits="userSpaceOnUse">
<stop stop-color="#C039FF"/>
<stop offset="1" stop-color="#9327FF"/>
</linearGradient>
<linearGradient id="paint48_linear_3_182" x1="118.717" y1="108.557" x2="118.717" y2="109.257" gradientUnits="userSpaceOnUse">
<stop stop-color="#C039FF"/>
<stop offset="1" stop-color="#9327FF"/>
</linearGradient>
<linearGradient id="paint49_linear_3_182" x1="242.731" y1="102.905" x2="242.731" y2="108.804" gradientUnits="userSpaceOnUse">
<stop stop-color="#C039FF"/>
<stop offset="1" stop-color="#9327FF"/>
</linearGradient>
<linearGradient id="paint50_linear_3_182" x1="88.4629" y1="107.847" x2="88.4629" y2="108.796" gradientUnits="userSpaceOnUse">
<stop stop-color="#C039FF"/>
<stop offset="1" stop-color="#9327FF"/>
</linearGradient>
<linearGradient id="paint51_linear_3_182" x1="225.914" y1="103.914" x2="225.914" y2="105.083" gradientUnits="userSpaceOnUse">
<stop stop-color="#C039FF"/>
<stop offset="1" stop-color="#9327FF"/>
</linearGradient>
<linearGradient id="paint52_linear_3_182" x1="259.305" y1="94.8447" x2="259.305" y2="100.717" gradientUnits="userSpaceOnUse">
<stop stop-color="#C039FF"/>
<stop offset="1" stop-color="#9327FF"/>
</linearGradient>
<linearGradient id="paint53_linear_3_182" x1="262.137" y1="98.4385" x2="262.137" y2="99.0573" gradientUnits="userSpaceOnUse">
<stop stop-color="#C039FF"/>
<stop offset="1" stop-color="#9327FF"/>
</linearGradient>
<linearGradient id="paint54_linear_3_182" x1="218.065" y1="80.9517" x2="218.065" y2="87.4663" gradientUnits="userSpaceOnUse">
<stop stop-color="#C039FF"/>
<stop offset="1" stop-color="#9327FF"/>
</linearGradient>
<linearGradient id="paint55_linear_3_182" x1="266.952" y1="79.0234" x2="266.952" y2="81.6751" gradientUnits="userSpaceOnUse">
<stop stop-color="#C039FF"/>
<stop offset="1" stop-color="#9327FF"/>
</linearGradient>
<linearGradient id="paint56_linear_3_182" x1="243.223" y1="80.9656" x2="243.223" y2="83.9885" gradientUnits="userSpaceOnUse">
<stop stop-color="#C039FF"/>
<stop offset="1" stop-color="#9327FF"/>
</linearGradient>
<linearGradient id="paint57_linear_3_182" x1="283.521" y1="79.1165" x2="283.521" y2="83.5272" gradientUnits="userSpaceOnUse">
<stop stop-color="#C039FF"/>
<stop offset="1" stop-color="#9327FF"/>
</linearGradient>
<linearGradient id="paint58_linear_3_182" x1="210.28" y1="82.5845" x2="210.28" y2="83.4972" gradientUnits="userSpaceOnUse">
<stop stop-color="#C039FF"/>
<stop offset="1" stop-color="#9327FF"/>
</linearGradient>
<linearGradient id="paint59_linear_3_182" x1="206.252" y1="70.7798" x2="206.252" y2="74.2578" gradientUnits="userSpaceOnUse">
<stop stop-color="#C039FF"/>
<stop offset="1" stop-color="#9327FF"/>
</linearGradient>
<linearGradient id="paint60_linear_3_182" x1="276.739" y1="61.8135" x2="276.739" y2="62.4323" gradientUnits="userSpaceOnUse">
<stop stop-color="#C039FF"/>
<stop offset="1" stop-color="#9327FF"/>
</linearGradient>
<linearGradient id="paint61_linear_3_182" x1="266.608" y1="58.5791" x2="266.608" y2="59.8619" gradientUnits="userSpaceOnUse">
<stop stop-color="#C039FF"/>
<stop offset="1" stop-color="#9327FF"/>
</linearGradient>
<linearGradient id="paint62_linear_3_182" x1="282.959" y1="56.8169" x2="282.959" y2="59.2124" gradientUnits="userSpaceOnUse">
<stop stop-color="#C039FF"/>
<stop offset="1" stop-color="#9327FF"/>
</linearGradient>
<linearGradient id="paint63_linear_3_182" x1="258.148" y1="56.5974" x2="258.148" y2="57.5913" gradientUnits="userSpaceOnUse">
<stop stop-color="#C039FF"/>
<stop offset="1" stop-color="#9327FF"/>
</linearGradient>
<linearGradient id="paint64_linear_3_182" x1="174.212" y1="239.538" x2="174.212" y2="240.405" gradientUnits="userSpaceOnUse">
<stop stop-color="#C039FF"/>
<stop offset="1" stop-color="#9327FF"/>
</linearGradient>
<linearGradient id="paint65_linear_3_182" x1="168.571" y1="129.648" x2="168.571" y2="227.432" gradientUnits="userSpaceOnUse">
<stop stop-color="#C039FF"/>
<stop offset="1" stop-color="#9327FF"/>
</linearGradient>
<linearGradient id="paint66_linear_3_182" x1="170.374" y1="215.192" x2="170.374" y2="217.052" gradientUnits="userSpaceOnUse">
<stop stop-color="#C039FF"/>
<stop offset="1" stop-color="#9327FF"/>
</linearGradient>
<linearGradient id="paint67_linear_3_182" x1="163.043" y1="210.557" x2="163.043" y2="213.355" gradientUnits="userSpaceOnUse">
<stop stop-color="#C039FF"/>
<stop offset="1" stop-color="#9327FF"/>
</linearGradient>
<linearGradient id="paint68_linear_3_182" x1="143.652" y1="192.01" x2="143.652" y2="198.967" gradientUnits="userSpaceOnUse">
<stop stop-color="#C039FF"/>
<stop offset="1" stop-color="#9327FF"/>
</linearGradient>
<linearGradient id="paint69_linear_3_182" x1="148.011" y1="199.182" x2="148.011" y2="208.118" gradientUnits="userSpaceOnUse">
<stop stop-color="#C039FF"/>
<stop offset="1" stop-color="#9327FF"/>
</linearGradient>
<linearGradient id="paint70_linear_3_182" x1="127.058" y1="173.933" x2="127.058" y2="178.107" gradientUnits="userSpaceOnUse">
<stop stop-color="#C039FF"/>
<stop offset="1" stop-color="#9327FF"/>
</linearGradient>
<linearGradient id="paint71_linear_3_182" x1="122.193" y1="137.542" x2="122.193" y2="144.029" gradientUnits="userSpaceOnUse">
<stop stop-color="#C039FF"/>
<stop offset="1" stop-color="#9327FF"/>
</linearGradient>
<linearGradient id="paint72_linear_3_182" x1="194.397" y1="128.005" x2="194.397" y2="132.642" gradientUnits="userSpaceOnUse">
<stop stop-color="#C039FF"/>
<stop offset="1" stop-color="#9327FF"/>
</linearGradient>
<linearGradient id="paint73_linear_3_182" x1="193.286" y1="126.636" x2="193.286" y2="128.499" gradientUnits="userSpaceOnUse">
<stop stop-color="#C039FF"/>
<stop offset="1" stop-color="#9327FF"/>
</linearGradient>
<linearGradient id="paint74_linear_3_182" x1="217.237" y1="194.558" x2="217.237" y2="197.114" gradientUnits="userSpaceOnUse">
<stop stop-color="#C039FF"/>
<stop offset="1" stop-color="#9327FF"/>
</linearGradient>
<linearGradient id="paint75_linear_3_182" x1="117.373" y1="228.409" x2="117.373" y2="228.97" gradientUnits="userSpaceOnUse">
<stop stop-color="#C039FF"/>
<stop offset="1" stop-color="#9327FF"/>
</linearGradient>
<linearGradient id="paint76_linear_3_182" x1="153.082" y1="212.822" x2="153.082" y2="214.035" gradientUnits="userSpaceOnUse">
<stop stop-color="#C039FF"/>
<stop offset="1" stop-color="#9327FF"/>
</linearGradient>
<linearGradient id="paint77_linear_3_182" x1="195.672" y1="212.537" x2="195.672" y2="213.801" gradientUnits="userSpaceOnUse">
<stop stop-color="#C039FF"/>
<stop offset="1" stop-color="#9327FF"/>
</linearGradient>
<linearGradient id="paint78_linear_3_182" x1="161.237" y1="210.792" x2="161.237" y2="211.294" gradientUnits="userSpaceOnUse">
<stop stop-color="#C039FF"/>
<stop offset="1" stop-color="#9327FF"/>
</linearGradient>
<linearGradient id="paint79_linear_3_182" x1="201.878" y1="206.251" x2="201.878" y2="206.695" gradientUnits="userSpaceOnUse">
<stop stop-color="#C039FF"/>
<stop offset="1" stop-color="#9327FF"/>
</linearGradient>
<linearGradient id="paint80_linear_3_182" x1="218.128" y1="203.018" x2="218.128" y2="203.445" gradientUnits="userSpaceOnUse">
<stop stop-color="#C039FF"/>
<stop offset="1" stop-color="#9327FF"/>
</linearGradient>
<linearGradient id="paint81_linear_3_182" x1="201.933" y1="202.445" x2="201.933" y2="203.484" gradientUnits="userSpaceOnUse">
<stop stop-color="#C039FF"/>
<stop offset="1" stop-color="#9327FF"/>
</linearGradient>
<linearGradient id="paint82_linear_3_182" x1="213.063" y1="199.897" x2="213.063" y2="200.516" gradientUnits="userSpaceOnUse">
<stop stop-color="#C039FF"/>
<stop offset="1" stop-color="#9327FF"/>
</linearGradient>
<linearGradient id="paint83_linear_3_182" x1="103.649" y1="132.237" x2="103.649" y2="134.332" gradientUnits="userSpaceOnUse">
<stop stop-color="#C039FF"/>
<stop offset="1" stop-color="#9327FF"/>
</linearGradient>
<linearGradient id="paint84_linear_3_182" x1="175.797" y1="236.17" x2="175.797" y2="237.913" gradientUnits="userSpaceOnUse">
<stop stop-color="#C039FF"/>
<stop offset="1" stop-color="#9327FF"/>
</linearGradient>
<linearGradient id="paint85_linear_3_182" x1="110.253" y1="230.84" x2="110.253" y2="231.418" gradientUnits="userSpaceOnUse">
<stop stop-color="#C039FF"/>
<stop offset="1" stop-color="#9327FF"/>
</linearGradient>
<linearGradient id="paint86_linear_3_182" x1="147.732" y1="210.792" x2="147.732" y2="211.938" gradientUnits="userSpaceOnUse">
<stop stop-color="#C039FF"/>
<stop offset="1" stop-color="#9327FF"/>
</linearGradient>
<linearGradient id="paint87_linear_3_182" x1="152.271" y1="207.892" x2="152.271" y2="208.353" gradientUnits="userSpaceOnUse">
<stop stop-color="#C039FF"/>
<stop offset="1" stop-color="#9327FF"/>
</linearGradient>
<linearGradient id="paint88_linear_3_182" x1="149.414" y1="211.808" x2="149.414" y2="212.41" gradientUnits="userSpaceOnUse">
<stop stop-color="#C039FF"/>
<stop offset="1" stop-color="#9327FF"/>
</linearGradient>
<linearGradient id="paint89_linear_3_182" x1="96.7089" y1="183.843" x2="96.7089" y2="184.132" gradientUnits="userSpaceOnUse">
<stop stop-color="#C039FF"/>
<stop offset="1" stop-color="#9327FF"/>
</linearGradient>
<linearGradient id="paint90_linear_3_182" x1="95.1689" y1="170.572" x2="95.1689" y2="170.795" gradientUnits="userSpaceOnUse">
<stop stop-color="#C039FF"/>
<stop offset="1" stop-color="#9327FF"/>
</linearGradient>
<linearGradient id="paint91_linear_3_182" x1="96.904" y1="170.531" x2="96.904" y2="170.572" gradientUnits="userSpaceOnUse">
<stop stop-color="#C039FF"/>
<stop offset="1" stop-color="#9327FF"/>
</linearGradient>
<linearGradient id="paint92_linear_3_182" x1="111.527" y1="170.259" x2="111.527" y2="170.947" gradientUnits="userSpaceOnUse">
<stop stop-color="#C039FF"/>
<stop offset="1" stop-color="#9327FF"/>
</linearGradient>
<linearGradient id="paint93_linear_3_182" x1="105.966" y1="172.658" x2="105.966" y2="174.049" gradientUnits="userSpaceOnUse">
<stop stop-color="#C039FF"/>
<stop offset="1" stop-color="#9327FF"/>
</linearGradient>
<linearGradient id="paint94_linear_3_182" x1="102.664" y1="174.05" x2="102.664" y2="176.254" gradientUnits="userSpaceOnUse">
<stop stop-color="#C039FF"/>
<stop offset="1" stop-color="#9327FF"/>
</linearGradient>
<linearGradient id="paint95_linear_3_182" x1="102.546" y1="173.907" x2="102.546" y2="174.394" gradientUnits="userSpaceOnUse">
<stop stop-color="#C039FF"/>
<stop offset="1" stop-color="#9327FF"/>
</linearGradient>
<linearGradient id="paint96_linear_3_182" x1="112.649" y1="168.72" x2="112.649" y2="168.876" gradientUnits="userSpaceOnUse">
<stop stop-color="#C039FF"/>
<stop offset="1" stop-color="#9327FF"/>
</linearGradient>
<linearGradient id="paint97_linear_3_182" x1="186.946" y1="148" x2="186.946" y2="148.782" gradientUnits="userSpaceOnUse">
<stop stop-color="#C039FF"/>
<stop offset="1" stop-color="#9327FF"/>
</linearGradient>
<linearGradient id="paint98_linear_3_182" x1="82.9018" y1="132.477" x2="82.9018" y2="132.804" gradientUnits="userSpaceOnUse">
<stop stop-color="#C039FF"/>
<stop offset="1" stop-color="#9327FF"/>
</linearGradient>
<linearGradient id="paint99_linear_3_182" x1="111.007" y1="86.4272" x2="111.007" y2="86.779" gradientUnits="userSpaceOnUse">
<stop stop-color="#C039FF"/>
<stop offset="1" stop-color="#9327FF"/>
</linearGradient>
<linearGradient id="paint100_linear_3_182" x1="264.712" y1="81.3701" x2="264.712" y2="83.199" gradientUnits="userSpaceOnUse">
<stop stop-color="#C039FF"/>
<stop offset="1" stop-color="#9327FF"/>
</linearGradient>
<linearGradient id="paint101_linear_3_182" x1="171.161" y1="232.465" x2="171.161" y2="235.013" gradientUnits="userSpaceOnUse">
<stop stop-color="#C039FF"/>
<stop offset="1" stop-color="#9327FF"/>
</linearGradient>
<linearGradient id="paint102_linear_3_182" x1="185.671" y1="219.249" x2="185.671" y2="222.961" gradientUnits="userSpaceOnUse">
<stop stop-color="#C039FF"/>
<stop offset="1" stop-color="#9327FF"/>
</linearGradient>
<linearGradient id="paint103_linear_3_182" x1="173.783" y1="227.135" x2="173.783" y2="233.974" gradientUnits="userSpaceOnUse">
<stop stop-color="#C039FF"/>
<stop offset="1" stop-color="#9327FF"/>
</linearGradient>
<linearGradient id="paint104_linear_3_182" x1="170.906" y1="214.614" x2="170.906" y2="215.544" gradientUnits="userSpaceOnUse">
<stop stop-color="#C039FF"/>
<stop offset="1" stop-color="#9327FF"/>
</linearGradient>
<linearGradient id="paint105_linear_3_182" x1="162.785" y1="207.431" x2="162.785" y2="210.901" gradientUnits="userSpaceOnUse">
<stop stop-color="#C039FF"/>
<stop offset="1" stop-color="#9327FF"/>
</linearGradient>
<linearGradient id="paint106_linear_3_182" x1="161.611" y1="212.066" x2="161.611" y2="214.848" gradientUnits="userSpaceOnUse">
<stop stop-color="#C039FF"/>
<stop offset="1" stop-color="#9327FF"/>
</linearGradient>
<linearGradient id="paint107_linear_3_182" x1="159.105" y1="204.992" x2="159.105" y2="206.962" gradientUnits="userSpaceOnUse">
<stop stop-color="#C039FF"/>
<stop offset="1" stop-color="#9327FF"/>
</linearGradient>
<linearGradient id="paint108_linear_3_182" x1="154.725" y1="200.584" x2="154.725" y2="202.21" gradientUnits="userSpaceOnUse">
<stop stop-color="#C039FF"/>
<stop offset="1" stop-color="#9327FF"/>
</linearGradient>
<linearGradient id="paint109_linear_3_182" x1="149.661" y1="192.823" x2="149.661" y2="194.449" gradientUnits="userSpaceOnUse">
<stop stop-color="#C039FF"/>
<stop offset="1" stop-color="#9327FF"/>
</linearGradient>
<linearGradient id="paint110_linear_3_182" x1="148.109" y1="187.837" x2="148.109" y2="188.619" gradientUnits="userSpaceOnUse">
<stop stop-color="#C039FF"/>
<stop offset="1" stop-color="#9327FF"/>
</linearGradient>
<linearGradient id="paint111_linear_3_182" x1="145.291" y1="185.64" x2="145.291" y2="187.204" gradientUnits="userSpaceOnUse">
<stop stop-color="#C039FF"/>
<stop offset="1" stop-color="#9327FF"/>
</linearGradient>
<linearGradient id="paint112_linear_3_182" x1="143.896" y1="187.235" x2="143.896" y2="189.775" gradientUnits="userSpaceOnUse">
<stop stop-color="#C039FF"/>
<stop offset="1" stop-color="#9327FF"/>
</linearGradient>
<linearGradient id="paint113_linear_3_182" x1="143.387" y1="189.775" x2="143.387" y2="192.362" gradientUnits="userSpaceOnUse">
<stop stop-color="#C039FF"/>
<stop offset="1" stop-color="#9327FF"/>
</linearGradient>
<linearGradient id="paint114_linear_3_182" x1="145.545" y1="199.662" x2="145.545" y2="200.033" gradientUnits="userSpaceOnUse">
<stop stop-color="#C039FF"/>
<stop offset="1" stop-color="#9327FF"/>
</linearGradient>
<linearGradient id="paint115_linear_3_182" x1="144.561" y1="198.88" x2="144.561" y2="199.671" gradientUnits="userSpaceOnUse">
<stop stop-color="#C039FF"/>
<stop offset="1" stop-color="#9327FF"/>
</linearGradient>
<linearGradient id="paint116_linear_3_182" x1="142.45" y1="189.306" x2="142.45" y2="189.775" gradientUnits="userSpaceOnUse">
<stop stop-color="#C039FF"/>
<stop offset="1" stop-color="#9327FF"/>
</linearGradient>
<linearGradient id="paint117_linear_3_182" x1="139.153" y1="187.118" x2="139.153" y2="189.306" gradientUnits="userSpaceOnUse">
<stop stop-color="#C039FF"/>
<stop offset="1" stop-color="#9327FF"/>
</linearGradient>
<linearGradient id="paint118_linear_3_182" x1="135.448" y1="186.336" x2="135.448" y2="187.118" gradientUnits="userSpaceOnUse">
<stop stop-color="#C039FF"/>
<stop offset="1" stop-color="#9327FF"/>
</linearGradient>
<linearGradient id="paint119_linear_3_182" x1="127.624" y1="171.501" x2="127.624" y2="171.822" gradientUnits="userSpaceOnUse">
<stop stop-color="#C039FF"/>
<stop offset="1" stop-color="#9327FF"/>
</linearGradient>
<linearGradient id="paint120_linear_3_182" x1="117.787" y1="137.41" x2="117.787" y2="137.886" gradientUnits="userSpaceOnUse">
<stop stop-color="#C039FF"/>
<stop offset="1" stop-color="#9327FF"/>
</linearGradient>
<linearGradient id="paint121_linear_3_182" x1="142.427" y1="153.033" x2="142.427" y2="153.533" gradientUnits="userSpaceOnUse">
<stop stop-color="#C039FF"/>
<stop offset="1" stop-color="#9327FF"/>
</linearGradient>
<linearGradient id="paint122_linear_3_182" x1="191.029" y1="134.001" x2="191.029" y2="135.565" gradientUnits="userSpaceOnUse">
<stop stop-color="#C039FF"/>
<stop offset="1" stop-color="#9327FF"/>
</linearGradient>
<linearGradient id="paint123_linear_3_182" x1="191.96" y1="132.321" x2="191.96" y2="133.97" gradientUnits="userSpaceOnUse">
<stop stop-color="#C039FF"/>
<stop offset="1" stop-color="#9327FF"/>
</linearGradient>
<linearGradient id="paint124_linear_3_182" x1="187.622" y1="142.756" x2="187.622" y2="143.1" gradientUnits="userSpaceOnUse">
<stop stop-color="#C039FF"/>
<stop offset="1" stop-color="#9327FF"/>
</linearGradient>
<linearGradient id="paint125_linear_3_182" x1="207.556" y1="171.574" x2="207.556" y2="172.885" gradientUnits="userSpaceOnUse">
<stop stop-color="#C039FF"/>
<stop offset="1" stop-color="#9327FF"/>
</linearGradient>
<linearGradient id="paint126_linear_3_182" x1="202.393" y1="184.945" x2="202.393" y2="185.171" gradientUnits="userSpaceOnUse">
<stop stop-color="#C039FF"/>
<stop offset="1" stop-color="#9327FF"/>
</linearGradient>
<linearGradient id="paint127_linear_3_182" x1="204.633" y1="187.261" x2="204.633" y2="187.376" gradientUnits="userSpaceOnUse">
<stop stop-color="#C039FF"/>
<stop offset="1" stop-color="#9327FF"/>
</linearGradient>
<linearGradient id="paint128_linear_3_182" x1="220.53" y1="197.372" x2="220.53" y2="198.153" gradientUnits="userSpaceOnUse">
<stop stop-color="#C039FF"/>
<stop offset="1" stop-color="#9327FF"/>
</linearGradient>
<linearGradient id="paint129_linear_3_182" x1="211.186" y1="191.901" x2="211.186" y2="192.878" gradientUnits="userSpaceOnUse">
<stop stop-color="#C039FF"/>
<stop offset="1" stop-color="#9327FF"/>
</linearGradient>
<linearGradient id="paint130_linear_3_182" x1="213.965" y1="192.878" x2="213.965" y2="194.91" gradientUnits="userSpaceOnUse">
<stop stop-color="#C039FF"/>
<stop offset="1" stop-color="#9327FF"/>
</linearGradient>
<linearGradient id="paint131_linear_3_182" x1="207.728" y1="193.519" x2="207.728" y2="193.98" gradientUnits="userSpaceOnUse">
<stop stop-color="#C039FF"/>
<stop offset="1" stop-color="#9327FF"/>
</linearGradient>
<linearGradient id="paint132_linear_3_182" x1="208.771" y1="196.762" x2="208.771" y2="197.692" gradientUnits="userSpaceOnUse">
<stop stop-color="#C039FF"/>
<stop offset="1" stop-color="#9327FF"/>
</linearGradient>
<linearGradient id="paint133_linear_3_182" x1="202.636" y1="195.142" x2="202.636" y2="195.575" gradientUnits="userSpaceOnUse">
<stop stop-color="#C039FF"/>
<stop offset="1" stop-color="#9327FF"/>
</linearGradient>
<linearGradient id="paint134_linear_3_182" x1="201.764" y1="212.097" x2="201.764" y2="218.756" gradientUnits="userSpaceOnUse">
<stop stop-color="#C039FF"/>
<stop offset="1" stop-color="#9327FF"/>
</linearGradient>
<linearGradient id="paint135_linear_3_182" x1="193.589" y1="208.353" x2="193.589" y2="210.213" gradientUnits="userSpaceOnUse">
<stop stop-color="#C039FF"/>
<stop offset="1" stop-color="#9327FF"/>
</linearGradient>
<linearGradient id="paint136_linear_3_182" x1="192.385" y1="210.557" x2="192.385" y2="213.684" gradientUnits="userSpaceOnUse">
<stop stop-color="#C039FF"/>
<stop offset="1" stop-color="#9327FF"/>
</linearGradient>
<linearGradient id="paint137_linear_3_182" x1="170.005" y1="214.153" x2="170.005" y2="215.544" gradientUnits="userSpaceOnUse">
<stop stop-color="#C039FF"/>
<stop offset="1" stop-color="#9327FF"/>
</linearGradient>
<linearGradient id="paint138_linear_3_182" x1="172.486" y1="213.918" x2="172.486" y2="215.044" gradientUnits="userSpaceOnUse">
<stop stop-color="#C039FF"/>
<stop offset="1" stop-color="#9327FF"/>
</linearGradient>
<linearGradient id="paint139_linear_3_182" x1="200.893" y1="185.186" x2="200.893" y2="185.406" gradientUnits="userSpaceOnUse">
<stop stop-color="#C039FF"/>
<stop offset="1" stop-color="#9327FF"/>
</linearGradient>
<linearGradient id="paint140_linear_3_182" x1="205.063" y1="227.83" x2="205.063" y2="231.074" gradientUnits="userSpaceOnUse">
<stop stop-color="#C039FF"/>
<stop offset="1" stop-color="#9327FF"/>
</linearGradient>
<linearGradient id="paint141_linear_3_182" x1="214.566" y1="228.753" x2="214.566" y2="230.613" gradientUnits="userSpaceOnUse">
<stop stop-color="#C039FF"/>
<stop offset="1" stop-color="#9327FF"/>
</linearGradient>
<linearGradient id="paint142_linear_3_182" x1="113.974" y1="225.024" x2="113.974" y2="227.135" gradientUnits="userSpaceOnUse">
<stop stop-color="#C039FF"/>
<stop offset="1" stop-color="#9327FF"/>
</linearGradient>
<linearGradient id="paint143_linear_3_182" x1="170.146" y1="224.579" x2="170.146" y2="226.408" gradientUnits="userSpaceOnUse">
<stop stop-color="#C039FF"/>
<stop offset="1" stop-color="#9327FF"/>
</linearGradient>
<linearGradient id="paint144_linear_3_182" x1="131.888" y1="224.353" x2="131.888" y2="225.189" gradientUnits="userSpaceOnUse">
<stop stop-color="#C039FF"/>
<stop offset="1" stop-color="#9327FF"/>
</linearGradient>
<linearGradient id="paint145_linear_3_182" x1="159.985" y1="221.257" x2="159.985" y2="223.078" gradientUnits="userSpaceOnUse">
<stop stop-color="#C039FF"/>
<stop offset="1" stop-color="#9327FF"/>
</linearGradient>
<linearGradient id="paint146_linear_3_182" x1="130.485" y1="196.286" x2="130.485" y2="221.57" gradientUnits="userSpaceOnUse">
<stop stop-color="#C039FF"/>
<stop offset="1" stop-color="#9327FF"/>
</linearGradient>
<linearGradient id="paint147_linear_3_182" x1="168.256" y1="213.184" x2="168.256" y2="213.918" gradientUnits="userSpaceOnUse">
<stop stop-color="#C039FF"/>
<stop offset="1" stop-color="#9327FF"/>
</linearGradient>
<linearGradient id="paint148_linear_3_182" x1="155.456" y1="211.597" x2="155.456" y2="211.773" gradientUnits="userSpaceOnUse">
<stop stop-color="#C039FF"/>
<stop offset="1" stop-color="#9327FF"/>
</linearGradient>
<linearGradient id="paint149_linear_3_182" x1="199.96" y1="204.179" x2="199.96" y2="205.344" gradientUnits="userSpaceOnUse">
<stop stop-color="#C039FF"/>
<stop offset="1" stop-color="#9327FF"/>
</linearGradient>
<linearGradient id="paint150_linear_3_182" x1="218.122" y1="199.162" x2="218.122" y2="202.327" gradientUnits="userSpaceOnUse">
<stop stop-color="#C039FF"/>
<stop offset="1" stop-color="#9327FF"/>
</linearGradient>
<linearGradient id="paint151_linear_3_182" x1="103.997" y1="179.38" x2="103.997" y2="183.093" gradientUnits="userSpaceOnUse">
<stop stop-color="#C039FF"/>
<stop offset="1" stop-color="#9327FF"/>
</linearGradient>
<linearGradient id="paint152_linear_3_182" x1="106.791" y1="133.65" x2="106.791" y2="135.057" gradientUnits="userSpaceOnUse">
<stop stop-color="#C039FF"/>
<stop offset="1" stop-color="#9327FF"/>
</linearGradient>
<linearGradient id="paint153_linear_3_182" x1="101.398" y1="132.446" x2="101.398" y2="132.79" gradientUnits="userSpaceOnUse">
<stop stop-color="#C039FF"/>
<stop offset="1" stop-color="#9327FF"/>
</linearGradient>
<linearGradient id="paint154_linear_3_182" x1="100.124" y1="132.087" x2="100.124" y2="132.438" gradientUnits="userSpaceOnUse">
<stop stop-color="#C039FF"/>
<stop offset="1" stop-color="#9327FF"/>
</linearGradient>
</defs>
</svg>
