<svg width="74" height="74" viewBox="0 0 74 74" fill="none" xmlns="http://www.w3.org/2000/svg">
<path fill-rule="evenodd" clip-rule="evenodd" d="M37.0003 6.16602C19.9649 6.16602 6.16699 19.9639 6.16699 36.9993C6.16699 50.6431 14.993 62.1671 27.2493 66.2525C28.791 66.5223 29.3691 65.5973 29.3691 64.7879C29.3691 64.0556 29.3305 61.6275 29.3305 59.0452C21.5837 60.4712 19.5795 57.1566 18.9628 55.4223C18.616 54.5358 17.1128 51.7993 15.8024 51.0671C14.7232 50.4889 13.1816 49.0629 15.7639 49.0243C18.192 48.9858 19.9264 51.2598 20.5045 52.1848C23.2795 56.8483 27.7118 55.5379 29.4847 54.7285C29.7545 52.7243 30.5639 51.3754 31.4503 50.6046C24.5899 49.8337 17.4212 47.1743 17.4212 35.3806C17.4212 32.0275 18.616 29.2525 20.5816 27.0941C20.2732 26.3233 19.1941 23.1629 20.8899 18.9233C20.8899 18.9233 23.4722 18.1139 29.3691 22.0837C31.8357 21.39 34.4566 21.0431 37.0774 21.0431C39.6982 21.0431 42.3191 21.39 44.7857 22.0837C50.6826 18.0754 53.2649 18.9233 53.2649 18.9233C54.9607 23.1629 53.8816 26.3233 53.5732 27.0941C55.5389 29.2525 56.7337 31.9889 56.7337 35.3806C56.7337 47.2129 49.5264 49.8337 42.666 50.6046C43.7837 51.5681 44.7472 53.4181 44.7472 56.3087C44.7472 60.4327 44.7087 63.7473 44.7087 64.7879C44.7087 65.5973 45.2868 66.5608 46.8285 66.2525C52.9494 64.1861 58.2683 60.2522 62.0364 55.0046C65.8044 49.7569 67.832 43.4597 67.8337 36.9993C67.8337 19.9639 54.0357 6.16602 37.0003 6.16602Z" fill="white"/>
</svg>
