<svg width="347" height="347" viewBox="0 0 347 347" fill="none" xmlns="http://www.w3.org/2000/svg">
<g filter="url(#filter0_d_3_781)">
<path d="M167.776 98.0933C162.734 98.6606 160.528 99.0073 157.376 99.7006C129.012 105.909 106.919 127.435 100.017 155.641C98.3782 162.291 98 165.79 98 173.543C98 181.295 98.3782 184.794 100.017 191.444C102.916 203.262 108.274 213.694 116.248 222.96C128.287 236.984 145.116 245.998 163.994 248.614C167.871 249.149 179.059 249.118 182.904 248.582C204.902 245.557 223.591 234.116 235.819 216.247C242.343 206.697 246.472 196.171 248.331 184.195C249.119 179.247 249.119 167.87 248.363 162.922C245.778 146.502 238.498 131.878 227.215 120.47C215.586 108.683 201.057 101.339 184.259 98.6921C181.328 98.2194 170.14 97.8097 167.776 98.0933ZM175.466 128.632C176.002 128.884 185.331 137.993 196.204 148.897C213.632 166.325 215.964 168.784 216.153 169.824C216.469 171.557 216.09 173.101 215.019 174.33C213.569 175.969 211.457 176.442 209.314 175.591C208.81 175.402 208.779 176.41 208.684 190.624L208.59 205.846L207.676 207.643C206.573 209.817 204.713 211.677 202.444 212.843L200.711 213.725H173.449H146.188L144.392 212.843C142.28 211.771 139.979 209.439 139.002 207.359C138.309 205.878 138.309 205.594 138.214 190.624C138.12 176.41 138.088 175.402 137.584 175.591C133.676 177.135 129.989 174.015 130.745 169.824C130.934 168.784 133.235 166.357 150.695 148.897C161.536 138.024 170.865 128.916 171.401 128.632C172.63 128.033 174.206 128.033 175.466 128.632Z" fill="url(#paint0_linear_3_781)"/>
<path d="M160.749 152.994L148.237 165.506L148.3 184.573L148.394 203.641H173.45H198.505L198.599 184.573L198.662 165.506L186.151 152.994C179.249 146.092 173.544 140.451 173.45 140.451C173.355 140.451 167.651 146.092 160.749 152.994Z" fill="url(#paint1_linear_3_781)"/>
</g>
<defs>
<filter id="filter0_d_3_781" x="0" y="0" width="346.926" height="347" filterUnits="userSpaceOnUse" color-interpolation-filters="sRGB">
<feFlood flood-opacity="0" result="BackgroundImageFix"/>
<feColorMatrix in="SourceAlpha" type="matrix" values="0 0 0 0 0 0 0 0 0 0 0 0 0 0 0 0 0 0 127 0" result="hardAlpha"/>
<feOffset/>
<feGaussianBlur stdDeviation="49"/>
<feComposite in2="hardAlpha" operator="out"/>
<feColorMatrix type="matrix" values="0 0 0 0 0 0 0 0 0 0 0 0 0 0 0 0 0 0 0.2 0"/>
<feBlend mode="normal" in2="BackgroundImageFix" result="effect1_dropShadow_3_781"/>
<feBlend mode="normal" in="SourceGraphic" in2="effect1_dropShadow_3_781" result="shape"/>
</filter>
<linearGradient id="paint0_linear_3_781" x1="173.463" y1="249" x2="173.463" y2="98" gradientUnits="userSpaceOnUse">
<stop stop-color="#FF54B0"/>
<stop offset="1" stop-color="#FF76E5"/>
</linearGradient>
<linearGradient id="paint1_linear_3_781" x1="173.45" y1="203.641" x2="173.45" y2="140.451" gradientUnits="userSpaceOnUse">
<stop stop-color="#FF54B0"/>
<stop offset="1" stop-color="#FF76E5"/>
</linearGradient>
</defs>
</svg>
