<svg width="74" height="74" viewBox="0 0 74 74" fill="none" xmlns="http://www.w3.org/2000/svg">
<path d="M41.345 37.7619C41.345 48.4001 32.7797 57.0244 22.2137 57.0244C11.6476 57.0244 3.08301 48.4027 3.08301 37.7619C3.08301 27.1211 11.6482 18.5 22.2137 18.5C32.7791 18.5 41.345 27.1237 41.345 37.7619ZM62.3323 37.7619C62.3323 47.7764 58.0493 55.8941 52.7666 55.8941C47.4839 55.8941 43.2009 47.7738 43.2009 37.7619C43.2009 27.7499 47.4839 19.6297 52.7666 19.6297C58.0493 19.6297 62.3323 27.7499 62.3323 37.7619ZM70.9163 37.7619C70.9163 46.7344 69.4099 54.0076 67.552 54.0076C65.694 54.0076 64.1876 46.7318 64.1876 37.7619C64.1876 28.7919 65.694 21.5162 67.5526 21.5162C69.4112 21.5162 70.9163 28.79 70.9163 37.7619Z" fill="white"/>
</svg>
