<svg width="347" height="347" viewBox="0 0 347 347" fill="none" xmlns="http://www.w3.org/2000/svg">
<g filter="url(#filter0_d_3_779)">
<path d="M167.429 98.0756C156.778 99.1642 148.805 101.371 140.067 105.667C132.446 109.403 126.856 113.375 120.677 119.348C114.263 125.615 109.585 132.058 105.613 140.12C101.906 147.711 99.6403 155.155 98.3751 163.952C97.875 167.424 97.875 179.016 98.3751 182.488C99.6403 191.344 101.906 198.759 105.642 206.32C113.116 221.473 124.796 233.183 139.772 240.597C145.539 243.451 149.04 244.746 154.778 246.187C169.283 249.836 183.876 249.189 198.176 244.275C202.295 242.863 210.533 238.773 214.358 236.213C223.243 230.329 231.335 222.061 237.131 212.94C239.249 209.616 242.662 202.554 244.045 198.641C251.018 179.046 249.753 158.244 240.514 139.708C236.572 131.794 231.864 125.38 225.332 119.083C219.154 113.081 214.005 109.491 205.972 105.519C198.97 102.077 191.556 99.7821 183.641 98.6052C180.787 98.1933 169.871 97.8402 167.429 98.0756ZM177.521 139.973C185.877 141.032 194.115 145.681 199.294 152.271C199.97 153.125 200.588 153.831 200.706 153.831C200.824 153.831 201.177 153.007 201.5 152.007C202.206 149.623 202.736 148.888 204.089 148.182C207.238 146.593 210.827 148.682 210.827 152.066C210.827 152.919 209.944 156.42 208.473 161.334C206.237 168.954 206.09 169.278 204.972 170.337C203.06 172.161 202.765 172.132 193.409 169.366C184.818 166.836 183.906 166.424 183.023 164.658C182.346 163.393 182.464 161.422 183.258 160.274C184.847 157.921 186.73 157.479 190.32 158.597C191.556 159.009 192.585 159.215 192.585 159.097C192.585 158.98 191.762 158.009 190.791 156.92C187.731 153.566 183.788 151.153 179.434 149.918C175.962 148.947 170.43 149.006 166.9 150.094C161.633 151.683 157.602 154.508 154.395 158.862C151.953 162.187 148.364 162.304 146.186 159.097C145.068 157.479 145.245 155.714 146.745 153.478C147.452 152.448 149.011 150.594 150.217 149.388C157.455 142.18 167.488 138.737 177.521 139.973ZM153.277 177.251C157.455 178.516 161.309 179.781 161.81 180.134C164.516 181.929 164.281 186.284 161.398 187.902C160.015 188.667 158.544 188.667 156.161 187.931C153.718 187.166 153.601 187.196 154.307 188.196C156.249 190.932 160.662 194.287 164.134 195.669C168.518 197.435 174.491 197.817 178.904 196.611C183.612 195.316 188.26 192.256 191.202 188.52C192.997 186.225 194.733 184.989 196.087 184.989C197.322 184.989 199.411 186.195 200.176 187.343C200.765 188.196 200.853 188.667 200.765 190.05C200.647 191.55 200.471 191.933 198.97 193.904C191.703 203.407 179.522 208.233 167.694 206.32C159.103 204.937 151.188 199.994 145.98 192.786C145.598 192.256 145.539 192.374 144.951 194.316C143.95 197.641 142.656 198.818 139.978 198.818C137.448 198.818 135.388 196.787 135.418 194.287C135.418 193.639 136.506 189.52 137.801 185.166C140.39 176.515 140.861 175.662 143.126 175.044C144.509 174.662 144.362 174.632 153.277 177.251Z" fill="url(#paint0_linear_3_779)"/>
</g>
<defs>
<filter id="filter0_d_3_779" x="0" y="0.00012207" width="346.492" height="346.514" filterUnits="userSpaceOnUse" color-interpolation-filters="sRGB">
<feFlood flood-opacity="0" result="BackgroundImageFix"/>
<feColorMatrix in="SourceAlpha" type="matrix" values="0 0 0 0 0 0 0 0 0 0 0 0 0 0 0 0 0 0 127 0" result="hardAlpha"/>
<feOffset/>
<feGaussianBlur stdDeviation="49"/>
<feComposite in2="hardAlpha" operator="out"/>
<feColorMatrix type="matrix" values="0 0 0 0 0 0 0 0 0 0 0 0 0 0 0 0 0 0 0.2 0"/>
<feBlend mode="normal" in2="BackgroundImageFix" result="effect1_dropShadow_3_779"/>
<feBlend mode="normal" in="SourceGraphic" in2="effect1_dropShadow_3_779" result="shape"/>
</filter>
<linearGradient id="paint0_linear_3_779" x1="173.246" y1="248.514" x2="173.246" y2="98.0001" gradientUnits="userSpaceOnUse">
<stop stop-color="#FF54B0"/>
<stop offset="1" stop-color="#FF76E5"/>
</linearGradient>
</defs>
</svg>
