<svg width="73" height="74" viewBox="0 0 73 74" fill="none" xmlns="http://www.w3.org/2000/svg">
<path fill-rule="evenodd" clip-rule="evenodd" d="M66.9163 36.9994C66.9163 54.0281 53.2983 67.8327 36.4997 67.8327C19.701 67.8327 6.08301 54.0281 6.08301 36.9994C6.08301 19.9706 19.701 6.16602 36.4997 6.16602C53.2983 6.16602 66.9163 19.9706 66.9163 36.9994ZM37.5896 28.9285C34.6312 30.1759 28.7184 32.7577 19.8513 36.6739C18.4114 37.2543 17.6572 37.8221 17.5885 38.3774C17.4725 39.3157 18.6317 39.6852 20.2102 40.1884C20.4249 40.2568 20.6474 40.3277 20.8755 40.4029C22.4285 40.9146 24.5176 41.5133 25.6036 41.5371C26.5887 41.5587 27.6883 41.147 28.9022 40.302C37.187 34.6329 41.4636 31.7675 41.7321 31.7057C41.9215 31.6621 42.184 31.6073 42.3619 31.7676C42.5397 31.9278 42.5222 32.2313 42.5034 32.3127C42.3885 32.809 37.8382 37.0973 35.4835 39.3165C34.7494 40.0083 34.2287 40.499 34.1223 40.6111C33.8838 40.8621 33.6408 41.0996 33.4072 41.3279C31.9644 42.7378 30.8825 43.7951 33.4671 45.5217C34.7092 46.3514 35.7031 47.0375 36.6947 47.722C37.7776 48.4696 38.8577 49.2152 40.2551 50.1438C40.6112 50.3804 40.9512 50.6261 41.2824 50.8655C42.5426 51.7762 43.6748 52.5944 45.0736 52.4639C45.8863 52.3881 46.7259 51.6134 47.1523 49.3028C48.1599 43.8422 50.1406 32.0107 50.5983 27.1352C50.6384 26.708 50.588 26.1614 50.5475 25.9214C50.5069 25.6814 50.4223 25.3395 50.1146 25.0864C49.7501 24.7866 49.1875 24.7234 48.9359 24.7277C47.7919 24.7483 46.0367 25.367 37.5896 28.9285Z" fill="white"/>
</svg>
