<svg width="74" height="74" viewBox="0 0 74 74" fill="none" xmlns="http://www.w3.org/2000/svg">
<path d="M67.8337 18.2682C65.5659 19.273 63.1298 19.952 60.5687 20.2589C63.1814 18.6946 65.1857 16.2123 66.1308 13.2574C63.6865 14.7077 60.9788 15.7614 58.0973 16.3263C55.7888 13.8712 52.5025 12.334 48.8633 12.334C41.878 12.334 36.2127 17.9993 36.2127 24.99C36.2127 25.9785 36.3268 26.94 36.5386 27.8688C26.02 27.3392 16.7019 22.3012 10.4608 14.6479C9.37444 16.5219 8.74979 18.6946 8.74979 21.0085C8.74979 25.3973 10.985 29.2729 14.3771 31.5407C12.3022 31.4728 10.3522 30.9051 8.64659 29.9573V30.1203C8.64659 36.25 13.0056 41.364 18.7958 42.5264C17.7312 42.8143 16.615 42.9663 15.4634 42.9663C14.6487 42.9663 13.8529 42.8903 13.0816 42.7436C14.6921 47.768 19.3634 51.429 24.9011 51.5268C20.5693 54.9216 15.1131 56.945 9.18705 56.945C8.16588 56.945 7.15829 56.8852 6.16699 56.7684C11.7671 60.3615 18.4156 62.4528 25.5583 62.4528C48.8334 62.4528 61.5573 43.1755 61.5573 26.4565C61.5573 25.9134 61.5437 25.3648 61.5193 24.8216C63.9907 23.0345 66.1362 20.8102 67.8282 18.2763L67.8337 18.2682Z" fill="white"/>
</svg>
