<svg width="228" height="115" viewBox="0 0 228 115" fill="none" xmlns="http://www.w3.org/2000/svg">
<path d="M51.8162 0.904778C44.401 1.77047 38.1846 3.46063 32.2791 6.22262C16.3829 13.6841 5.32668 28.1536 1.81888 46.2096C0.708812 51.8985 0.708812 63.1938 1.81888 68.8827C6.39234 92.3389 23.3097 109.117 46.8431 113.487C49.5517 113.981 52.8374 114.188 57.8105 114.188C64.1157 114.188 65.4478 114.064 69.7992 113.033C81.6547 110.271 92.0893 103.964 102.169 93.5344L103.456 92.2153L101.014 88.3815C99.6378 86.2791 97.5064 82.7338 96.2188 80.549L93.9098 76.509L91.9117 79.1061C88.9812 82.775 81.4327 89.6182 77.7473 91.8443C69.3996 96.9148 60.6523 98.8523 51.9494 97.5331C35.3428 95.0597 23.3985 83.9705 19.5799 67.4398C19.0027 64.8839 18.7807 62.1632 18.7807 57.5461C18.7807 48.4769 20.468 41.9636 24.5974 35.1204C32.5011 22.0937 48.3084 15.0445 63.4941 17.724C71.2645 19.1257 78.0581 22.8358 85.3401 29.6789C94.3539 38.0885 100.748 47.7761 107.097 62.6991C117.177 86.3203 133.695 104.129 151.766 110.848C158.693 113.445 163 114.188 171.037 114.188C176.01 114.188 179.296 113.981 182.005 113.487C205.538 109.117 222.455 92.3389 227.029 68.8827C228.139 63.1938 228.139 51.8985 227.029 46.2096C223.521 28.1536 212.465 13.6841 196.569 6.22262C181.028 -1.03275 161.89 -1.07397 147.726 6.09895C139.556 10.2625 134.538 14.0139 126.901 21.764L125.391 23.2892L128.499 28.1536C130.231 30.8332 132.362 34.3784 133.251 36.0274L134.893 39.0367L136.892 36.4808C139.733 32.9356 146.038 26.9581 149.502 24.5259C157.983 18.631 167.618 16.1575 176.898 17.5592C193.505 20.0326 205.449 31.1217 209.268 47.6524C210.422 52.5168 210.422 62.5754 209.268 67.4398C207.27 76.138 202.696 83.8881 196.613 88.9586C185.69 97.9866 170.149 100.419 157.361 95.1009C143.596 89.3708 131.696 75.4372 122.638 54.4544C116.022 39.1191 107.941 27.2055 97.7729 17.7653C88.0931 8.77849 78.6797 3.79043 66.9131 1.4819C64.3377 0.987213 54.4803 0.616211 51.8162 0.904778Z" fill="white"/>
</svg>
